<svg width="50" height="38" viewBox="0 0 50 38" fill="none" xmlns="http://www.w3.org/2000/svg">
<mask id="mask0_797_1596" style="mask-type:alpha" maskUnits="userSpaceOnUse" x="0" y="0" width="50" height="38">
<rect width="50" height="37.5" rx="5" fill="white"/>
</mask>
<g mask="url(#mask0_797_1596)">
<path fill-rule="evenodd" clip-rule="evenodd" d="M5 0C2.23858 0 0 2.23858 0 5V32.5C0 35.2614 2.23858 37.5 5 37.5H45C47.7614 37.5 50 35.2614 50 32.5V5C50 2.23858 47.7614 0 45 0H5Z" fill="#2E42A5"/>
<mask id="mask1_797_1596" style="mask-type:alpha" maskUnits="userSpaceOnUse" x="0" y="0" width="50" height="38">
<path fill-rule="evenodd" clip-rule="evenodd" d="M5 0C2.23858 0 0 2.23858 0 5V32.5C0 35.2614 2.23858 37.5 5 37.5H45C47.7614 37.5 50 35.2614 50 32.5V5C50 2.23858 47.7614 0 45 0H5Z" fill="white"/>
</mask>
<g mask="url(#mask1_797_1596)">
<rect width="28.125" height="21.875" rx="5" fill="#2B409A"/>
<mask id="mask2_797_1596" style="mask-type:alpha" maskUnits="userSpaceOnUse" x="0" y="0" width="29" height="22">
<rect width="28.125" height="21.875" rx="5" fill="white"/>
</mask>
<g mask="url(#mask2_797_1596)">
<path d="M0.671019 17.1765C-1.07209 18.6138 -0.686969 21.3843 1.38209 22.2917C2.41241 22.7436 3.60826 22.5878 4.48834 21.8869L28.0298 3.13877C28.1864 3.014 28.3291 2.87251 28.4551 2.71683C29.8053 1.04844 28.8139 -1.45491 26.6875 -1.7464L26.2367 -1.8082C25.3931 -1.92383 24.5401 -1.67702 23.8886 -1.12885L14.63 6.66127L6.35423 12.4901L0.671019 17.1765Z" fill="#F7FCFF"/>
<path d="M-0.402987 20.6356C-1.29162 21.3811 -1.12513 22.7931 -0.0874732 23.3115C0.492009 23.601 1.18852 23.5154 1.68059 23.0941L27.3934 1.08061C28.4109 0.20952 27.7949 -1.45724 26.4555 -1.45724C26.1164 -1.45724 25.7882 -1.3378 25.5285 -1.1199L-0.402987 20.6356Z" fill="#F50100"/>
<path d="M27.454 17.1765C29.1971 18.6138 28.812 21.3843 26.743 22.2917C25.7126 22.7436 24.5168 22.5878 23.6367 21.8869L0.095293 3.13877C-0.0613842 3.014 -0.203989 2.87251 -0.329992 2.71683C-1.68027 1.04844 -0.688866 -1.45491 1.43759 -1.7464L1.88838 -1.8082C2.73193 -1.92383 3.58501 -1.67702 4.23651 -1.12885L13.495 6.66127L21.7708 12.4901L27.454 17.1765Z" fill="#F7FCFF"/>
<path d="M29.1781 20.0926C30.0625 20.8431 29.8923 22.2532 28.8546 22.7716C28.2718 23.0628 27.5711 22.9757 27.0773 22.5506L16.098 13.0993C15.5949 12.6661 15.0104 12.3375 14.3789 12.1326L12.4847 11.5181C11.9083 11.3311 11.3707 11.0409 10.8981 10.6617L-0.640079 1.40229C-1.66271 0.581629 -1.08241 -1.06864 0.228794 -1.06864C0.53931 -1.06864 0.840862 -0.964539 1.08524 -0.77297L15.3903 10.4407C15.815 10.7735 16.2907 11.0355 16.799 11.2163L19.2401 12.0849C19.8098 12.2876 20.338 12.5919 20.799 12.9831L29.1781 20.0926Z" fill="#F50100"/>
<mask id="path-10-outside-1_797_1596" maskUnits="userSpaceOnUse" x="-2" y="-2" width="32" height="26" fill="black">
<rect fill="white" x="-2" y="-2" width="32" height="26"/>
<path fill-rule="evenodd" clip-rule="evenodd" d="M15.6008 1.5625C15.6008 0.699555 14.9012 0 14.0383 0C13.1753 0 12.4758 0.699555 12.4758 1.5625V4.6875C12.4758 7.27633 10.3771 9.375 7.78827 9.375H1.5625C0.699555 9.375 0 10.0746 0 10.9375C0 11.8004 0.699556 12.5 1.5625 12.5H7.78828C10.3771 12.5 12.4758 14.5987 12.4758 17.1875V20.3125C12.4758 21.1754 13.1753 21.875 14.0383 21.875C14.9012 21.875 15.6008 21.1754 15.6008 20.3125V17.1875C15.6008 14.5987 17.6994 12.5 20.2883 12.5H26.5625C27.4254 12.5 28.125 11.8004 28.125 10.9375C28.125 10.0746 27.4254 9.375 26.5625 9.375H20.2883C17.6994 9.375 15.6008 7.27633 15.6008 4.6875V1.5625Z"/>
</mask>
<path fill-rule="evenodd" clip-rule="evenodd" d="M15.6008 1.5625C15.6008 0.699555 14.9012 0 14.0383 0C13.1753 0 12.4758 0.699555 12.4758 1.5625V4.6875C12.4758 7.27633 10.3771 9.375 7.78827 9.375H1.5625C0.699555 9.375 0 10.0746 0 10.9375C0 11.8004 0.699556 12.5 1.5625 12.5H7.78828C10.3771 12.5 12.4758 14.5987 12.4758 17.1875V20.3125C12.4758 21.1754 13.1753 21.875 14.0383 21.875C14.9012 21.875 15.6008 21.1754 15.6008 20.3125V17.1875C15.6008 14.5987 17.6994 12.5 20.2883 12.5H26.5625C27.4254 12.5 28.125 11.8004 28.125 10.9375C28.125 10.0746 27.4254 9.375 26.5625 9.375H20.2883C17.6994 9.375 15.6008 7.27633 15.6008 4.6875V1.5625Z" fill="#F50100"/>
<path d="M13.9758 4.6875V1.5625H10.9758V4.6875H13.9758ZM1.5625 10.875H7.78827V7.875H1.5625V10.875ZM7.78828 11H1.5625V14H7.78828V11ZM13.9758 20.3125V17.1875H10.9758V20.3125H13.9758ZM14.1008 17.1875V20.3125H17.1008V17.1875H14.1008ZM26.5625 11H20.2883V14H26.5625V11ZM20.2883 10.875H26.5625V7.875H20.2883V10.875ZM14.1008 1.5625V4.6875H17.1008V1.5625H14.1008ZM20.2883 7.875C18.5279 7.875 17.1008 6.44791 17.1008 4.6875H14.1008C14.1008 8.10476 16.871 10.875 20.2883 10.875V7.875ZM29.625 10.9375C29.625 9.24613 28.2539 7.875 26.5625 7.875V10.875C26.597 10.875 26.625 10.903 26.625 10.9375H29.625ZM26.5625 14C28.2539 14 29.625 12.6289 29.625 10.9375H26.625C26.625 10.972 26.597 11 26.5625 11V14ZM17.1008 17.1875C17.1008 15.4271 18.5279 14 20.2883 14V11C16.871 11 14.1008 13.7702 14.1008 17.1875H17.1008ZM14.0383 23.375C15.7296 23.375 17.1008 22.0039 17.1008 20.3125H14.1008C14.1008 20.347 14.0728 20.375 14.0383 20.375V23.375ZM10.9758 20.3125C10.9758 22.0039 12.3469 23.375 14.0383 23.375V20.375C14.0038 20.375 13.9758 20.347 13.9758 20.3125H10.9758ZM7.78828 14C9.54868 14 10.9758 15.4271 10.9758 17.1875H13.9758C13.9758 13.7702 11.2055 11 7.78828 11V14ZM-1.5 10.9375C-1.5 12.6289 -0.12887 14 1.5625 14V11C1.52798 11 1.5 10.972 1.5 10.9375H-1.5ZM1.5625 7.875C-0.128872 7.875 -1.5 9.24613 -1.5 10.9375H1.5C1.5 10.903 1.52798 10.875 1.5625 10.875V7.875ZM10.9758 4.6875C10.9758 6.44791 9.54868 7.875 7.78827 7.875V10.875C11.2055 10.875 13.9758 8.10476 13.9758 4.6875H10.9758ZM14.0383 1.5C14.0728 1.5 14.1008 1.52798 14.1008 1.5625H17.1008C17.1008 -0.128872 15.7296 -1.5 14.0383 -1.5V1.5ZM14.0383 -1.5C12.3469 -1.5 10.9758 -0.128872 10.9758 1.5625H13.9758C13.9758 1.52798 14.0038 1.5 14.0383 1.5V-1.5Z" fill="#F7FCFF" mask="url(#path-10-outside-1_797_1596)"/>
</g>
</g>
<path d="M19.375 26.625L18.0733 27.8279L18.2023 26.0602L16.4502 25.7926L17.9126 24.7912L17.0295 23.2545L18.7242 23.7735L19.375 22.125L20.0258 23.7735L21.7205 23.2545L20.8374 24.7912L22.2998 25.7926L20.5477 26.0602L20.6767 27.8279L19.375 26.625Z" fill="#F7FCFF"/>
<path d="M32.375 19.125L31.5072 19.9269L31.5932 18.7485L30.4251 18.57L31.4001 17.9025L30.8113 16.878L31.9411 17.224L32.375 16.125L32.8089 17.224L33.9387 16.878L33.3499 17.9025L34.3249 18.57L33.1568 18.7485L33.2428 19.9269L32.375 19.125Z" fill="#F7FCFF"/>
<path d="M34.375 11.125L33.5072 11.9269L33.5932 10.7485L32.4251 10.57L33.4001 9.90248L32.8113 8.87802L33.9411 9.22403L34.375 8.125L34.8089 9.22403L35.9387 8.87802L35.3499 9.90248L36.3249 10.57L35.1568 10.7485L35.2428 11.9269L34.375 11.125Z" fill="#F7FCFF"/>
<path d="M39.375 15.125L38.5072 15.9269L38.5932 14.7485L37.4251 14.57L38.4001 13.9025L37.8113 12.878L38.9411 13.224L39.375 12.125L39.8089 13.224L40.9387 12.878L40.3499 13.9025L41.3249 14.57L40.1568 14.7485L40.2428 15.9269L39.375 15.125Z" fill="#F7FCFF"/>
<path d="M35.375 28.125L34.5072 28.9269L34.5932 27.7485L33.4251 27.57L34.4001 26.9025L33.8113 25.878L34.9411 26.224L35.375 25.125L35.8089 26.224L36.9387 25.878L36.3499 26.9025L37.3249 27.57L36.1568 27.7485L36.2428 28.9269L35.375 28.125Z" fill="#F7FCFF"/>
<path d="M38.875 20.375L37.9933 20.8385L38.1617 19.8568L37.4484 19.1615L38.4342 19.0182L38.875 18.125L39.3158 19.0182L40.3016 19.1615L39.5883 19.8568L39.7567 20.8385L38.875 20.375Z" fill="#F7FCFF"/>
</g>
</svg>
