<svg width="60" height="60" viewBox="0 0 60 60" fill="none" xmlns="http://www.w3.org/2000/svg">
<circle cx="30" cy="30" r="29.5" stroke="url(#paint0_linear_696_2)"/>
<path d="M35.7148 19.8032C33.9691 18.7954 31.729 19.3956 30.7211 21.1413C29.7132 22.887 30.3135 25.1271 32.0592 26.1349C33.8048 27.1428 36.0449 26.5426 37.0528 24.7969C38.0607 23.0512 37.4604 20.8111 35.7148 19.8032ZM32.5532 25.2793C31.2793 24.5438 30.8413 22.9092 31.5767 21.6353C32.3122 20.3614 33.9469 19.9234 35.2208 20.6589C36.4946 21.3943 36.9326 23.029 36.1972 24.3029C35.4617 25.5768 33.827 26.0148 32.5532 25.2793Z" fill="url(#paint1_linear_696_2)"/>
<path d="M34.6609 21.6286C34.4246 21.4922 34.1225 21.5731 33.9861 21.8094C33.8497 22.0457 33.9306 22.3478 34.1669 22.4842C34.4342 22.6386 34.5262 22.9817 34.3718 23.249C34.2354 23.4853 34.3164 23.7874 34.5526 23.9238C34.7889 24.0603 35.091 23.9793 35.2274 23.743C35.6542 23.0039 35.4 22.0553 34.6609 21.6286Z" fill="url(#paint2_linear_696_2)"/>
<path d="M33.9884 39.1695L33.7238 33.359C36.2082 29.9253 38.2534 26.9329 39.1416 25.3944C40.9825 22.2059 41.0094 19.1761 40.7078 17.1958C40.3807 15.048 39.6204 13.6605 39.5882 13.6025C39.4997 13.443 39.3304 13.3452 39.1479 13.3483C39.0816 13.3494 37.4998 13.3847 35.4762 14.1753C33.6106 14.9044 31.0001 16.4426 29.1592 19.6311C28.2709 21.1696 26.7021 24.437 24.9705 28.3054L19.8053 30.982C19.0097 31.3966 18.352 32.0265 17.9034 32.8035L15.0921 37.6728C14.9877 37.8537 15.0082 38.0806 15.1435 38.2397C15.1808 38.2837 15.2247 38.3199 15.2728 38.3476C15.3987 38.4203 15.5533 38.4354 15.6946 38.3819L21.6419 36.1334C21.4698 36.9903 21.8561 37.8893 22.6357 38.3394L23.9908 39.1218L22.3935 41.8883C22.2571 42.1246 22.338 42.4267 22.5743 42.5631C22.8106 42.6996 23.1127 42.6186 23.2491 42.3823L24.8464 39.6158L26.2015 40.3981C26.9811 40.8482 27.9528 40.7333 28.6089 40.1558L29.6352 46.4305C29.6596 46.5796 29.7499 46.706 29.8758 46.7787C29.9239 46.8064 29.9772 46.8263 30.0339 46.8367C30.2393 46.8743 30.4462 46.7786 30.5506 46.5978L33.3619 41.7285C33.8104 40.9515 34.0271 40.0671 33.9884 39.1695ZM18.759 33.2975C19.1135 32.6835 19.6332 32.1858 20.2608 31.8587L24.3283 29.7509C23.5948 31.4139 22.8443 33.1568 22.1136 34.8988L16.6397 36.9683L18.759 33.2975ZM26.6956 39.5425L25.3404 38.7601L29.5724 31.4302C29.7088 31.1939 29.6278 30.8918 29.3915 30.7554C29.1553 30.619 28.8531 30.6999 28.7167 30.9362L24.4848 38.2661L23.1297 37.4838C22.6597 37.2124 22.4629 36.6285 22.6719 36.1257C23.6954 33.6636 24.7702 31.1753 25.7901 28.8918C25.7986 28.8753 25.8061 28.8584 25.8127 28.8412C27.5522 24.9486 29.1293 21.6588 30.0148 20.1251C30.9717 18.4678 32.2228 17.1404 33.7484 16.1581L37.2579 18.1843C37.4942 18.3207 37.7963 18.2398 37.9327 18.0035C38.0691 17.7672 37.9882 17.4651 37.7519 17.3287L34.7384 15.5888C35.0803 15.4141 35.4337 15.2543 35.799 15.1101C37.1661 14.5708 38.3294 14.4065 38.859 14.357C39.1342 14.9581 39.7436 16.499 39.8451 18.5372L39.5773 18.3825C39.341 18.2461 39.0389 18.3271 38.9024 18.5634C38.766 18.7996 38.847 19.1018 39.0833 19.2382L39.8459 19.6785C39.7686 21.2583 39.3525 23.0532 38.286 24.9004C37.4005 26.4341 35.3399 29.445 32.8386 32.8978C32.8272 32.912 32.8164 32.9267 32.8065 32.9421C31.3389 34.9672 29.7212 37.1423 28.1005 39.2599C27.7695 39.6924 27.1655 39.8139 26.6956 39.5425ZM30.3869 44.9053L29.4422 39.1299C30.5856 37.6262 31.7196 36.1047 32.7931 34.638L33.0013 39.2132C33.0319 39.9216 32.8607 40.6205 32.5062 41.2344L30.3868 44.9053L30.3869 44.9053Z" fill="url(#paint3_linear_696_2)"/>
<defs>
<linearGradient id="paint0_linear_696_2" x1="55" y1="11.5" x2="5.5" y2="49.5" gradientUnits="userSpaceOnUse">
<stop stop-color="#1479B1"/>
<stop offset="1" stop-color="#BC1EFF"/>
</linearGradient>
<linearGradient id="paint1_linear_696_2" x1="37.6523" y1="22.54" x2="30.1134" y2="23.5342" gradientUnits="userSpaceOnUse">
<stop stop-color="#1479B1"/>
<stop offset="1" stop-color="#BC1EFF"/>
</linearGradient>
<linearGradient id="paint2_linear_696_2" x1="35.6583" y1="22.6564" x2="33.5529" y2="22.934" gradientUnits="userSpaceOnUse">
<stop stop-color="#1479B1"/>
<stop offset="1" stop-color="#BC1EFF"/>
</linearGradient>
<linearGradient id="paint3_linear_696_2" x1="42.6188" y1="22.72" x2="21.1447" y2="19.7602" gradientUnits="userSpaceOnUse">
<stop stop-color="#1479B1"/>
<stop offset="1" stop-color="#BC1EFF"/>
</linearGradient>
</defs>
</svg>
