<svg width="50" height="38" viewBox="0 0 50 38" fill="none" xmlns="http://www.w3.org/2000/svg">
<mask id="mask0_797_1541" style="mask-type:alpha" maskUnits="userSpaceOnUse" x="0" y="0" width="50" height="38">
<rect width="50" height="37.5" rx="5" fill="white"/>
</mask>
<g mask="url(#mask0_797_1541)">
<path fill-rule="evenodd" clip-rule="evenodd" d="M5 0C2.23858 0 0 2.23858 0 5V32.5C0 35.2614 2.23858 37.5 5 37.5H45C47.7614 37.5 50 35.2614 50 32.5V5C50 2.23858 47.7614 0 45 0H5Z" fill="#009933"/>
<mask id="mask1_797_1541" style="mask-type:alpha" maskUnits="userSpaceOnUse" x="0" y="0" width="50" height="38">
<path fill-rule="evenodd" clip-rule="evenodd" d="M5 0C2.23858 0 0 2.23858 0 5V32.5C0 35.2614 2.23858 37.5 5 37.5H45C47.7614 37.5 50 35.2614 50 32.5V5C50 2.23858 47.7614 0 45 0H5Z" fill="white"/>
</mask>
<g mask="url(#mask1_797_1541)">
<g filter="url(#filter0_d_797_1541)">
<path fill-rule="evenodd" clip-rule="evenodd" d="M22.0332 7.7504C23.7491 6.56959 26.0174 6.57631 27.7263 7.76727L37.8292 14.8079C40.7481 16.8421 40.6686 21.1878 37.6773 23.1139L27.4086 29.726C25.7217 30.8122 23.5489 30.7849 21.8898 29.6566L11.9949 22.9269C9.08705 20.9492 9.07535 16.667 11.9724 14.6735L22.0332 7.7504Z" fill="#FFD221"/>
<path fill-rule="evenodd" clip-rule="evenodd" d="M22.0332 7.7504C23.7491 6.56959 26.0174 6.57631 27.7263 7.76727L37.8292 14.8079C40.7481 16.8421 40.6686 21.1878 37.6773 23.1139L27.4086 29.726C25.7217 30.8122 23.5489 30.7849 21.8898 29.6566L11.9949 22.9269C9.08705 20.9492 9.07535 16.667 11.9724 14.6735L22.0332 7.7504Z" fill="url(#paint0_linear_797_1541)"/>
</g>
<path fill-rule="evenodd" clip-rule="evenodd" d="M25 26.875C29.3147 26.875 32.8125 23.3772 32.8125 19.0625C32.8125 14.7478 29.3147 11.25 25 11.25C20.6853 11.25 17.1875 14.7478 17.1875 19.0625C17.1875 23.3772 20.6853 26.875 25 26.875Z" fill="#2E42A5"/>
<mask id="mask2_797_1541" style="mask-type:alpha" maskUnits="userSpaceOnUse" x="17" y="11" width="16" height="16">
<path fill-rule="evenodd" clip-rule="evenodd" d="M25 26.875C29.3147 26.875 32.8125 23.3772 32.8125 19.0625C32.8125 14.7478 29.3147 11.25 25 11.25C20.6853 11.25 17.1875 14.7478 17.1875 19.0625C17.1875 23.3772 20.6853 26.875 25 26.875Z" fill="white"/>
</mask>
<g mask="url(#mask2_797_1541)">
<path fill-rule="evenodd" clip-rule="evenodd" d="M22.5406 22.8034C22.4956 22.7798 22.4419 22.7798 22.3969 22.8034C22.2835 22.863 22.151 22.7668 22.1727 22.6405C22.1813 22.5904 22.1647 22.5393 22.1282 22.5038C22.0365 22.4144 22.0871 22.2587 22.2139 22.2403C22.2642 22.2329 22.3077 22.2013 22.3302 22.1557C22.3869 22.0409 22.5506 22.0409 22.6073 22.1557C22.6298 22.2013 22.6733 22.2329 22.7236 22.2403C22.8504 22.2587 22.901 22.4144 22.8093 22.5038C22.7728 22.5393 22.7562 22.5904 22.7648 22.6405C22.7865 22.7668 22.654 22.863 22.5406 22.8034Z" fill="#F7FCFF"/>
<path fill-rule="evenodd" clip-rule="evenodd" d="M25.6656 22.8034C25.6206 22.7798 25.5669 22.7798 25.5219 22.8034C25.4085 22.863 25.276 22.7668 25.2977 22.6405C25.3063 22.5904 25.2897 22.5393 25.2532 22.5038C25.1615 22.4144 25.2121 22.2587 25.3389 22.2403C25.3892 22.2329 25.4327 22.2013 25.4552 22.1557C25.5119 22.0409 25.6756 22.0409 25.7323 22.1557C25.7548 22.2013 25.7983 22.2329 25.8486 22.2403C25.9754 22.2587 26.026 22.4144 25.9343 22.5038C25.8978 22.5393 25.8812 22.5904 25.8898 22.6405C25.9115 22.7668 25.779 22.863 25.6656 22.8034Z" fill="#F7FCFF"/>
<path fill-rule="evenodd" clip-rule="evenodd" d="M25.6656 24.6783C25.6206 24.6546 25.5669 24.6546 25.5219 24.6783C25.4085 24.7379 25.276 24.6416 25.2977 24.5154C25.3063 24.4653 25.2897 24.4142 25.2532 24.3787C25.1615 24.2893 25.2121 24.1335 25.3389 24.1151C25.3892 24.1078 25.4327 24.0762 25.4552 24.0306C25.5119 23.9158 25.6756 23.9158 25.7323 24.0306C25.7548 24.0762 25.7983 24.1078 25.8486 24.1151C25.9754 24.1335 26.026 24.2893 25.9343 24.3787C25.8978 24.4142 25.8812 24.4653 25.8898 24.5154C25.9115 24.6416 25.779 24.7379 25.6656 24.6783Z" fill="#F7FCFF"/>
<path fill-rule="evenodd" clip-rule="evenodd" d="M24.1031 18.1159C24.0581 18.0923 24.0044 18.0923 23.9594 18.1159C23.846 18.1755 23.7135 18.0793 23.7352 17.953C23.7438 17.9029 23.7272 17.8518 23.6907 17.8163C23.599 17.7269 23.6496 17.5712 23.7764 17.5528C23.8267 17.5454 23.8702 17.5138 23.8927 17.4682C23.9494 17.3534 24.1131 17.3534 24.1698 17.4682C24.1923 17.5138 24.2358 17.5454 24.2861 17.5528C24.4129 17.5712 24.4635 17.7269 24.3718 17.8163C24.3353 17.8518 24.3187 17.9029 24.3273 17.953C24.349 18.0793 24.2165 18.1755 24.1031 18.1159Z" fill="#F7FCFF"/>
<path fill-rule="evenodd" clip-rule="evenodd" d="M24.1031 21.2409C24.0581 21.2173 24.0044 21.2173 23.9594 21.2409C23.846 21.3005 23.7135 21.2043 23.7352 21.078C23.7438 21.0279 23.7272 20.9768 23.6907 20.9413C23.599 20.8519 23.6496 20.6962 23.7764 20.6778C23.8267 20.6704 23.8702 20.6388 23.8927 20.5932C23.9494 20.4784 24.1131 20.4784 24.1698 20.5932C24.1923 20.6388 24.2358 20.6704 24.2861 20.6778C24.4129 20.6962 24.4635 20.8519 24.3718 20.9413C24.3353 20.9768 24.3187 21.0279 24.3273 21.078C24.349 21.2043 24.2165 21.3005 24.1031 21.2409Z" fill="#F7FCFF"/>
<path fill-rule="evenodd" clip-rule="evenodd" d="M21.9156 19.6784C21.8706 19.6548 21.8168 19.6548 21.7718 19.6784C21.6584 19.738 21.526 19.6418 21.5476 19.5155C21.5562 19.4654 21.5396 19.4143 21.5032 19.3788C21.4115 19.2894 21.4621 19.1337 21.5888 19.1153C21.6391 19.1079 21.6826 19.0763 21.7051 19.0307C21.7618 18.9159 21.9256 18.9159 21.9822 19.0307C22.0047 19.0763 22.0482 19.1079 22.0986 19.1153C22.2253 19.1337 22.2759 19.2894 22.1842 19.3788C22.1478 19.4143 22.1312 19.4654 22.1398 19.5155C22.1614 19.6418 22.0289 19.738 21.9156 19.6784Z" fill="#F7FCFF"/>
<path fill-rule="evenodd" clip-rule="evenodd" d="M19.7281 20.9285C19.6831 20.9049 19.6293 20.9049 19.5843 20.9285C19.4709 20.9881 19.3385 20.8919 19.3601 20.7657C19.3687 20.7156 19.3521 20.6644 19.3157 20.6289C19.224 20.5395 19.2746 20.3838 19.4013 20.3654C19.4516 20.3581 19.4951 20.3265 19.5176 20.2809C19.5743 20.166 19.7381 20.166 19.7947 20.2809C19.8172 20.3265 19.8607 20.3581 19.9111 20.3654C20.0378 20.3838 20.0884 20.5395 19.9967 20.6289C19.9603 20.6644 19.9437 20.7156 19.9523 20.7657C19.9739 20.8919 19.8414 20.9881 19.7281 20.9285Z" fill="#F7FCFF"/>
<path fill-rule="evenodd" clip-rule="evenodd" d="M26.9157 15.6159C26.8707 15.5923 26.8169 15.5923 26.7719 15.6159C26.6586 15.6755 26.5261 15.5793 26.5477 15.453C26.5563 15.4029 26.5397 15.3518 26.5033 15.3163C26.4116 15.2269 26.4622 15.0712 26.5889 15.0528C26.6393 15.0454 26.6828 15.0138 26.7053 14.9682C26.7619 14.8534 26.9257 14.8534 26.9824 14.9682C27.0049 15.0138 27.0484 15.0454 27.0987 15.0528C27.2254 15.0712 27.276 15.2269 27.1843 15.3163C27.1479 15.3518 27.1313 15.4029 27.1399 15.453C27.1615 15.5793 27.0291 15.6755 26.9157 15.6159Z" fill="#F7FCFF"/>
<path d="M17.0637 17.3327C16.2067 17.2318 15.5601 16.4855 15.625 15.625C15.6899 14.7645 16.4413 14.116 17.2987 14.2141C23.4412 14.9169 28.4537 16.9751 32.2912 20.4009C32.935 20.9755 32.9175 21.9695 32.2988 22.571C31.68 23.1726 30.6948 23.153 30.0443 22.5861C26.7567 19.7209 22.4438 17.966 17.0637 17.3327Z" fill="#F7FCFF"/>
<path d="M19.5906 16.6103C19.3764 16.5846 19.2203 16.3929 19.2425 16.1783C19.2647 15.9638 19.457 15.8075 19.6712 15.8331C24.2048 16.375 28.1236 18.1237 31.4171 21.0757C31.5778 21.2197 31.5869 21.4672 31.4401 21.6253C31.2933 21.7835 31.0464 21.7923 30.8856 21.6484C27.7177 18.8126 23.9562 17.1344 19.5906 16.6103Z" fill="#009933"/>
</g>
</g>
</g>
<defs>
<filter id="filter0_d_797_1541" x="9.80682" y="6.86938" width="30.1636" height="23.6527" filterUnits="userSpaceOnUse" color-interpolation-filters="sRGB">
<feFlood flood-opacity="0" result="BackgroundImageFix"/>
<feColorMatrix in="SourceAlpha" type="matrix" values="0 0 0 0 0 0 0 0 0 0 0 0 0 0 0 0 0 0 127 0" result="hardAlpha"/>
<feOffset/>
<feColorMatrix type="matrix" values="0 0 0 0 0.0313726 0 0 0 0 0.368627 0 0 0 0 0 0 0 0 0.28 0"/>
<feBlend mode="normal" in2="BackgroundImageFix" result="effect1_dropShadow_797_1541"/>
<feBlend mode="normal" in="SourceGraphic" in2="effect1_dropShadow_797_1541" result="shape"/>
</filter>
<linearGradient id="paint0_linear_797_1541" x1="50" y1="37.5" x2="50" y2="0" gradientUnits="userSpaceOnUse">
<stop stop-color="#FFC600"/>
<stop offset="1" stop-color="#FFDE42"/>
</linearGradient>
</defs>
</svg>
