<svg width="16" height="12" viewBox="0 0 16 12" fill="none" xmlns="http://www.w3.org/2000/svg">
<mask id="mask0_797_1684" style="mask-type:alpha" maskUnits="userSpaceOnUse" x="0" y="0" width="16" height="12">
<rect width="16" height="12" rx="2" fill="white"/>
</mask>
<g mask="url(#mask0_797_1684)">
<path fill-rule="evenodd" clip-rule="evenodd" d="M2 0C0.895431 0 0 0.895431 0 2V10C0 11.1046 0.895431 12 2 12H14C15.1046 12 16 11.1046 16 10V2C16 0.895431 15.1046 0 14 0H2Z" fill="#2E42A5"/>
<mask id="mask1_797_1684" style="mask-type:alpha" maskUnits="userSpaceOnUse" x="0" y="0" width="16" height="12">
<path fill-rule="evenodd" clip-rule="evenodd" d="M2 0C0.895431 0 0 0.895431 0 2V10C0 11.1046 0.895431 12 2 12H14C15.1046 12 16 11.1046 16 10V2C16 0.895431 15.1046 0 14 0H2Z" fill="white"/>
</mask>
<g mask="url(#mask1_797_1684)">
<mask id="mask2_797_1684" style="mask-type:alpha" maskUnits="userSpaceOnUse" x="0" y="0" width="16" height="12">
<rect width="16" height="12" rx="2" fill="white"/>
</mask>
<g mask="url(#mask2_797_1684)">
<path d="M0.441379 9.37507C-0.56055 10.1718 -0.344794 11.7503 0.834173 12.2489C1.39355 12.4855 2.03691 12.4031 2.5186 12.0332L15.9502 1.71845C16.0364 1.65228 16.1151 1.57693 16.1849 1.49371C16.9438 0.589509 16.4054 -0.796288 15.2351 -0.950982L14.8916 -0.996393C14.4322 -1.05711 13.9681 -0.926116 13.6083 -0.634174L8.32278 3.65422L3.61478 6.85174L0.441379 9.37507Z" fill="white"/>
<path d="M-0.198337 11.295C-0.710151 11.7091 -0.616537 12.515 -0.0234426 12.8007C0.292013 12.9527 0.667058 12.9073 0.937083 12.6843L15.547 0.623068C16.1277 0.143671 15.7887 -0.799421 15.0357 -0.799421C14.8518 -0.799421 14.6735 -0.736327 14.5306 -0.620678L-0.198337 11.295Z" fill="#F50100"/>
<path d="M15.5586 9.37507C16.5605 10.1718 16.3447 11.7503 15.1658 12.2489C14.6064 12.4855 13.963 12.4031 13.4813 12.0332L0.0497208 1.71845C-0.0364418 1.65228 -0.115141 1.57693 -0.184982 1.49371C-0.943884 0.589509 -0.405491 -0.796288 0.764803 -0.950982L1.10835 -0.996393C1.56771 -1.05711 2.03182 -0.926116 2.39164 -0.634174L7.67716 3.65422L12.3852 6.85174L15.5586 9.37507Z" fill="white"/>
<path d="M16.568 10.9967C17.0776 11.4137 16.9818 12.2188 16.3886 12.5046C16.0713 12.6574 15.6939 12.6112 15.4229 12.3862L9.02799 7.07788C8.82748 6.91144 8.59638 6.78579 8.34767 6.70799L6.94928 6.27055C6.72255 6.19962 6.51027 6.08887 6.32239 5.94348L-0.328754 0.79656C-0.910971 0.346018 -0.592371 -0.586292 0.143812 -0.586292C0.311882 -0.586292 0.475363 -0.531457 0.609438 -0.43011L8.86531 5.81048C9.03413 5.93808 9.22212 6.03809 9.42229 6.10676L11.0961 6.68101C11.3207 6.75807 11.5297 6.8745 11.7135 7.02486L16.568 10.9967Z" fill="#F50100"/>
<mask id="path-9-inside-1_797_1684" fill="white">
<path fill-rule="evenodd" clip-rule="evenodd" d="M9.88885 0.888889C9.88885 -0.154315 9.04317 -1 7.99997 -1C6.95676 -1 6.11108 -0.154315 6.11108 0.888889V2C6.11108 3.10457 5.21565 4 4.11108 4H1.01373C-0.0908365 4 -0.986267 4.89543 -0.986267 6C-0.986267 7.10457 -0.0908388 8 1.01373 8H4.11108C5.21565 8 6.11108 8.89543 6.11108 10V11.1111C6.11108 12.1543 6.95676 13 7.99997 13C9.04317 13 9.88885 12.1543 9.88885 11.1111V10C9.88885 8.89543 10.7843 8 11.8889 8H15.0137C16.1183 8 17.0137 7.10457 17.0137 6C17.0137 4.89543 16.1183 4 15.0137 4H11.8889C10.7843 4 9.88885 3.10457 9.88885 2V0.888889Z"/>
</mask>
<path fill-rule="evenodd" clip-rule="evenodd" d="M9.88885 0.888889C9.88885 -0.154315 9.04317 -1 7.99997 -1C6.95676 -1 6.11108 -0.154315 6.11108 0.888889V2C6.11108 3.10457 5.21565 4 4.11108 4H1.01373C-0.0908365 4 -0.986267 4.89543 -0.986267 6C-0.986267 7.10457 -0.0908388 8 1.01373 8H4.11108C5.21565 8 6.11108 8.89543 6.11108 10V11.1111C6.11108 12.1543 6.95676 13 7.99997 13C9.04317 13 9.88885 12.1543 9.88885 11.1111V10C9.88885 8.89543 10.7843 8 11.8889 8H15.0137C16.1183 8 17.0137 7.10457 17.0137 6C17.0137 4.89543 16.1183 4 15.0137 4H11.8889C10.7843 4 9.88885 3.10457 9.88885 2V0.888889Z" fill="#F50100"/>
<path d="M7.11108 2V0.888889H5.11108V2H7.11108ZM1.01373 5H4.11108V3H1.01373V5ZM4.11108 7H1.01373V9H4.11108V7ZM7.11108 11.1111V10H5.11108V11.1111H7.11108ZM8.88885 10V11.1111H10.8889V10H8.88885ZM15.0137 7H11.8889V9H15.0137V7ZM11.8889 5H15.0137V3H11.8889V5ZM8.88885 0.888889V2H10.8889V0.888889H8.88885ZM11.8889 3C11.3366 3 10.8889 2.55228 10.8889 2H8.88885C8.88885 3.65685 10.232 5 11.8889 5V3ZM18.0137 6C18.0137 4.34315 16.6706 3 15.0137 3V5C15.566 5 16.0137 5.44772 16.0137 6H18.0137ZM15.0137 9C16.6706 9 18.0137 7.65685 18.0137 6H16.0137C16.0137 6.55228 15.566 7 15.0137 7V9ZM10.8889 10C10.8889 9.44772 11.3366 9 11.8889 9V7C10.232 7 8.88885 8.34315 8.88885 10H10.8889ZM7.99997 14C9.59546 14 10.8889 12.7066 10.8889 11.1111H8.88885C8.88885 11.602 8.49088 12 7.99997 12V14ZM5.11108 11.1111C5.11108 12.7066 6.40448 14 7.99997 14V12C7.50905 12 7.11108 11.602 7.11108 11.1111H5.11108ZM4.11108 9C4.66336 9 5.11108 9.44772 5.11108 10H7.11108C7.11108 8.34315 5.76793 7 4.11108 7V9ZM-1.98627 6C-1.98627 7.65685 -0.643125 9 1.01373 9V7C0.461447 7 0.0137329 6.55229 0.0137329 6H-1.98627ZM1.01373 3C-0.643121 3 -1.98627 4.34315 -1.98627 6H0.0137329C0.0137329 5.44772 0.461448 5 1.01373 5V3ZM5.11108 2C5.11108 2.55229 4.66336 3 4.11108 3V5C5.76793 5 7.11108 3.65685 7.11108 2H5.11108ZM7.99997 0C8.49088 0 8.88885 0.397969 8.88885 0.888889H10.8889C10.8889 -0.7066 9.59546 -2 7.99997 -2V0ZM7.99997 -2C6.40448 -2 5.11108 -0.7066 5.11108 0.888889H7.11108C7.11108 0.397969 7.50905 0 7.99997 0V-2Z" fill="white" mask="url(#path-9-inside-1_797_1684)"/>
</g>
</g>
</g>
</svg>
