<svg width="72" height="28" viewBox="0 0 72 28" fill="none" xmlns="http://www.w3.org/2000/svg">
<path d="M33.5802 13.6797V21.8874H30.9583V1.61805H37.9122C38.7422 1.60083 39.5675 1.74703 40.3404 2.0482C41.1132 2.34938 41.8184 2.79957 42.4151 3.3728C43.0179 3.91123 43.4976 4.57155 43.822 5.30939C44.1465 6.04722 44.3081 6.84548 44.2961 7.65051C44.3134 8.45985 44.1542 9.26332 43.8295 10.0059C43.5049 10.7484 43.0224 11.4124 42.4151 11.9525C41.1991 13.104 39.6982 13.6792 37.9122 13.6781H33.5802V13.6797ZM33.5802 4.11352V11.1891H37.9773C38.4594 11.2033 38.9391 11.1174 39.3858 10.937C39.8325 10.7565 40.2364 10.4855 40.5716 10.1411C40.905 9.81919 41.1701 9.43411 41.3511 9.00868C41.5321 8.58325 41.6253 8.1261 41.6253 7.66426C41.6253 7.20242 41.5321 6.74526 41.3511 6.31983C41.1701 5.8944 40.905 5.50933 40.5716 5.18739C40.2406 4.83581 39.8381 4.5581 39.3909 4.37268C38.9436 4.18727 38.4618 4.09838 37.9773 4.1119H33.5802V4.11352Z" fill="#5F6368"/>
<path d="M50.338 7.56641C52.276 7.56641 53.8058 8.08071 54.9273 9.1093C56.0488 10.1379 56.6091 11.5482 56.608 13.3401V21.8874H54.1V19.9629H53.986C52.9003 21.5478 51.4563 22.3403 49.6541 22.3403C48.1156 22.3403 46.8285 21.8874 45.7928 20.9818C45.2957 20.5661 44.8983 20.0455 44.6295 19.4579C44.3607 18.8704 44.2274 18.2307 44.2391 17.5855C44.2391 16.1504 44.7852 15.0091 45.8774 14.1617C46.9697 13.3142 48.4278 12.8894 50.2517 12.8873C51.8086 12.8873 53.0908 13.1703 54.0984 13.7363V13.1412C54.1013 12.7013 54.0057 12.2663 53.8184 11.8677C53.6311 11.4691 53.3568 11.1168 53.0154 10.8366C52.322 10.2153 51.4184 9.87635 50.4846 9.88721C49.02 9.88721 47.861 10.5007 47.0077 11.7277L44.6984 10.2834C45.9686 8.47209 47.8485 7.56641 50.338 7.56641ZM46.9458 17.6421C46.944 17.9735 47.022 18.3005 47.1733 18.5958C47.3246 18.8912 47.5447 19.1464 47.8154 19.3402C48.3953 19.7932 49.1151 20.0332 49.8527 20.0195C50.9592 20.0176 52.0197 19.5803 52.802 18.8033C53.6706 17.9914 54.1049 17.0388 54.1049 15.9455C53.2874 15.2986 52.1474 14.9752 50.6849 14.9752C49.6199 14.9752 48.7318 15.2302 48.0206 15.7402C47.3024 16.2577 46.9458 16.8868 46.9458 17.6421Z" fill="#5F6368"/>
<path d="M71.0044 8.01926L62.2493 28.0008H59.5426L62.7916 21.0093L57.0347 8.01926H59.8846L64.0456 17.9817H64.1026L68.1495 8.01926H71.0044Z" fill="#5F6368"/>
<path d="M22.9849 11.9104C22.9859 11.1169 22.9183 10.3248 22.783 9.54273H11.7251V14.0275H18.0585C17.9289 14.7437 17.6546 15.4265 17.2521 16.0347C16.8497 16.6428 16.3273 17.1638 15.7167 17.5661V20.4772H19.4965C21.7097 18.4507 22.9849 15.4539 22.9849 11.9104Z" fill="#4285F4"/>
<path d="M11.7251 23.2896C14.8894 23.2896 17.5537 22.2578 19.4965 20.4788L15.7167 17.5677C14.6646 18.2761 13.3097 18.6804 11.7251 18.6804C8.66665 18.6804 6.07074 16.6329 5.14246 13.8738H1.2486V16.8739C2.22453 18.8024 3.72103 20.4237 5.571 21.5566C7.42098 22.6895 9.55163 23.2895 11.7251 23.2896Z" fill="#34A853"/>
<path d="M5.14243 13.8738C4.65169 12.428 4.65169 10.8624 5.14243 9.41658V6.41652H1.24857C0.427573 8.03891 0 9.82947 0 11.6452C0 13.4609 0.427573 15.2515 1.24857 16.8739L5.14243 13.8738Z" fill="#FBBC04"/>
<path d="M11.7251 4.61002C13.3973 4.58289 15.013 5.21031 16.2231 6.35668L19.5698 3.03317C17.4477 1.05374 14.6363 -0.0330033 11.7251 0.000763984C9.55163 0.000862355 7.42098 0.600864 5.571 1.73378C3.72103 2.8667 2.22453 4.48795 1.2486 6.41652L5.14246 9.41658C6.07074 6.6575 8.66665 4.61002 11.7251 4.61002Z" fill="#EA4335"/>
</svg>
