<svg width="199" height="39" viewBox="0 0 199 39" fill="none" xmlns="http://www.w3.org/2000/svg">
<path d="M20.6899 16.4744C20.6899 16.4744 26.3487 23.1191 31.5162 24.2594C32.9309 28.6237 31.9288 32.8111 29.0012 32.9487C26.0736 33.0863 24.7768 32.1034 24.7768 32.1034C24.7768 32.1034 25.2287 34.5214 29.7478 37.6079C24.3445 37.6079 11.3765 37.6079 11.3765 37.6079C11.3765 37.6079 13.9308 36.9002 16.8584 31.9854C17.3496 31.4546 15.8367 33.1453 11.8677 33.4009C11.4158 33.1453 6.81806 28.7023 9.27412 24.3577C14.2845 23.6696 20.6899 16.4744 20.6899 16.4744Z" fill="url(#paint0_linear_797_1325)"/>
<path d="M20.6899 0.766724C20.6899 0.766724 11.3372 4.42332 3.06517 16.9462C-2.94727 30.0588 8.78288 34.777 13.1056 33.1256C11.1014 32.4769 7.03417 29.2921 11.3961 20.5438C14.8739 14.9409 20.6899 11.8545 20.6899 11.8545C20.6899 11.8545 26.4469 15.0982 29.2763 19.6002C31.693 23.6106 34.2277 32.8897 27.3311 32.8897C36.6052 35.3078 44.5628 26.3432 36.9588 14.823C28.0974 3.1848 20.6899 0.766724 20.6899 0.766724Z" fill="url(#paint1_linear_797_1325)"/>
<path d="M15.7762 27.2873L14.3851 21.2452L16.7551 19.0873C16.7551 19.0873 14.3335 11.0081 20.6193 6.67505C26.4585 10.5938 24.5006 19.0009 24.5006 19.0009L26.7848 21.2106L25.5654 27.2873L23.1439 23.4721C23.1439 23.4721 19.9495 26.7866 17.9573 23.4376C17.3218 24.6287 15.7762 27.2873 15.7762 27.2873Z" fill="url(#paint2_linear_797_1325)"/>
<path d="M15.7762 27.2873L15.5186 22.7643L18.5068 19.5188C18.5068 19.5188 14.969 12.9934 20.6364 6.67505C25.9948 12.4927 22.8175 19.5016 22.8175 19.5016L25.8058 22.7643L25.5998 27.2873L23.1782 23.4721C23.1782 23.4721 21.186 26.7694 21.2719 32.0174C21.3578 37.2654 22.6115 37.8005 23.0408 37.8005C23.4702 37.8005 17.4249 37.8005 18.2492 37.8005C19.6575 37.8005 20.293 33.83 20.1899 32.0174C20.2243 30.1357 20.104 26.9593 18.0088 23.4376C17.3218 24.6287 15.7762 27.2873 15.7762 27.2873Z" fill="#1B1B1B"/>
<path d="M20.5849 17.6199C21.5998 17.6199 22.4225 16.7929 22.4225 15.7727C22.4225 14.7525 21.5998 13.9255 20.5849 13.9255C19.57 13.9255 18.7473 14.7525 18.7473 15.7727C18.7473 16.7929 19.57 17.6199 20.5849 17.6199Z" fill="#141414"/>
<path d="M20.5849 18.1378C21.5998 18.1378 22.4225 17.3108 22.4225 16.2906C22.4225 15.2705 21.5998 14.4435 20.5849 14.4435C19.57 14.4435 18.7473 15.2705 18.7473 16.2906C18.7473 17.3108 19.57 18.1378 20.5849 18.1378Z" fill="#1479B1"/>
<path fill-rule="evenodd" clip-rule="evenodd" d="M87.8934 10.9612C85.1118 11.6743 83.6483 13.3592 83.6483 15.8486C83.6483 18.771 85.2713 20.3486 89.8156 21.8428C91.8373 22.5076 92.4853 23.2451 91.9246 24.2437C91.2288 25.4838 88.6967 25.4521 85.8929 24.1684C85.154 23.8301 84.5248 23.5823 84.4945 23.6179C84.4643 23.6533 84.2597 24.3093 84.0397 25.0756C83.82 25.8418 83.5817 26.6203 83.5108 26.8051C83.3459 27.2351 85.6529 28.2805 87.6661 28.6881C89.5244 29.0641 92.3858 28.8183 93.9426 28.1484C97.2322 26.7334 98.0936 22.6437 95.6461 20.0623C94.8303 19.2017 92.7443 18.1257 90.8299 17.5779C90.0319 17.3497 89.1874 16.9941 88.9525 16.7876C88.3765 16.2813 88.4145 15.445 89.0393 14.8797C89.7324 14.253 92.2689 14.3008 94.2546 14.978C95.0579 15.2521 95.751 15.4409 95.7946 15.3975C95.9914 15.2004 96.5772 12.2157 96.4723 11.9428C96.1217 11.0285 90.2507 10.3569 87.8934 10.9612ZM51.701 19.7804V28.6817H57.5539H63.4069V26.7307V24.7797H59.9927H56.5784V23.0726V21.3655H59.7488H62.9191V19.5365V17.7074H59.7488H56.5784V16.2442V14.781H59.9927H63.4069V12.83V10.879H57.5539H51.701V19.7804ZM69.0177 18.3781C67.662 22.5025 66.3463 26.5083 66.0934 27.2794L65.6337 28.6817H68.148H70.6621L70.8179 27.9023C70.9038 27.4738 71.0862 26.7056 71.2237 26.1952L71.4734 25.2675H73.9914H76.5094L76.813 26.698C76.9798 27.4848 77.1959 28.2571 77.293 28.4142C77.4137 28.6093 78.2375 28.6776 79.8963 28.6298L82.3231 28.5598L79.4227 19.7194L76.5226 10.879H74.0024H71.4822L69.0177 18.3781ZM98.4267 12.1513C98.7845 12.86 100.105 15.3797 101.361 17.7509L103.646 22.0623V25.3719V28.6817H106.085H108.523V25.4394V22.1974L111.45 16.6403C113.059 13.584 114.376 11.0373 114.376 10.9812C114.376 10.9251 113.197 10.8795 111.755 10.8802L109.133 10.8812L107.69 14.5383C106.897 16.5498 106.208 18.1562 106.16 18.1081C106.112 18.0601 105.438 16.4413 104.661 14.5108L103.25 11.0009L100.513 10.9319L97.7766 10.8629L98.4267 12.1513ZM75.441 20.9388L75.6098 21.6094H74.02C73.1457 21.6094 72.4302 21.5038 72.4302 21.375C72.4302 21.0836 73.3279 17.1975 73.6998 15.8784L73.9748 14.9029L74.6235 17.5855C74.9803 19.0609 75.3481 20.5698 75.441 20.9388Z" fill="#1479B1"/>
<path fill-rule="evenodd" clip-rule="evenodd" d="M117.912 10.6736L116.693 10.8182L116.629 19.6586L116.565 28.499H119.007H121.448V25.6944V22.8899H123.239C127.649 22.8899 129.927 21.0092 130.174 17.1665C130.475 12.4766 127.702 10.3805 121.343 10.4907C120.127 10.5119 118.583 10.5941 117.912 10.6736ZM137.844 10.8148C136.055 11.3184 135.213 11.7954 134.037 12.9719C132.732 14.2776 131.969 15.9188 131.716 17.9673C131.053 23.3182 133.476 27.3472 137.996 28.4112C143.318 29.6637 148.072 27.2752 149.408 22.6785C149.966 20.7609 149.771 17.097 149.02 15.3884C148.3 13.7501 146.07 11.642 144.451 11.0701C142.811 10.4907 139.457 10.3612 137.844 10.8148ZM186.502 10.6326L185.099 10.7207V19.6098V28.499H187.409H189.718L189.786 25.3896L189.855 22.2802L190.812 22.3119C192.031 22.3522 192.191 22.5807 193.281 25.8513L194.163 28.499H196.581C197.912 28.499 199 28.4024 199 28.2841C199 27.9149 197.323 23.4174 196.811 22.4144C196.543 21.8888 196.101 21.3028 195.829 21.1121C195.349 20.7758 195.363 20.746 196.3 20.1259C197.734 19.1772 198.632 17.493 198.609 15.7986C198.574 13.2279 197.159 11.5174 194.498 10.8287C193.113 10.4702 190.221 10.3992 186.502 10.6326ZM152.42 19.5976V28.499H154.737H157.054V24.4751C157.054 22.2619 157.136 20.4534 157.237 20.4561C157.337 20.4585 158.462 22.2683 159.736 24.4778L162.053 28.4946L164.797 28.4968C166.306 28.498 167.54 28.4531 167.54 28.397C167.54 28.341 166.278 26.3063 164.736 23.8759C163.193 21.4452 161.931 19.3484 161.931 19.216C161.931 19.0835 162.898 17.524 164.079 15.7503C165.26 13.9766 166.476 12.1139 166.781 11.6108L167.336 10.6963L164.573 10.697L161.809 10.6977L159.615 14.3514C158.407 16.3612 157.337 18.0068 157.237 18.0088C157.136 18.0108 157.054 16.3663 157.054 14.3544V10.6963H154.737H152.42V19.5976ZM169.979 19.5976V28.499H175.832H181.685V26.548V24.597H178.271H174.857V22.8899V21.1828H178.027H181.197V19.3538V17.5247H178.027H174.857V16.0615V14.5982H178.271H181.685V12.6473V10.6963H175.832H169.979V19.5976ZM124.978 14.8355C126.308 16.0851 125.914 18.4314 124.258 19.1233C123.795 19.3172 122.973 19.4757 122.432 19.4757H121.448V16.7638V14.052L122.908 14.1576C124.01 14.2371 124.518 14.4036 124.978 14.8355ZM193.124 14.6994C194.211 15.6827 193.943 17.7147 192.637 18.3897C192.26 18.5846 191.453 18.7441 190.842 18.7441H189.733V16.398V14.052L191.187 14.1571C192.123 14.2249 192.813 14.4178 193.124 14.6994ZM143.066 15.1155C144.267 15.8449 144.731 17.0589 144.735 19.4818C144.741 23.1255 143.575 24.6351 140.734 24.6616C137.859 24.6887 136.691 23.2247 136.691 19.5976C136.691 17.136 137.119 15.9088 138.231 15.1799C139.617 14.2715 141.633 14.2446 143.066 15.1155Z" fill="white"/>
<defs>
<linearGradient id="paint0_linear_797_1325" x1="8.55664" y1="27.0352" x2="32.1555" y2="27.0352" gradientUnits="userSpaceOnUse">
<stop stop-color="#C4C4C4"/>
<stop offset="1" stop-color="white"/>
</linearGradient>
<linearGradient id="paint1_linear_797_1325" x1="3.90092" y1="10.7971" x2="37.1346" y2="29.8939" gradientUnits="userSpaceOnUse">
<stop stop-color="white"/>
<stop offset="0.199" stop-color="white"/>
<stop offset="0.4271" stop-color="#ECEDF1"/>
<stop offset="0.6694" stop-color="#E5E5E5"/>
<stop offset="0.9202" stop-color="#E5E5E5"/>
<stop offset="0.9986" stop-color="#C4C4C4"/>
</linearGradient>
<linearGradient id="paint2_linear_797_1325" x1="20.5849" y1="6.67505" x2="20.5849" y2="27.2873" gradientUnits="userSpaceOnUse">
<stop stop-color="#1479B1" stop-opacity="0"/>
<stop offset="1" stop-color="#1479B1"/>
</linearGradient>
</defs>
</svg>
