<svg width="307" height="60" viewBox="0 0 307 60" fill="none" xmlns="http://www.w3.org/2000/svg">
<path d="M31.9185 25.4152C31.9185 25.4152 40.6484 35.6662 48.6204 37.4252C50.8029 44.1581 49.257 50.618 44.7405 50.8303C40.224 51.0426 38.2234 49.5262 38.2234 49.5262C38.2234 49.5262 38.9206 53.2566 45.8924 58.0182C37.5566 58.0182 17.5506 58.0182 17.5506 58.0182C17.5506 58.0182 21.4912 56.9264 26.0077 49.3443C26.7655 48.5254 24.4315 51.1336 18.3084 51.5279C17.6113 51.1336 10.5183 44.2794 14.3073 37.5768C22.0368 36.5153 31.9185 25.4152 31.9185 25.4152Z" fill="url(#paint0_linear_797_1707)"/>
<path d="M31.9185 1.18286C31.9185 1.18286 17.49 6.82394 4.72866 26.1431C-4.54682 46.3721 13.5494 53.651 20.2181 51.1034C17.1263 50.1025 10.8517 45.1893 17.5809 31.6932C22.9462 23.0496 31.9185 18.2881 31.9185 18.2881C31.9185 18.2881 40.7999 23.2922 45.1649 30.2374C48.8932 36.4244 52.8035 50.7394 42.164 50.7394C56.4713 54.4698 68.7476 40.6401 57.0169 22.8677C43.3461 4.91325 31.9185 1.18286 31.9185 1.18286Z" fill="url(#paint1_linear_797_1707)"/>
<path d="M24.3381 42.0963L22.192 32.7751L25.8483 29.4461C25.8483 29.4461 22.1125 16.9823 31.8096 10.2976C40.8178 16.3431 37.7974 29.3129 37.7974 29.3129L41.3212 32.7218L39.4401 42.0963L35.7043 36.2107C35.7043 36.2107 30.7763 41.324 27.7029 36.1574C26.7226 37.995 24.3381 42.0963 24.3381 42.0963Z" fill="url(#paint2_linear_797_1707)"/>
<path d="M24.3381 42.0963L23.9407 35.1187L28.5508 30.1119C28.5508 30.1119 23.0928 20.045 31.8361 10.2976C40.1025 19.2726 35.2009 30.0853 35.2009 30.0853L39.811 35.1187L39.4931 42.0963L35.7573 36.2107C35.7573 36.2107 32.6839 41.2974 32.8164 49.3935C32.9489 57.4897 34.883 58.3153 35.5454 58.3153C36.2077 58.3153 26.8816 58.3153 28.1533 58.3153C30.3259 58.3153 31.3062 52.1899 31.1472 49.3935C31.2002 46.4906 31.0148 41.5903 27.7824 36.1574C26.7226 37.995 24.3381 42.0963 24.3381 42.0963Z" fill="#1B1B1B"/>
<path d="M31.7566 27.1824C33.3223 27.1824 34.5916 25.9066 34.5916 24.3328C34.5916 22.759 33.3223 21.4832 31.7566 21.4832C30.1909 21.4832 28.9217 22.759 28.9217 24.3328C28.9217 25.9066 30.1909 27.1824 31.7566 27.1824Z" fill="#141414"/>
<path d="M31.7566 27.9814C33.3223 27.9814 34.5916 26.7056 34.5916 25.1317C34.5916 23.5579 33.3223 22.2821 31.7566 22.2821C30.1909 22.2821 28.9217 23.5579 28.9217 25.1317C28.9217 26.7056 30.1909 27.9814 31.7566 27.9814Z" fill="#1479B1"/>
<path fill-rule="evenodd" clip-rule="evenodd" d="M135.594 16.9101C131.303 18.0102 129.045 20.6095 129.045 24.45C129.045 28.9583 131.549 31.3921 138.56 33.6973C141.679 34.7229 142.678 35.8606 141.813 37.4012C140.74 39.3143 136.834 39.2654 132.508 37.285C131.368 36.7631 130.397 36.3809 130.351 36.4358C130.304 36.4904 129.989 37.5024 129.649 38.6845C129.31 39.8666 128.943 41.0675 128.833 41.3527C128.579 42.016 132.138 43.6289 135.244 44.2575C138.11 44.8377 142.525 44.4585 144.927 43.425C150.001 41.2421 151.33 34.9328 147.555 30.9505C146.296 29.6228 143.078 27.9628 140.124 27.1178C138.893 26.7657 137.591 26.2172 137.228 25.8985C136.34 25.1175 136.398 23.8274 137.362 22.9553C138.431 21.9884 142.345 22.0621 145.408 23.1069C146.647 23.5298 147.716 23.821 147.784 23.754C148.087 23.45 148.991 18.8454 148.829 18.4244C148.288 17.0139 139.231 15.9778 135.594 16.9101ZM79.7598 30.5155V44.2478H88.7892H97.8186V41.238V38.2282H92.5515H87.2843V35.5946V32.961H92.1752H97.0662V30.1393V27.3176H92.1752H87.2843V25.0603V22.8029H92.5515H97.8186V19.7931V16.7833H88.7892H79.7598V30.5155ZM106.474 28.3522C104.383 34.715 102.353 40.8948 101.963 42.0845L101.254 44.2478H105.133H109.011L109.252 43.0453C109.384 42.3843 109.666 41.1992 109.878 40.4118L110.263 38.9806H114.148H118.032L118.5 41.1875C118.758 42.4012 119.091 43.5928 119.241 43.835C119.427 44.136 120.698 44.2414 123.257 44.1676L127.001 44.0597L122.526 30.4215L118.052 16.7833H114.164H110.277L106.474 28.3522ZM151.844 18.7461C152.396 19.8394 154.433 23.7265 156.372 27.3846L159.896 34.0359V39.1416V44.2478H163.658H167.42V39.2458V34.2443L171.935 25.6713C174.418 20.9564 176.45 17.0275 176.45 16.9409C176.45 16.8544 174.63 16.7841 172.405 16.7852L168.361 16.7867L166.135 22.4286C164.911 25.5317 163.849 28.0099 163.774 27.9358C163.7 27.8616 162.66 25.3643 161.462 22.3861L159.285 16.9714L155.063 16.8649L150.841 16.7585L151.844 18.7461ZM116.384 32.3026L116.644 33.3372H114.192C112.843 33.3372 111.739 33.1743 111.739 32.9757C111.739 32.5261 113.124 26.5309 113.698 24.4959L114.122 22.991L115.123 27.1295C115.673 29.4057 116.241 31.7334 116.384 32.3026Z" fill="#1479B1"/>
<path fill-rule="evenodd" clip-rule="evenodd" d="M181.905 16.4663L180.024 16.6894L179.925 30.3275L179.826 43.9657H183.594H187.36V39.6391V35.3125H190.122C196.925 35.3125 200.441 32.4111 200.822 26.4829C201.286 19.2477 197.008 16.014 187.197 16.1841C185.321 16.2168 182.94 16.3436 181.905 16.4663ZM212.654 16.6841C209.893 17.461 208.594 18.1969 206.78 20.0118C204.767 22.0261 203.591 24.5581 203.2 27.7184C202.178 35.9732 205.916 42.1888 212.888 43.8303C221.098 45.7626 228.433 42.0778 230.495 34.9863C231.355 32.0281 231.053 26.3757 229.895 23.7398C228.784 21.2124 225.344 17.9603 222.846 17.078C220.316 16.1841 215.142 15.9843 212.654 16.6841ZM287.718 16.4031L285.555 16.5389V30.2523V43.9657H289.118H292.681L292.786 39.1688L292.892 34.372L294.368 34.4209C296.249 34.483 296.495 34.8355 298.177 39.881L299.538 43.9657H303.269C305.321 43.9657 307 43.8167 307 43.6343C307 43.0647 304.413 36.1263 303.624 34.5789C303.21 33.7681 302.528 32.8641 302.108 32.5698C301.367 32.051 301.389 32.0051 302.834 31.0484C305.046 29.5849 306.433 26.9867 306.397 24.3726C306.343 20.4069 304.161 17.768 300.055 16.7055C297.918 16.1525 293.456 16.043 287.718 16.4031ZM235.141 30.2335V43.9657H238.715H242.289V37.758C242.289 34.3437 242.416 31.5537 242.571 31.5578C242.726 31.5616 244.462 34.3535 246.428 37.7621L250.002 43.9589L254.234 43.9623C256.562 43.9642 258.467 43.895 258.467 43.8085C258.467 43.7219 256.52 40.5831 254.14 36.8336C251.761 33.0838 249.814 29.849 249.814 29.6447C249.814 29.4404 251.305 27.0344 253.127 24.2982C254.949 21.5619 256.825 18.6883 257.296 17.9121L258.152 16.5013L253.889 16.5024L249.626 16.5035L246.24 22.1401C244.377 25.2406 242.726 27.7794 242.571 27.7824C242.416 27.7854 242.289 25.2485 242.289 22.1446V16.5013H238.715H235.141V30.2335ZM262.229 30.2335V43.9657H271.259H280.288V40.9559V37.9461H275.021H269.754V35.3125V32.6789H274.645H279.536V29.8573V27.0356H274.645H269.754V24.7782V22.5209H275.021H280.288V19.5111V16.5013H271.259H262.229V30.2335ZM192.805 22.8869C194.857 24.8147 194.25 28.4344 191.695 29.5017C190.98 29.8008 189.712 30.0454 188.877 30.0454H187.36V25.8617V21.6781L189.612 21.841C191.311 21.9637 192.096 22.2206 192.805 22.8869ZM297.935 22.677C299.612 24.1939 299.198 27.3286 297.184 28.37C296.603 28.6706 295.357 28.9167 294.415 28.9167H292.703V25.2974V21.6781L294.947 21.8403C296.392 21.9449 297.455 22.2425 297.935 22.677ZM220.71 23.3188C222.562 24.4441 223.278 26.317 223.284 30.0548C223.294 35.676 221.495 38.0048 217.112 38.0458C212.678 38.0876 210.874 35.8291 210.874 30.2335C210.874 26.4359 211.535 24.5427 213.25 23.4182C215.389 22.0167 218.499 21.9753 220.71 23.3188Z" fill="white"/>
<defs>
<linearGradient id="paint0_linear_797_1707" x1="13.2004" y1="41.7075" x2="49.6067" y2="41.7075" gradientUnits="userSpaceOnUse">
<stop stop-color="#C4C4C4"/>
<stop offset="1" stop-color="white"/>
</linearGradient>
<linearGradient id="paint1_linear_797_1707" x1="6.01798" y1="16.6568" x2="57.288" y2="46.1178" gradientUnits="userSpaceOnUse">
<stop stop-color="white"/>
<stop offset="0.199" stop-color="white"/>
<stop offset="0.4271" stop-color="#ECEDF1"/>
<stop offset="0.6694" stop-color="#E5E5E5"/>
<stop offset="0.9202" stop-color="#E5E5E5"/>
<stop offset="0.9986" stop-color="#C4C4C4"/>
</linearGradient>
<linearGradient id="paint2_linear_797_1707" x1="31.7566" y1="10.2976" x2="31.7566" y2="42.0963" gradientUnits="userSpaceOnUse">
<stop stop-color="#1479B1" stop-opacity="0"/>
<stop offset="1" stop-color="#1479B1"/>
</linearGradient>
</defs>
</svg>
