<svg width="59" height="35" viewBox="0 0 59 35" fill="none" xmlns="http://www.w3.org/2000/svg">
<path d="M58.3333 17.5C58.3333 27.1026 50.5257 35 40.8333 35C31.2308 35 23.3333 27.1026 23.3333 17.5C23.3333 7.89744 31.141 0 40.7436 0C50.5257 0 58.3333 7.89744 58.3333 17.5Z" fill="#F9B50B"/>
<path d="M34.9103 17.5897C34.9103 16.3333 34.7308 15.0769 34.5513 13.9103H23.7821C23.8718 13.2821 24.0513 12.7436 24.2308 12.0256H33.8333C33.6539 11.3974 33.3846 10.7692 33.1154 10.141H24.9487C25.218 9.51282 25.5769 8.97436 25.9359 8.25641H32.1282C31.7692 7.6282 31.3205 7 30.7821 6.37179H27.3718C27.9103 5.74359 28.4487 5.20513 29.1667 4.57692C26.1154 1.70513 21.9872 0 17.4103 0C7.89744 0.269231 0 7.89744 0 17.5C0 27.1026 7.80769 35 17.5 35C22.0769 35 26.1154 33.2051 29.2564 30.4231C29.8846 29.8846 30.4231 29.2564 31.0513 28.5385H27.4615C27.0128 28 26.5641 27.3718 26.2051 26.7436H32.3077C32.6667 26.2051 33.0256 25.5769 33.2949 24.859H25.1282C24.859 24.3205 24.5897 23.6923 24.4103 22.9744H34.0128C34.5513 21.359 34.9103 19.5641 34.9103 17.5897Z" fill="#C8191C"/>
<path d="M23.6923 21.9872L23.9615 20.3718C23.8718 20.3718 23.6923 20.4615 23.5128 20.4615C22.8846 20.4615 22.7949 20.1026 22.8846 19.9231L23.4231 16.6923H24.4103L24.6795 14.8974H23.7821L23.9615 13.8205H22.0769C22.0769 13.8205 21 19.9231 21 20.641C21 21.7179 21.6282 22.2564 22.5256 22.2564C23.0641 22.2564 23.5128 22.0769 23.6923 21.9872Z" fill="white"/>
<path d="M24.3205 19.0256C24.3205 21.6282 26.1154 22.2564 27.5513 22.2564C28.8974 22.2564 29.5257 21.9872 29.5257 21.9872L29.8846 20.1923C29.8846 20.1923 28.8974 20.641 27.9103 20.641C25.8462 20.641 26.2051 19.1154 26.2051 19.1154H29.9744C29.9744 19.1154 30.2436 17.9487 30.2436 17.4103C30.2436 16.2436 29.6154 14.718 27.5513 14.718C25.7564 14.6282 24.3205 16.6923 24.3205 19.0256ZM27.5513 16.3333C28.5385 16.3333 28.359 17.5 28.359 17.5897H26.2949C26.3846 17.5 26.5641 16.3333 27.5513 16.3333Z" fill="white"/>
<path d="M39.3077 21.9872L39.6667 19.9231C39.6667 19.9231 38.7692 20.3718 38.0513 20.3718C36.7949 20.3718 36.1667 19.3846 36.1667 18.2179C36.1667 15.9744 37.2436 14.8077 38.5898 14.8077C39.4872 14.8077 40.2949 15.3462 40.2949 15.3462L40.5641 13.3718C40.5641 13.3718 39.4872 12.9231 38.4103 12.9231C36.2564 12.9231 34.1923 14.8077 34.1923 18.3077C34.1923 20.641 35.2692 22.1667 37.5128 22.1667C38.3205 22.2564 39.3077 21.9872 39.3077 21.9872Z" fill="white"/>
<path d="M13.5513 14.6282C12.2949 14.6282 11.3077 14.9872 11.3077 14.9872L11.0385 16.6026C11.0385 16.6026 11.8462 16.2436 13.1026 16.2436C13.7308 16.2436 14.2692 16.3333 14.2692 16.8718C14.2692 17.2308 14.1795 17.3205 14.1795 17.3205H13.3718C11.7564 17.3205 10.0513 17.9487 10.0513 20.1026C10.0513 21.8077 11.1282 22.1667 11.8462 22.1667C13.1026 22.1667 13.7308 21.359 13.8205 21.359L13.7308 22.0769H15.2564L15.9744 16.9615C15.9744 14.7179 14.1795 14.6282 13.5513 14.6282ZM13.9103 18.7564C13.9103 19.0256 13.7308 20.5513 12.6539 20.5513C12.1154 20.5513 11.9359 20.1026 11.9359 19.8333C11.9359 19.3846 12.2051 18.7564 13.641 18.7564C13.8205 18.7564 13.9103 18.7564 13.9103 18.7564Z" fill="white"/>
<path d="M17.7692 22.1667C18.2179 22.1667 20.5513 22.2564 20.5513 19.7436C20.5513 17.4103 18.3077 17.859 18.3077 16.9615C18.3077 16.5128 18.6667 16.3333 19.2949 16.3333C19.5641 16.3333 20.5513 16.4231 20.5513 16.4231L20.8205 14.7179C20.8205 14.7179 20.1923 14.5385 19.0256 14.5385C17.6795 14.5385 16.2436 15.0769 16.2436 16.9615C16.2436 19.1154 18.5769 18.9359 18.5769 19.7436C18.5769 20.2821 17.9487 20.3718 17.5 20.3718C16.6923 20.3718 15.7949 20.1026 15.7949 20.1026L15.5256 21.8077C15.7051 21.9872 16.2436 22.1667 17.7692 22.1667Z" fill="white"/>
<path d="M54.7436 13.1923L54.3846 15.7051C54.3846 15.7051 53.6667 14.8077 52.5898 14.8077C50.8846 14.8077 49.4487 16.8718 49.4487 19.2949C49.4487 20.8205 50.1667 22.3462 51.7821 22.3462C52.859 22.3462 53.5769 21.6282 53.5769 21.6282L53.4872 22.2564H55.3718L56.718 13.3718L54.7436 13.1923ZM53.8462 18.0385C53.8462 19.0256 53.3974 20.3718 52.3205 20.3718C51.6923 20.3718 51.3333 19.8333 51.3333 18.8462C51.3333 17.3205 51.9616 16.4231 52.859 16.4231C53.4872 16.5128 53.8462 16.9615 53.8462 18.0385Z" fill="white"/>
<path d="M3.41026 22.0769L4.48718 15.4359L4.66667 22.0769H5.92308L8.34616 15.4359L7.35898 22.0769H9.33334L10.859 13.1923H7.80769L5.92308 18.6667L5.83334 13.1923H3.14103L1.61539 22.0769H3.41026Z" fill="white"/>
<path d="M32.1282 22.0769C32.6667 19.0256 32.7564 16.5128 34.1025 16.9615C34.282 15.7949 34.5513 15.2564 34.7308 14.8077H34.3718C33.5641 14.8077 32.8461 15.8846 32.8461 15.8846L33.0256 14.8974H31.2308L30.0641 22.0769H32.1282Z" fill="white"/>
<path d="M43.6154 14.6282C42.359 14.6282 41.3718 14.9872 41.3718 14.9872L41.1026 16.6026C41.1026 16.6026 41.9103 16.2436 43.1667 16.2436C43.7949 16.2436 44.3333 16.3333 44.3333 16.8718C44.3333 17.2308 44.2436 17.3205 44.2436 17.3205H43.4359C41.8205 17.3205 40.1154 17.9487 40.1154 20.1026C40.1154 21.8077 41.1923 22.1667 41.9103 22.1667C43.1667 22.1667 43.7949 21.359 43.8846 21.359L43.7949 22.0769H45.5L46.218 16.9615C46.218 14.7179 44.2436 14.6282 43.6154 14.6282ZM44.0641 18.7564C44.0641 19.0256 43.8846 20.5513 42.8077 20.5513C42.2692 20.5513 42.0897 20.1026 42.0897 19.8333C42.0897 19.3846 42.359 18.7564 43.7949 18.7564C43.9744 18.7564 43.9744 18.7564 44.0641 18.7564Z" fill="white"/>
<path d="M47.6538 22.0769C48.1923 19.0256 48.282 16.5128 49.6282 16.9615C49.8077 15.7949 50.0769 15.2564 50.2564 14.8077H49.8974C49.0897 14.8077 48.3718 15.8846 48.3718 15.8846L48.5513 14.8974H46.7564L45.5897 22.0769H47.6538Z" fill="white"/>
</svg>
