<svg width="104" height="48" viewBox="0 0 104 48" fill="none" xmlns="http://www.w3.org/2000/svg">
<path d="M18.4 28.4C18 28.1 17.5 27.9 17 27.8C16.5 27.6 16 27.6 15.5 27.6C15.2 27.6 14.9 27.6 14.6 27.7C14.3 27.8 14.1 27.9 13.9 28C13.7 28.1 13.5 28.3 13.4 28.5C13.3 28.7 13.2 28.9 13.2 29.1C13.2 29.3 13.2 29.5 13.3 29.6C13.4 29.7 13.5 29.9 13.7 30C13.9 30.1 14.1 30.2 14.4 30.3C14.7 30.4 15 30.4 15.3 30.5L16 30.6C16.4 30.7 16.8 30.7 17.2 30.9C17.6 31 17.9 31.2 18.2 31.4C18.5 31.6 18.8 31.9 18.9 32.2C19.1 32.5 19.2 32.9 19.2 33.4C19.2 33.9 19.1 34.4 18.9 34.8C18.7 35.2 18.4 35.5 18 35.8C17.6 36.1 17.2 36.3 16.7 36.4C16.2 36.5 15.7 36.6 15.1 36.6C14.8 36.6 14.4 36.6 14 36.5C13.6 36.4 13.3 36.4 12.9 36.2C12.5 36.1 12.2 35.9 11.9 35.8C11.6 35.6 11.3 35.4 11 35.2L11.9 33.9C12.1 34.1 12.3 34.2 12.5 34.3C12.7 34.4 13 34.6 13.3 34.7C13.6 34.8 13.9 34.9 14.2 34.9C14.5 35 14.8 35 15.1 35C15.4 35 15.7 35 16 34.9C16.3 34.8 16.5 34.7 16.7 34.6C16.9 34.5 17.1 34.3 17.2 34.1C17.3 33.9 17.4 33.7 17.4 33.5C17.4 33.1 17.2 32.8 16.8 32.6C16.4 32.4 15.8 32.2 15.1 32.1L14.6 32C14.2 31.9 13.9 31.9 13.5 31.7C13.1 31.6 12.8 31.4 12.5 31.2C12.2 31 12 30.7 11.8 30.4C11.6 30.1 11.5 29.7 11.5 29.2C11.5 28.7 11.6 28.2 11.8 27.9C12 27.5 12.3 27.2 12.7 26.9C13.1 26.6 13.5 26.4 14 26.3C14.5 26.2 15 26.1 15.5 26.1C16.2 26.1 16.9 26.2 17.5 26.4C18.1 26.6 18.6 26.9 19.2 27.2L18.4 28.4ZM24 29.2C24.5 29.2 24.9 29.3 25.3 29.5C25.7 29.7 26 29.9 26.3 30.2C26.6 30.5 26.8 30.9 27 31.3C27.2 31.7 27.2 32.2 27.2 32.8C27.2 32.9 27.2 33 27.2 33.1C27.2 33.2 27.2 33.3 27.2 33.4H22.1C22.1 33.7 22.2 34 22.4 34.2C22.5 34.4 22.7 34.6 22.9 34.7C23.1 34.8 23.3 34.9 23.5 35C23.7 35.1 24 35.1 24.2 35.1C24.5 35.1 24.9 35 25.2 34.9C25.5 34.8 25.9 34.6 26.2 34.4L27 35.5C26.6 35.9 26.1 36.1 25.7 36.3C25.2 36.4 24.7 36.5 24.2 36.5C23.7 36.5 23.2 36.4 22.8 36.2C22.4 36 22 35.8 21.7 35.5C21.4 35.2 21.1 34.8 21 34.4C20.8 34 20.7 33.5 20.7 32.9C20.7 32.4 20.8 31.9 21 31.4C21.2 31 21.4 30.6 21.7 30.2C22 29.9 22.4 29.6 22.8 29.5C23 29.3 23.4 29.2 24 29.2ZM23.9 30.6C23.6 30.6 23.4 30.6 23.2 30.7C23 30.8 22.8 30.9 22.7 31.1C22.5 31.3 22.4 31.4 22.3 31.6C22.2 31.8 22.1 32 22.1 32.3H25.7C25.6 31.8 25.4 31.3 25.1 31C24.8 30.7 24.4 30.6 23.9 30.6ZM31.9 29.2C32.4 29.2 32.9 29.3 33.3 29.5C33.7 29.7 34.1 30 34.4 30.3L33.4 31.3C33.2 31.1 32.9 30.9 32.6 30.8C32.3 30.7 32 30.6 31.7 30.6C31.4 30.6 31.1 30.7 30.9 30.8C30.6 30.9 30.4 31.1 30.3 31.3C30.1 31.5 30 31.7 29.9 32C29.8 32.3 29.7 32.6 29.7 32.9C29.7 33.2 29.8 33.5 29.9 33.8C30 34.1 30.1 34.3 30.3 34.5C30.5 34.7 30.7 34.8 30.9 35C31.1 35.1 31.4 35.2 31.7 35.2C32 35.2 32.3 35.1 32.6 35C32.9 34.9 33.1 34.7 33.4 34.5L34.3 35.5C34 35.9 33.6 36.1 33.2 36.3C32.8 36.5 32.3 36.6 31.8 36.6C31.3 36.6 30.8 36.5 30.3 36.3C29.9 36.1 29.5 35.9 29.2 35.5C28.9 35.2 28.6 34.8 28.5 34.3C28.3 33.9 28.2 33.4 28.2 32.9C28.2 32.4 28.3 31.9 28.5 31.5C28.7 31.1 28.9 30.7 29.2 30.3C29.5 30 29.9 29.7 30.3 29.5C30.9 29.3 31.4 29.2 31.9 29.2ZM42.3 33.4C42.3 33.9 42.2 34.4 42 34.8C41.8 35.2 41.6 35.5 41.3 35.8C41 36.1 40.7 36.2 40.3 36.4C39.9 36.5 39.5 36.6 39.1 36.6C38.7 36.6 38.3 36.5 37.9 36.4C37.5 36.3 37.2 36.1 36.9 35.8C36.6 35.6 36.4 35.2 36.2 34.8C36 34.4 35.9 33.9 35.9 33.4V29.4H37.4V33.2C37.4 33.5 37.4 33.8 37.5 34C37.6 34.2 37.7 34.4 37.9 34.6C38.1 34.7 38.2 34.8 38.4 34.9C38.6 35 38.8 35 39.1 35C39.3 35 39.6 35 39.8 34.9C40 34.8 40.2 34.7 40.3 34.6C40.5 34.5 40.6 34.3 40.7 34C40.8 33.8 40.8 33.5 40.8 33.2V29.4H42.3V33.4ZM47.8 29.2C48 29.2 48.2 29.2 48.4 29.2C48.6 29.2 48.8 29.3 48.9 29.3L48.5 30.8C48.3 30.7 48.2 30.7 47.9 30.6C47.7 30.6 47.5 30.5 47.3 30.5C47.1 30.5 46.8 30.5 46.6 30.6C46.4 30.7 46.2 30.8 46.1 31C46 31.2 45.8 31.4 45.8 31.6C45.7 31.8 45.7 32.1 45.7 32.4V36.2H44.2V29.3H45.7V30.1C45.9 29.8 46.2 29.5 46.6 29.4C46.9 29.3 47.3 29.2 47.8 29.2ZM52.8 29.2C53.3 29.2 53.7 29.3 54.1 29.5C54.5 29.7 54.8 29.9 55.1 30.2C55.4 30.5 55.6 30.9 55.8 31.3C56 31.7 56 32.2 56 32.8C56 32.9 56 33 56 33.1C56 33.2 56 33.3 56 33.4H51C51 33.7 51.1 34 51.3 34.2C51.4 34.4 51.6 34.6 51.8 34.7C52 34.8 52.2 34.9 52.4 35C52.6 35.1 52.9 35.1 53.1 35.1C53.4 35.1 53.8 35 54.1 34.9C54.4 34.8 54.8 34.6 55.1 34.4L55.8 35.5C55.4 35.9 54.9 36.1 54.5 36.3C54 36.4 53.5 36.5 53 36.5C52.5 36.5 52 36.4 51.6 36.2C51.2 36 50.8 35.8 50.5 35.5C50.2 35.2 49.9 34.8 49.8 34.4C49.6 34 49.5 33.5 49.5 32.9C49.5 32.4 49.6 31.9 49.8 31.4C50 31 50.2 30.6 50.5 30.2C50.8 29.9 51.2 29.6 51.6 29.5C51.8 29.3 52.3 29.2 52.8 29.2ZM52.8 30.6C52.5 30.6 52.3 30.6 52.1 30.7C51.9 30.8 51.7 30.9 51.6 31.1C51.4 31.3 51.3 31.4 51.2 31.6C51.1 31.8 51 32 51 32.3H54.6C54.5 31.8 54.3 31.3 54 31C53.7 30.7 53.3 30.6 52.8 30.6ZM62.6 26C63 26 63.5 26 63.9 26.1C64.3 26.2 64.7 26.3 65.1 26.5C65.5 26.7 65.8 26.9 66.1 27.2C66.4 27.5 66.6 27.8 66.8 28.1L65.4 29C65.1 28.5 64.7 28.2 64.2 27.9C63.7 27.6 63.2 27.5 62.6 27.5C62.1 27.5 61.6 27.6 61.2 27.8C60.8 28 60.4 28.2 60.1 28.6C59.8 28.9 59.5 29.3 59.4 29.8C59.2 30.3 59.1 30.7 59.1 31.3C59.1 31.8 59.2 32.3 59.4 32.8C59.6 33.3 59.8 33.6 60.1 34C60.4 34.3 60.8 34.6 61.2 34.7C61.6 34.9 62.1 35 62.6 35C63.2 35 63.7 34.9 64.2 34.6C64.7 34.3 65.1 34 65.4 33.5L66.7 34.5C66.5 34.8 66.2 35.1 65.9 35.4C65.6 35.7 65.3 35.9 64.9 36C64.5 36.2 64.2 36.3 63.8 36.4C63.4 36.5 63 36.5 62.5 36.5C61.7 36.5 61 36.4 60.4 36.1C59.8 35.8 59.2 35.5 58.7 35C58.2 34.5 57.9 34 57.6 33.3C57.3 32.7 57.2 32 57.2 31.2C57.2 30.4 57.3 29.7 57.6 29.1C57.9 28.5 58.2 27.9 58.7 27.4C59.2 26.9 59.7 26.6 60.4 26.3C61.1 26.2 61.8 26 62.6 26ZM71.5 29.2C72 29.2 72.5 29.3 73 29.5C73.5 29.7 73.8 29.9 74.2 30.3C74.5 30.6 74.8 31 75 31.5C75.2 31.9 75.3 32.4 75.3 32.9C75.3 33.4 75.2 33.9 75 34.3C74.8 34.7 74.6 35.1 74.2 35.5C73.9 35.8 73.5 36.1 73 36.3C72.5 36.5 72.1 36.6 71.5 36.6C71 36.6 70.5 36.5 70 36.3C69.5 36.1 69.2 35.9 68.8 35.5C68.5 35.2 68.2 34.8 68 34.3C67.8 33.9 67.7 33.4 67.7 32.9C67.7 32.4 67.8 31.9 68 31.5C68.2 31.1 68.4 30.7 68.8 30.3C69.1 30 69.5 29.7 70 29.5C70.5 29.3 71 29.2 71.5 29.2ZM71.5 30.6C71.2 30.6 70.9 30.7 70.6 30.8C70.3 30.9 70.1 31.1 69.9 31.3C69.7 31.5 69.6 31.7 69.4 32C69.3 32.3 69.2 32.6 69.2 32.9C69.2 33.2 69.3 33.5 69.4 33.8C69.5 34.1 69.7 34.3 69.9 34.5C70.1 34.7 70.3 34.8 70.6 35C70.9 35.1 71.2 35.2 71.5 35.2C71.8 35.2 72.1 35.1 72.4 35C72.7 34.9 72.9 34.7 73.1 34.5C73.3 34.3 73.4 34.1 73.6 33.8C73.7 33.5 73.8 33.2 73.8 32.9C73.8 32.6 73.7 32.3 73.6 32C73.5 31.7 73.3 31.5 73.1 31.3C72.9 31.1 72.7 31 72.4 30.8C72.1 30.7 71.8 30.6 71.5 30.6ZM79.8 29.2C80.3 29.2 80.7 29.3 81.1 29.5C81.5 29.7 81.8 29.9 82 30.2V25.9H83.5V36.3H82V35.5C81.8 35.8 81.5 36.1 81.1 36.2C80.7 36.4 80.3 36.5 79.8 36.5C79.3 36.5 78.9 36.4 78.4 36.2C78 36 77.6 35.8 77.3 35.4C77 35.1 76.7 34.7 76.6 34.2C76.4 33.8 76.3 33.3 76.3 32.7C76.3 32.2 76.4 31.7 76.6 31.2C76.8 30.8 77 30.4 77.3 30C77.6 29.7 78 29.4 78.4 29.2C78.8 29.3 79.3 29.2 79.8 29.2ZM79.9 30.6C79.6 30.6 79.3 30.7 79 30.8C78.7 30.9 78.5 31.1 78.3 31.3C78.1 31.5 78 31.7 77.9 32C77.8 32.3 77.8 32.6 77.8 32.9C77.8 33.2 77.8 33.5 77.9 33.8C78 34.1 78.1 34.3 78.3 34.5C78.5 34.7 78.7 34.9 79 35C79.3 35.1 79.5 35.2 79.9 35.2C80.2 35.2 80.5 35.1 80.8 35C81.1 34.9 81.3 34.7 81.5 34.5C81.7 34.3 81.8 34.1 81.9 33.8C82 33.5 82.1 33.2 82.1 32.9C82.1 32.6 82 32.3 81.9 32C81.8 31.7 81.7 31.5 81.5 31.3C81.3 31.1 81.1 30.9 80.8 30.8C80.5 30.7 80.3 30.6 79.9 30.6ZM88.5 29.2C89 29.2 89.4 29.3 89.8 29.5C90.2 29.7 90.5 29.9 90.8 30.2C91.1 30.5 91.3 30.9 91.5 31.3C91.7 31.7 91.7 32.2 91.7 32.8C91.7 32.9 91.7 33 91.7 33.1C91.7 33.2 91.7 33.3 91.7 33.4H86.6C86.6 33.7 86.7 34 86.9 34.2C87 34.4 87.2 34.6 87.4 34.7C87.6 34.8 87.8 34.9 88 35C88.2 35.1 88.5 35.1 88.7 35.1C89 35.1 89.4 35 89.7 34.9C90 34.8 90.4 34.6 90.7 34.4L91.4 35.5C91 35.9 90.5 36.1 90.1 36.3C89.6 36.4 89.1 36.5 88.6 36.5C88.1 36.5 87.6 36.4 87.2 36.2C86.8 36 86.4 35.8 86.1 35.5C85.8 35.2 85.5 34.8 85.4 34.4C85.2 34 85.1 33.5 85.1 32.9C85.1 32.4 85.2 31.9 85.4 31.4C85.6 31 85.8 30.6 86.1 30.2C86.4 29.9 86.8 29.6 87.2 29.5C87.5 29.3 88 29.2 88.5 29.2ZM92.4 36.3V36H92.5V35.9H92.1V36H92.2L92.4 36.3ZM93.1 36.3V35.9H93L92.9 36.2L92.8 35.9H92.7V36.3H92.8V36L92.9 36.3H93L93.1 36V36.3ZM88.4 30.6C88.1 30.6 87.9 30.6 87.7 30.7C87.5 30.8 87.3 30.9 87.2 31.1C87 31.3 86.9 31.4 86.8 31.6C86.7 31.8 86.6 32 86.6 32.3H90.2C90.1 31.8 89.9 31.3 89.6 31C89.3 30.7 88.9 30.6 88.4 30.6Z" fill="#F59E1F"/>
<path d="M23.4 22.1H21.7V13.5L18.7 21H16.9L13.8 13.5V22H12.1V11.6H14.7L17.7 19.1L20.7 11.6H23.3V22.1H23.4ZM32.3 22.1H30.7V21.2C30.5 21.5 30.1 21.8 29.8 22C29.4 22.2 29 22.3 28.5 22.3C28 22.3 27.5 22.2 27.1 22C26.7 21.8 26.3 21.6 26 21.2C25.7 20.9 25.4 20.5 25.2 20C25 19.5 24.9 19 24.9 18.5C24.9 18 25 17.4 25.2 17C25.4 16.5 25.6 16.1 26 15.8C26.3 15.5 26.7 15.2 27.1 15C27.5 14.8 28 14.7 28.5 14.7C29 14.7 29.5 14.8 29.8 15C30.2 15.2 30.5 15.4 30.7 15.8V14.9H32.3V22.1ZM28.7 16.2C28.4 16.2 28.1 16.3 27.8 16.4C27.5 16.5 27.3 16.7 27.1 16.9C26.9 17.1 26.8 17.3 26.7 17.6C26.6 17.9 26.6 18.2 26.6 18.5C26.6 18.8 26.6 19.1 26.7 19.4C26.8 19.7 26.9 19.9 27.1 20.1C27.3 20.3 27.5 20.5 27.8 20.6C28.1 20.7 28.4 20.8 28.7 20.8C29 20.8 29.3 20.7 29.6 20.6C29.9 20.5 30.1 20.3 30.3 20.1C30.5 19.9 30.6 19.7 30.7 19.4C30.8 19.1 30.9 18.8 30.9 18.5C30.9 18.2 30.8 17.9 30.7 17.6C30.6 17.3 30.4 17.1 30.3 16.9C30.1 16.7 29.9 16.5 29.6 16.4C29.3 16.2 29 16.2 28.7 16.2ZM39.5 16.7C39.4 16.6 39.3 16.6 39.1 16.5C38.9 16.4 38.8 16.4 38.6 16.3C38.4 16.2 38.2 16.2 38 16.2C37.8 16.2 37.6 16.1 37.3 16.1C36.9 16.1 36.5 16.2 36.3 16.3C36.1 16.5 35.9 16.7 35.9 16.9C35.9 17 35.9 17.1 36 17.2C36.1 17.3 36.1 17.4 36.3 17.4C36.4 17.5 36.5 17.5 36.7 17.5C36.8 17.5 37 17.6 37.2 17.6L37.9 17.7C38.7 17.8 39.3 18 39.7 18.4C40.1 18.7 40.4 19.2 40.4 19.8C40.4 20.1 40.3 20.5 40.2 20.7C40.1 21 39.8 21.2 39.6 21.4C39.3 21.6 39 21.8 38.6 21.9C38.2 22 37.7 22.1 37.2 22.1C37 22.1 36.8 22.1 36.6 22.1C36.4 22.1 36.1 22 35.8 22C35.5 21.9 35.2 21.8 35 21.7C34.7 21.6 34.4 21.4 34.2 21.2L34.9 20C35 20.1 35.2 20.2 35.3 20.3C35.5 20.4 35.6 20.5 35.8 20.5C36 20.6 36.2 20.6 36.4 20.7C36.6 20.7 36.9 20.8 37.2 20.8C37.7 20.8 38.1 20.7 38.4 20.6C38.7 20.4 38.8 20.2 38.8 20C38.8 19.8 38.7 19.6 38.5 19.5C38.3 19.4 38 19.3 37.6 19.2L36.9 19.1C36.1 19 35.5 18.8 35.1 18.4C34.7 18 34.5 17.6 34.5 17C34.5 16.6 34.6 16.3 34.7 16C34.8 15.7 35 15.5 35.3 15.3C35.6 15.1 35.9 15 36.2 14.8C36.6 14.7 37 14.6 37.4 14.6C38 14.6 38.5 14.7 39 14.8C39.5 14.9 39.9 15.1 40.3 15.4L39.5 16.7ZM46.9 16.3H44.2V19.4C44.2 19.6 44.2 19.8 44.3 20C44.4 20.2 44.4 20.3 44.5 20.4C44.6 20.5 44.7 20.6 44.9 20.6C45 20.6 45.2 20.7 45.3 20.7C45.5 20.7 45.8 20.7 46 20.6C46.3 20.5 46.5 20.4 46.7 20.3L47.3 21.5C47 21.7 46.7 21.9 46.3 22C45.9 22.1 45.5 22.2 45.1 22.2C44.3 22.2 43.7 22 43.2 21.5C42.7 21 42.5 20.3 42.5 19.4V16.2H41.1V14.8H42.5V12.6H44.1V14.8H46.8V16.3H46.9ZM51.7 14.7C52.2 14.7 52.7 14.8 53.1 15C53.5 15.2 53.9 15.4 54.2 15.8C54.5 16.1 54.7 16.5 54.9 17C55.1 17.5 55.2 18 55.2 18.5C55.2 18.6 55.2 18.7 55.2 18.8C55.2 18.9 55.2 19 55.2 19.1H49.9C49.9 19.4 50 19.7 50.2 19.9C50.3 20.1 50.5 20.3 50.7 20.5C50.9 20.6 51.1 20.8 51.3 20.8C51.5 20.9 51.8 20.9 52 20.9C52.4 20.9 52.7 20.8 53.1 20.7C53.5 20.6 53.8 20.4 54.1 20.1L54.9 21.2C54.5 21.6 54 21.8 53.5 22C53 22.1 52.5 22.2 51.9 22.2C51.4 22.2 50.9 22.1 50.4 21.9C50 21.7 49.6 21.5 49.2 21.1C48.9 20.8 48.6 20.4 48.4 19.9C48.2 19.4 48.1 18.9 48.1 18.4C48.1 17.8 48.2 17.3 48.4 16.9C48.6 16.4 48.8 16 49.1 15.7C49.4 15.4 49.8 15.1 50.2 14.9C50.7 14.8 51.2 14.7 51.7 14.7ZM51.7 16.1C51.4 16.1 51.2 16.1 51 16.2C50.8 16.3 50.6 16.4 50.4 16.6C50.2 16.8 50.1 16.9 50 17.2C49.9 17.4 49.8 17.7 49.8 17.9H53.5C53.4 17.3 53.2 16.9 52.9 16.6C52.6 16.2 52.2 16.1 51.7 16.1ZM60.5 14.7C60.7 14.7 61 14.7 61.1 14.7C61.3 14.7 61.5 14.8 61.7 14.9L61.3 16.4C61.1 16.3 60.9 16.3 60.7 16.2C60.5 16.2 60.3 16.1 60.1 16.1C59.9 16.1 59.6 16.1 59.4 16.2C59.2 16.3 59 16.4 58.9 16.6C58.8 16.8 58.6 17 58.5 17.2C58.4 17.4 58.4 17.7 58.4 18V21.9H56.8V14.7H58.3V15.5C58.5 15.2 58.8 14.9 59.2 14.7C59.7 14.8 60.1 14.7 60.5 14.7ZM65.9 14.7C66.4 14.7 66.9 14.8 67.4 15C67.9 15.2 68.3 15.5 68.6 15.9L67.6 17C67.3 16.8 67.1 16.6 66.8 16.4C66.5 16.3 66.2 16.2 65.9 16.2C65.6 16.2 65.3 16.3 65.1 16.4C64.8 16.5 64.6 16.7 64.4 16.9C64.2 17.1 64.1 17.3 64 17.6C63.9 17.9 63.8 18.2 63.8 18.5C63.8 18.8 63.9 19.1 64 19.4C64.1 19.7 64.3 19.9 64.4 20.1C64.6 20.3 64.8 20.5 65.1 20.6C65.4 20.7 65.6 20.8 65.9 20.8C66.2 20.8 66.6 20.7 66.9 20.6C67.2 20.5 67.5 20.3 67.7 20.1L68.7 21.2C68.4 21.6 68 21.9 67.5 22.1C67 22.3 66.5 22.4 66 22.4C65.4 22.4 64.9 22.3 64.5 22.1C64 21.9 63.6 21.6 63.3 21.3C63 21 62.7 20.6 62.5 20.1C62.3 19.6 62.2 19.1 62.2 18.6C62.2 18.1 62.3 17.6 62.5 17.1C62.7 16.6 62.9 16.2 63.3 15.9C63.6 15.6 64 15.3 64.5 15.1C64.8 14.8 65.3 14.7 65.9 14.7ZM76.9 22.1H75.3V21.2C75.1 21.5 74.7 21.8 74.4 22C74 22.2 73.6 22.3 73.1 22.3C72.6 22.3 72.1 22.2 71.7 22C71.3 21.8 70.9 21.6 70.6 21.2C70.3 20.9 70 20.5 69.8 20C69.6 19.5 69.5 19 69.5 18.5C69.5 18 69.6 17.4 69.8 17C70 16.5 70.2 16.1 70.6 15.8C70.9 15.5 71.3 15.2 71.7 15C72.1 14.8 72.6 14.7 73.1 14.7C73.6 14.7 74.1 14.8 74.4 15C74.8 15.2 75.1 15.4 75.3 15.8V14.9H76.9V22.1ZM73.3 16.2C73 16.2 72.7 16.3 72.4 16.4C72.1 16.5 71.9 16.7 71.7 16.9C71.5 17.1 71.4 17.3 71.3 17.6C71.2 17.9 71.2 18.2 71.2 18.5C71.2 18.8 71.3 19.1 71.3 19.4C71.4 19.7 71.5 19.9 71.7 20.1C71.9 20.3 72.1 20.5 72.4 20.6C72.7 20.7 73 20.8 73.3 20.8C73.6 20.8 73.9 20.7 74.2 20.6C74.5 20.5 74.7 20.3 74.9 20.1C75.1 19.9 75.2 19.7 75.3 19.4C75.4 19.1 75.5 18.8 75.5 18.5C75.5 18.2 75.4 17.9 75.3 17.6C75.2 17.3 75 17.1 74.9 16.9C74.7 16.7 74.5 16.5 74.2 16.4C73.9 16.2 73.6 16.2 73.3 16.2ZM82.8 14.7C83 14.7 83.3 14.7 83.4 14.7C83.6 14.7 83.8 14.8 84 14.9L83.6 16.4C83.4 16.3 83.2 16.3 83 16.2C82.8 16.2 82.6 16.1 82.4 16.1C82.2 16.1 81.9 16.1 81.7 16.2C81.5 16.3 81.3 16.4 81.2 16.6C81.1 16.8 80.9 17 80.8 17.2C80.7 17.4 80.7 17.7 80.7 18V21.9H79.1V14.7H80.6V15.5C80.8 15.2 81.1 14.9 81.5 14.7C82 14.8 82.4 14.7 82.8 14.7ZM88 14.7C88.5 14.7 89 14.8 89.3 15C89.7 15.2 90 15.4 90.2 15.8V11.3H91.8V22.1H90.2V21.2C90 21.5 89.6 21.8 89.3 22C88.9 22.2 88.5 22.3 88 22.3C87.5 22.3 87 22.2 86.6 22C86.2 21.8 85.8 21.6 85.5 21.2C85.2 20.9 84.9 20.5 84.7 20C84.5 19.5 84.4 19 84.4 18.5C84.4 18 84.5 17.4 84.7 17C84.9 16.5 85.1 16.1 85.5 15.8C85.8 15.5 86.2 15.2 86.6 15C87 14.8 87.5 14.7 88 14.7ZM93.6 21.4C93.7 21.4 93.7 21.4 93.8 21.4C93.9 21.4 93.9 21.5 93.9 21.5L94 21.6C94 21.7 94 21.7 94 21.8C94 21.9 94 21.9 94 22C94 22.1 93.9 22.1 93.9 22.1L93.8 22.2C93.7 22.2 93.7 22.2 93.6 22.2C93.5 22.2 93.5 22.2 93.4 22.2C93.3 22.2 93.3 22.1 93.3 22.1L93.2 22C93.2 21.9 93.2 21.9 93.2 21.8C93.2 21.7 93.2 21.7 93.2 21.6C93.2 21.5 93.3 21.5 93.3 21.5L93.4 21.4C93.5 21.4 93.5 21.4 93.6 21.4ZM93.6 22.2H93.7C93.7 22.2 93.8 22.2 93.8 22.1L93.9 22V21.9V21.8C93.9 21.8 93.9 21.7 93.8 21.7L93.7 21.6H93.6H93.5C93.5 21.6 93.4 21.6 93.4 21.7L93.3 21.8V21.9V22C93.3 22 93.3 22.1 93.4 22.1L93.5 22.2H93.6ZM93.6 21.6C93.7 21.6 93.7 21.6 93.7 21.6V21.7V21.8H93.6L93.7 22H93.6L93.5 21.8V22H93.4V21.6H93.6ZM93.5 21.7V21.8H93.6C93.6 21.8 93.6 21.8 93.7 21.8C93.7 21.8 93.7 21.8 93.6 21.8H93.5V21.7ZM88.2 16.2C87.9 16.2 87.6 16.3 87.3 16.4C87 16.5 86.8 16.7 86.6 16.9C86.4 17.1 86.3 17.3 86.2 17.6C86 17.9 86 18.2 86 18.5C86 18.8 86.1 19.1 86.1 19.4C86.2 19.7 86.3 19.9 86.5 20.1C86.7 20.3 86.9 20.5 87.2 20.6C87.5 20.7 87.8 20.8 88.1 20.8C88.4 20.8 88.7 20.7 89 20.6C89.3 20.5 89.5 20.3 89.7 20.1C89.9 19.9 90 19.7 90.1 19.4C90.2 19.1 90.3 18.8 90.3 18.5C90.3 18.2 90.2 17.9 90.1 17.6C90 17.3 89.8 17.1 89.7 16.9C89.5 16.7 89.3 16.5 89 16.4C88.8 16.2 88.5 16.2 88.2 16.2Z" fill="#E41522"/>
</svg>
