<svg width="87" height="40" viewBox="0 0 87 40" fill="none" xmlns="http://www.w3.org/2000/svg">
<path d="M15.7967 23.5921C15.4644 23.3429 15.049 23.1767 14.6337 23.0937C14.2183 22.9275 13.803 22.9275 13.3876 22.9275C13.1384 22.9275 12.8892 22.9275 12.64 23.0106C12.3908 23.0937 12.2246 23.1767 12.0585 23.2598C11.8923 23.3429 11.7262 23.509 11.6431 23.6751C11.56 23.8413 11.477 24.0074 11.477 24.1736C11.477 24.3397 11.477 24.5059 11.56 24.5889C11.6431 24.672 11.7262 24.8381 11.8923 24.9212C12.0585 25.0043 12.2246 25.0874 12.4738 25.1704C12.723 25.2535 12.9722 25.2535 13.2215 25.3366L13.803 25.4196C14.1352 25.5027 14.4675 25.5027 14.7998 25.6688C15.1321 25.7519 15.3813 25.9181 15.6305 26.0842C15.8797 26.2503 16.1289 26.4996 16.212 26.7488C16.3782 26.998 16.4612 27.3303 16.4612 27.7456C16.4612 28.161 16.3782 28.5763 16.212 28.9086C16.0459 29.2409 15.7967 29.4901 15.4644 29.7393C15.1321 29.9885 14.7998 30.1547 14.3845 30.2377C13.9691 30.3208 13.5537 30.4039 13.0553 30.4039C12.8061 30.4039 12.4738 30.4039 12.1415 30.3208C11.8093 30.2377 11.56 30.2377 11.2278 30.0716C10.8955 29.9885 10.6463 29.8224 10.3971 29.7393C10.1478 29.5732 9.89863 29.407 9.64941 29.2409L10.3971 28.161C10.5632 28.3271 10.7293 28.4102 10.8955 28.4933C11.0616 28.5763 11.3108 28.7425 11.56 28.8255C11.8093 28.9086 12.0585 28.9917 12.3077 28.9917C12.5569 29.0748 12.8061 29.0748 13.0553 29.0748C13.3045 29.0748 13.5537 29.0748 13.803 28.9917C14.0522 28.9086 14.2183 28.8255 14.3845 28.7425C14.5506 28.6594 14.7167 28.4933 14.7998 28.3271C14.8829 28.161 14.9659 27.9948 14.9659 27.8287C14.9659 27.4964 14.7998 27.2472 14.4675 27.081C14.1352 26.9149 13.6368 26.7488 13.0553 26.6657L12.64 26.5826C12.3077 26.4996 12.0585 26.4996 11.7262 26.3334C11.3939 26.2503 11.1447 26.0842 10.8955 25.9181C10.6463 25.7519 10.4801 25.5027 10.314 25.2535C10.1478 25.0043 10.0648 24.672 10.0648 24.2566C10.0648 23.8413 10.1478 23.4259 10.314 23.1767C10.4801 22.8444 10.7293 22.5952 11.0616 22.346C11.3939 22.0968 11.7262 21.9307 12.1415 21.8476C12.5569 21.7645 12.9722 21.6814 13.3876 21.6814C13.9691 21.6814 14.5506 21.7645 15.049 21.9307C15.5474 22.0968 15.9628 22.346 16.4612 22.5952L15.7967 23.5921ZM20.4486 24.2566C20.864 24.2566 21.1963 24.3397 21.5285 24.5059C21.8608 24.672 22.11 24.8381 22.3593 25.0874C22.6085 25.3366 22.7746 25.6688 22.9407 26.0011C23.1069 26.3334 23.1069 26.7488 23.1069 27.2472C23.1069 27.3303 23.1069 27.4133 23.1069 27.4964C23.1069 27.5795 23.1069 27.6625 23.1069 27.7456H18.8703C18.8703 27.9948 18.9533 28.244 19.1195 28.4102C19.2026 28.5763 19.3687 28.7425 19.5348 28.8255C19.701 28.9086 19.8671 28.9917 20.0333 29.0748C20.1994 29.1578 20.4486 29.1578 20.6148 29.1578C20.864 29.1578 21.1963 29.0748 21.4455 28.9917C21.6947 28.9086 22.027 28.7425 22.2762 28.5763L22.9407 29.4901C22.6085 29.8224 22.1931 29.9885 21.8608 30.1547C21.4455 30.2377 21.0301 30.3208 20.6148 30.3208C20.1994 30.3208 19.7841 30.2377 19.4518 30.0716C19.1195 29.9055 18.7872 29.7393 18.538 29.4901C18.2888 29.2409 18.0396 28.9086 17.9565 28.5763C17.7904 28.244 17.7073 27.8287 17.7073 27.3303C17.7073 26.9149 17.7904 26.4996 17.9565 26.0842C18.1226 25.7519 18.2888 25.4196 18.538 25.0874C18.7872 24.8381 19.1195 24.5889 19.4518 24.5059C19.6179 24.3397 19.9502 24.2566 20.4486 24.2566ZM20.3656 25.4196C20.1163 25.4196 19.9502 25.4196 19.7841 25.5027C19.6179 25.5858 19.4518 25.6688 19.3687 25.835C19.2026 26.0011 19.1195 26.0842 19.0364 26.2503C18.9533 26.4165 18.8703 26.5826 18.8703 26.8318H21.8608C21.7778 26.4165 21.6116 26.0011 21.3624 25.7519C21.1132 25.5027 20.7809 25.4196 20.3656 25.4196ZM27.0112 24.2566C27.4266 24.2566 27.8419 24.3397 28.1742 24.5059C28.5065 24.672 28.8388 24.9212 29.088 25.1704L28.2573 26.0011C28.0911 25.835 27.8419 25.6688 27.5927 25.5858C27.3435 25.5027 27.0943 25.4196 26.8451 25.4196C26.5959 25.4196 26.3467 25.5027 26.1805 25.5858C25.9313 25.6688 25.7652 25.835 25.6821 26.0011C25.5159 26.1673 25.4329 26.3334 25.3498 26.5826C25.2667 26.8318 25.1837 27.0811 25.1837 27.3303C25.1837 27.5795 25.2667 27.8287 25.3498 28.0779C25.4329 28.3271 25.5159 28.4933 25.6821 28.6594C25.8482 28.8255 26.0144 28.9086 26.1805 29.0748C26.3467 29.1578 26.5959 29.2409 26.8451 29.2409C27.0943 29.2409 27.3435 29.1578 27.5927 29.0748C27.8419 28.9917 28.0081 28.8255 28.2573 28.6594L29.0049 29.4901C28.7557 29.8224 28.4234 29.9885 28.0911 30.1547C27.7589 30.3208 27.3435 30.4039 26.9281 30.4039C26.5128 30.4039 26.0974 30.3208 25.6821 30.1547C25.3498 29.9885 25.0175 29.8224 24.7683 29.4901C24.5191 29.2409 24.2699 28.9086 24.1868 28.4933C24.0207 28.161 23.9376 27.7456 23.9376 27.3303C23.9376 26.9149 24.0207 26.4996 24.1868 26.1673C24.353 25.835 24.5191 25.5027 24.7683 25.1704C25.0175 24.9212 25.3498 24.672 25.6821 24.5059C26.1805 24.3397 26.5959 24.2566 27.0112 24.2566ZM35.6506 27.7456C35.6506 28.161 35.5675 28.5763 35.4014 28.9086C35.2352 29.2409 35.0691 29.4901 34.8199 29.7393C34.5707 29.9885 34.3215 30.0716 33.9892 30.2377C33.6569 30.3208 33.3246 30.4039 32.9923 30.4039C32.66 30.4039 32.3278 30.3208 31.9955 30.2377C31.6632 30.1547 31.414 29.9885 31.1648 29.7393C30.9156 29.5732 30.7494 29.2409 30.5833 28.9086C30.4171 28.5763 30.3341 28.161 30.3341 27.7456V24.4228H31.5801V27.5795C31.5801 27.8287 31.5801 28.0779 31.6632 28.244C31.7463 28.4102 31.8293 28.5763 31.9955 28.7425C32.1616 28.8255 32.2447 28.9086 32.4108 28.9917C32.577 29.0748 32.7431 29.0748 32.9923 29.0748C33.1585 29.0748 33.4077 29.0748 33.5738 28.9917C33.74 28.9086 33.9061 28.8255 33.9892 28.7425C34.1553 28.6594 34.2384 28.4933 34.3215 28.244C34.4045 28.0779 34.4045 27.8287 34.4045 27.5795V24.4228H35.6506V27.7456ZM40.2195 24.2566C40.3856 24.2566 40.5518 24.2566 40.7179 24.2566C40.8841 24.2566 41.0502 24.3397 41.1333 24.3397L40.801 25.5858C40.6348 25.5027 40.5518 25.5027 40.3026 25.4196C40.1364 25.4196 39.9703 25.3366 39.8041 25.3366C39.638 25.3366 39.3888 25.3366 39.2226 25.4196C39.0565 25.5027 38.8903 25.5858 38.8073 25.7519C38.7242 25.9181 38.5581 26.0842 38.5581 26.2503C38.475 26.4165 38.475 26.6657 38.475 26.9149V30.0716H37.2289V24.3397H38.475V25.0043C38.6411 24.7551 38.8903 24.5059 39.2226 24.4228C39.4718 24.3397 39.8041 24.2566 40.2195 24.2566ZM44.373 24.2566C44.7884 24.2566 45.1207 24.3397 45.4529 24.5059C45.7852 24.672 46.0344 24.8381 46.2837 25.0874C46.5329 25.3366 46.699 25.6688 46.8652 26.0011C47.0313 26.3334 47.0313 26.7488 47.0313 27.2472C47.0313 27.3303 47.0313 27.4133 47.0313 27.4964C47.0313 27.5795 47.0313 27.6625 47.0313 27.7456H42.8778C42.8778 27.9948 42.9608 28.244 43.127 28.4102C43.21 28.5763 43.3762 28.7425 43.5423 28.8255C43.7085 28.9086 43.8746 28.9917 44.0407 29.0748C44.2069 29.1578 44.4561 29.1578 44.6222 29.1578C44.8714 29.1578 45.2037 29.0748 45.4529 28.9917C45.7022 28.9086 46.0344 28.7425 46.2837 28.5763L46.8652 29.4901C46.5329 29.8224 46.1175 29.9885 45.7852 30.1547C45.3699 30.2377 44.9545 30.3208 44.5392 30.3208C44.1238 30.3208 43.7085 30.2377 43.3762 30.0716C43.0439 29.9055 42.7116 29.7393 42.4624 29.4901C42.2132 29.2409 41.964 28.9086 41.8809 28.5763C41.7148 28.244 41.6317 27.8287 41.6317 27.3303C41.6317 26.9149 41.7148 26.4996 41.8809 26.0842C42.047 25.7519 42.2132 25.4196 42.4624 25.0874C42.7116 24.8381 43.0439 24.5889 43.3762 24.5059C43.5423 24.3397 43.9577 24.2566 44.373 24.2566ZM44.373 25.4196C44.1238 25.4196 43.9577 25.4196 43.7915 25.5027C43.6254 25.5858 43.4592 25.6688 43.3762 25.835C43.21 26.0011 43.127 26.0842 43.0439 26.2503C42.9608 26.4165 42.8778 26.5826 42.8778 26.8318H45.8683C45.7852 26.4165 45.6191 26.0011 45.3699 25.7519C45.1207 25.5027 44.7884 25.4196 44.373 25.4196ZM52.514 21.5984C52.8462 21.5984 53.2616 21.5984 53.5939 21.6814C53.9262 21.7645 54.2585 21.8476 54.5907 22.0137C54.923 22.1799 55.1722 22.346 55.4214 22.5952C55.6707 22.8444 55.8368 23.0937 56.0029 23.3429L54.84 24.0905C54.5907 23.6751 54.2585 23.4259 53.8431 23.1767C53.4277 22.9275 53.0124 22.8444 52.514 22.8444C52.0986 22.8444 51.6833 22.9275 51.351 23.0937C51.0187 23.2598 50.6864 23.4259 50.4372 23.7582C50.188 24.0074 49.9388 24.3397 49.8557 24.7551C49.6896 25.1704 49.6065 25.5027 49.6065 26.0011C49.6065 26.4165 49.6896 26.8318 49.8557 27.2472C50.0218 27.6625 50.188 27.9118 50.4372 28.244C50.6864 28.4933 51.0187 28.7425 51.351 28.8255C51.6833 28.9917 52.0986 29.0748 52.514 29.0748C53.0124 29.0748 53.4277 28.9917 53.8431 28.7425C54.2585 28.4933 54.5907 28.244 54.84 27.8287L55.9199 28.6594C55.7537 28.9086 55.5045 29.1578 55.2553 29.407C55.0061 29.6562 54.7569 29.8224 54.4246 29.9055C54.0923 30.0716 53.8431 30.1547 53.5108 30.2377C53.1785 30.3208 52.8462 30.3208 52.4309 30.3208C51.7663 30.3208 51.1848 30.2377 50.6864 29.9885C50.188 29.7393 49.6896 29.4901 49.2742 29.0748C48.8588 28.6594 48.6096 28.244 48.3604 27.6625C48.1112 27.1641 48.0281 26.5826 48.0281 25.9181C48.0281 25.2535 48.1112 24.672 48.3604 24.1736C48.6096 23.6751 48.8588 23.1767 49.2742 22.7614C49.6896 22.346 50.1049 22.0968 50.6864 21.8476C51.2679 21.7645 51.8494 21.5984 52.514 21.5984ZM59.9073 24.2566C60.3226 24.2566 60.738 24.3397 61.1533 24.5059C61.5687 24.672 61.8179 24.8381 62.1502 25.1704C62.3994 25.4196 62.6486 25.7519 62.8148 26.1673C62.9809 26.4996 63.064 26.9149 63.064 27.3303C63.064 27.7456 62.9809 28.161 62.8148 28.4933C62.6486 28.8255 62.4825 29.1578 62.1502 29.4901C61.901 29.7393 61.5687 29.9885 61.1533 30.1547C60.738 30.3208 60.4057 30.4039 59.9073 30.4039C59.4919 30.4039 59.0766 30.3208 58.6612 30.1547C58.2459 29.9885 57.9966 29.8224 57.6644 29.4901C57.4151 29.2409 57.1659 28.9086 56.9998 28.4933C56.8336 28.161 56.7506 27.7456 56.7506 27.3303C56.7506 26.9149 56.8336 26.4996 56.9998 26.1673C57.1659 25.835 57.3321 25.5027 57.6644 25.1704C57.9136 24.9212 58.2459 24.672 58.6612 24.5059C59.0766 24.3397 59.4919 24.2566 59.9073 24.2566ZM59.9073 25.4196C59.6581 25.4196 59.4088 25.5027 59.1596 25.5858C58.9104 25.6688 58.7443 25.835 58.5781 26.0011C58.412 26.1673 58.3289 26.3334 58.1628 26.5826C58.0797 26.8318 57.9966 27.0811 57.9966 27.3303C57.9966 27.5795 58.0797 27.8287 58.1628 28.0779C58.2459 28.3271 58.412 28.4933 58.5781 28.6594C58.7443 28.8255 58.9104 28.9086 59.1596 29.0748C59.4088 29.1578 59.6581 29.2409 59.9073 29.2409C60.1565 29.2409 60.4057 29.1578 60.6549 29.0748C60.9041 28.9917 61.0703 28.8255 61.2364 28.6594C61.4025 28.4933 61.4856 28.3271 61.6518 28.0779C61.7348 27.8287 61.8179 27.5795 61.8179 27.3303C61.8179 27.0811 61.7348 26.8318 61.6518 26.5826C61.5687 26.3334 61.4025 26.1673 61.2364 26.0011C61.0703 25.835 60.9041 25.7519 60.6549 25.5858C60.4057 25.5027 60.1565 25.4196 59.9073 25.4196ZM66.8022 24.2566C67.2175 24.2566 67.5498 24.3397 67.8821 24.5059C68.2144 24.672 68.4636 24.8381 68.6297 25.0874V21.5153H69.8758V30.1547H68.6297V29.4901C68.4636 29.7393 68.2144 29.9885 67.8821 30.0716C67.5498 30.2377 67.2175 30.3208 66.8022 30.3208C66.3868 30.3208 66.0545 30.2377 65.6392 30.0716C65.3069 29.9055 64.9746 29.7393 64.7254 29.407C64.4762 29.1578 64.227 28.8255 64.1439 28.4102C63.9777 28.0779 63.8947 27.6625 63.8947 27.1641C63.8947 26.7488 63.9777 26.3334 64.1439 25.9181C64.31 25.5858 64.4762 25.2535 64.7254 24.9212C64.9746 24.672 65.3069 24.4228 65.6392 24.2566C65.9714 24.3397 66.3868 24.2566 66.8022 24.2566ZM66.8852 25.4196C66.636 25.4196 66.3868 25.5027 66.1376 25.5858C65.8884 25.6688 65.7222 25.835 65.5561 26.0011C65.3899 26.1673 65.3069 26.3334 65.2238 26.5826C65.1407 26.8318 65.1407 27.0811 65.1407 27.3303C65.1407 27.5795 65.1407 27.8287 65.2238 28.0779C65.3069 28.3271 65.3899 28.4933 65.5561 28.6594C65.7222 28.8255 65.8884 28.9917 66.1376 29.0748C66.3868 29.1578 66.5529 29.2409 66.8852 29.2409C67.1344 29.2409 67.3836 29.1578 67.6329 29.0748C67.8821 28.9917 68.0482 28.8255 68.2144 28.6594C68.3805 28.4933 68.4636 28.3271 68.5466 28.0779C68.6297 27.8287 68.7128 27.5795 68.7128 27.3303C68.7128 27.0811 68.6297 26.8318 68.5466 26.5826C68.4636 26.3334 68.3805 26.1673 68.2144 26.0011C68.0482 25.835 67.8821 25.6688 67.6329 25.5858C67.3836 25.5027 67.2175 25.4196 66.8852 25.4196ZM74.0293 24.2566C74.4447 24.2566 74.777 24.3397 75.1092 24.5059C75.4415 24.672 75.6907 24.8381 75.9399 25.0874C76.1892 25.3366 76.3553 25.6688 76.5214 26.0011C76.6876 26.3334 76.6876 26.7488 76.6876 27.2472C76.6876 27.3303 76.6876 27.4133 76.6876 27.4964C76.6876 27.5795 76.6876 27.6625 76.6876 27.7456H72.451C72.451 27.9948 72.534 28.244 72.7002 28.4102C72.7833 28.5763 72.9494 28.7425 73.1155 28.8255C73.2817 28.9086 73.4478 28.9917 73.614 29.0748C73.7801 29.1578 74.0293 29.1578 74.1954 29.1578C74.4447 29.1578 74.7769 29.0748 75.0262 28.9917C75.2754 28.9086 75.6077 28.7425 75.8569 28.5763L76.4384 29.4901C76.1061 29.8224 75.6907 29.9885 75.3584 30.1547C74.9431 30.2377 74.5277 30.3208 74.1124 30.3208C73.697 30.3208 73.2817 30.2377 72.9494 30.0716C72.6171 29.9055 72.2848 29.7393 72.0356 29.4901C71.7864 29.2409 71.5372 28.9086 71.4541 28.5763C71.288 28.244 71.2049 27.8287 71.2049 27.3303C71.2049 26.9149 71.288 26.4996 71.4541 26.0842C71.6203 25.7519 71.7864 25.4196 72.0356 25.0874C72.2848 24.8381 72.6171 24.5889 72.9494 24.5059C73.1986 24.3397 73.614 24.2566 74.0293 24.2566ZM77.2691 30.1547V29.9055H77.3521V29.8224H77.0199V29.9055H77.1029L77.2691 30.1547ZM77.8506 30.1547V29.8224H77.7675L77.6844 30.0716L77.6014 29.8224H77.5183V30.1547H77.6014V29.9055L77.6844 30.1547H77.7675L77.8506 29.9055V30.1547ZM73.9462 25.4196C73.697 25.4196 73.5309 25.4196 73.3647 25.5027C73.1986 25.5858 73.0325 25.6688 72.9494 25.835C72.7832 26.0011 72.7002 26.0842 72.6171 26.2503C72.534 26.4165 72.451 26.5826 72.451 26.8318H75.4415C75.3584 26.4165 75.1923 26.0011 74.9431 25.7519C74.6939 25.5027 74.3616 25.4196 73.9462 25.4196Z" fill="#F59E1F"/>
<path d="M19.9502 18.3586H18.538V11.2145L16.0459 17.4448H14.5506L11.9754 11.2145V18.2755H10.5632V9.63618H12.7231L15.2152 15.8665L17.7073 9.63618H19.8672V18.3586H19.9502ZM27.3435 18.3586H26.0144V17.611C25.8483 17.8602 25.516 18.1094 25.2668 18.2755C24.9345 18.4417 24.6022 18.5248 24.1868 18.5248C23.7715 18.5248 23.3561 18.4417 23.0239 18.2755C22.6916 18.1094 22.3593 17.9433 22.1101 17.611C21.8609 17.3618 21.6117 17.0295 21.4455 16.6141C21.2794 16.1988 21.1963 15.7834 21.1963 15.3681C21.1963 14.9527 21.2794 14.4543 21.4455 14.122C21.6117 13.7066 21.7778 13.3744 22.1101 13.1252C22.3593 12.8759 22.6916 12.6267 23.0239 12.4606C23.3561 12.2944 23.7715 12.2114 24.1868 12.2114C24.6022 12.2114 25.0176 12.2944 25.2668 12.4606C25.5991 12.6267 25.8483 12.7929 26.0144 13.1252V12.3775H27.3435V18.3586ZM24.353 13.4574C24.1038 13.4574 23.8546 13.5405 23.6054 13.6236C23.3561 13.7066 23.19 13.8728 23.0239 14.0389C22.8577 14.2051 22.7746 14.3712 22.6916 14.6204C22.6085 14.8696 22.6085 15.1189 22.6085 15.3681C22.6085 15.6173 22.6085 15.8665 22.6916 16.1157C22.7746 16.3649 22.8577 16.5311 23.0239 16.6972C23.19 16.8633 23.3561 17.0295 23.6054 17.1126C23.8546 17.1956 24.1038 17.2787 24.353 17.2787C24.6022 17.2787 24.8514 17.1956 25.1006 17.1126C25.3498 17.0295 25.516 16.8633 25.6821 16.6972C25.8483 16.5311 25.9313 16.3649 26.0144 16.1157C26.0975 15.8665 26.1805 15.6173 26.1805 15.3681C26.1805 15.1189 26.0975 14.8696 26.0144 14.6204C25.9313 14.3712 25.7652 14.2051 25.6821 14.0389C25.516 13.8728 25.3498 13.7066 25.1006 13.6236C24.8514 13.4574 24.6022 13.4574 24.353 13.4574ZM33.3246 13.8728C33.2416 13.7897 33.1585 13.7897 32.9924 13.7066C32.8262 13.6236 32.7431 13.6236 32.577 13.5405C32.4109 13.4574 32.2447 13.4574 32.0786 13.4574C31.9124 13.4574 31.7463 13.3744 31.4971 13.3744C31.1648 13.3744 30.8325 13.4574 30.6664 13.5405C30.5002 13.7066 30.3341 13.8728 30.3341 14.0389C30.3341 14.122 30.3341 14.2051 30.4172 14.2881C30.5002 14.3712 30.5002 14.4543 30.6664 14.4543C30.7494 14.5374 30.8325 14.5374 30.9987 14.5374C31.0817 14.5374 31.2479 14.6204 31.414 14.6204L31.9955 14.7035C32.6601 14.7866 33.1585 14.9527 33.4908 15.285C33.8231 15.5342 34.0723 15.9496 34.0723 16.448C34.0723 16.6972 33.9892 17.0295 33.9061 17.1956C33.8231 17.4448 33.5739 17.611 33.4077 17.7771C33.1585 17.9433 32.9093 18.1094 32.577 18.1925C32.2447 18.2755 31.8294 18.3586 31.414 18.3586C31.2479 18.3586 31.0817 18.3586 30.9156 18.3586C30.7494 18.3586 30.5002 18.2755 30.251 18.2755C30.0018 18.1925 29.7526 18.1094 29.5865 18.0263C29.3372 17.9433 29.088 17.7771 28.9219 17.611L29.5034 16.6141C29.5865 16.6972 29.7526 16.7803 29.8357 16.8633C30.0018 16.9464 30.0849 17.0295 30.251 17.0295C30.4172 17.1126 30.5833 17.1126 30.7494 17.1956C30.9156 17.1956 31.1648 17.2787 31.414 17.2787C31.8294 17.2787 32.1617 17.1956 32.4109 17.1126C32.6601 16.9464 32.7431 16.7803 32.7431 16.6141C32.7431 16.448 32.6601 16.2818 32.4939 16.1988C32.3278 16.1157 32.0786 16.0326 31.7463 15.9496L31.1648 15.8665C30.5002 15.7834 30.0018 15.6173 29.6695 15.285C29.3372 14.9527 29.1711 14.6204 29.1711 14.122C29.1711 13.7897 29.2542 13.5405 29.3372 13.2913C29.4203 13.0421 29.5865 12.8759 29.8357 12.7098C30.0849 12.5437 30.3341 12.4606 30.5833 12.2944C30.9156 12.2114 31.2479 12.1283 31.5802 12.1283C32.0786 12.1283 32.4939 12.2114 32.9093 12.2944C33.3246 12.3775 33.6569 12.5437 33.9892 12.7929L33.3246 13.8728ZM39.4719 13.5405H37.229V16.1157C37.229 16.2818 37.229 16.448 37.312 16.6141C37.3951 16.7803 37.3951 16.8633 37.4782 16.9464C37.5613 17.0295 37.6443 17.1126 37.8105 17.1126C37.8935 17.1126 38.0597 17.1956 38.1427 17.1956C38.3089 17.1956 38.5581 17.1956 38.7242 17.1126C38.9735 17.0295 39.1396 16.9464 39.3057 16.8633L39.8042 17.8602C39.555 18.0263 39.3057 18.1925 38.9735 18.2755C38.6412 18.3586 38.3089 18.4417 37.9766 18.4417C37.312 18.4417 36.8136 18.2755 36.3983 17.8602C35.9829 17.4448 35.8168 16.8633 35.8168 16.1157V13.4574H34.6538V12.2944H35.8168V10.4669H37.1459V12.2944H39.3888V13.5405H39.4719ZM43.4593 12.2114C43.8746 12.2114 44.29 12.2944 44.6223 12.4606C44.9546 12.6267 45.2868 12.7929 45.5361 13.1252C45.7853 13.3744 45.9514 13.7066 46.1176 14.122C46.2837 14.5374 46.3668 14.9527 46.3668 15.3681C46.3668 15.4511 46.3668 15.5342 46.3668 15.6173C46.3668 15.7003 46.3668 15.7834 46.3668 15.8665H41.964C41.964 16.1157 42.0471 16.3649 42.2132 16.5311C42.2963 16.6972 42.4624 16.8633 42.6286 17.0295C42.7947 17.1126 42.9609 17.2787 43.127 17.2787C43.2931 17.3618 43.5424 17.3618 43.7085 17.3618C44.0408 17.3618 44.29 17.2787 44.6223 17.1956C44.9546 17.1126 45.2038 16.9464 45.453 16.6972L46.1176 17.611C45.7853 17.9433 45.3699 18.1094 44.9546 18.2755C44.5392 18.3586 44.1239 18.4417 43.6254 18.4417C43.2101 18.4417 42.7947 18.3586 42.3794 18.1925C42.0471 18.0263 41.7148 17.8602 41.3825 17.5279C41.1333 17.2787 40.8841 16.9464 40.7179 16.5311C40.5518 16.1157 40.4687 15.7003 40.4687 15.285C40.4687 14.7866 40.5518 14.3712 40.7179 14.0389C40.8841 13.6236 41.0502 13.2913 41.2994 13.0421C41.5487 12.7929 41.8809 12.5437 42.2132 12.3775C42.6286 12.2944 43.0439 12.2114 43.4593 12.2114ZM43.4593 13.3744C43.2101 13.3744 43.0439 13.3744 42.8778 13.4574C42.7116 13.5405 42.5455 13.6236 42.3794 13.7897C42.2132 13.9559 42.1302 14.0389 42.0471 14.2881C41.964 14.4543 41.8809 14.7035 41.8809 14.8696H44.9546C44.8715 14.3712 44.7053 14.0389 44.4561 13.7897C44.2069 13.4574 43.8746 13.3744 43.4593 13.3744ZM50.7695 12.2114C50.9357 12.2114 51.1849 12.2114 51.2679 12.2114C51.4341 12.2114 51.6002 12.2944 51.7664 12.3775L51.4341 13.6236C51.2679 13.5405 51.1018 13.5405 50.9357 13.4574C50.7695 13.4574 50.6034 13.3744 50.4372 13.3744C50.2711 13.3744 50.0219 13.3744 49.8557 13.4574C49.6896 13.5405 49.5235 13.6236 49.4404 13.7897C49.3573 13.9559 49.1912 14.122 49.1081 14.2881C49.025 14.4543 49.025 14.7035 49.025 14.9527V18.1925H47.6959V12.2114H48.942V12.8759C49.1081 12.6267 49.3573 12.3775 49.6896 12.2114C50.1049 12.2944 50.4372 12.2114 50.7695 12.2114ZM55.2553 12.2114C55.6707 12.2114 56.0861 12.2944 56.5014 12.4606C56.9168 12.6267 57.249 12.8759 57.4983 13.2082L56.6675 14.122C56.4183 13.9559 56.2522 13.7897 56.003 13.6236C55.7538 13.5405 55.5046 13.4574 55.2553 13.4574C55.0061 13.4574 54.7569 13.5405 54.5908 13.6236C54.3416 13.7066 54.1754 13.8728 54.0093 14.0389C53.8431 14.2051 53.7601 14.3712 53.677 14.6204C53.5939 14.8696 53.5109 15.1189 53.5109 15.3681C53.5109 15.6173 53.5939 15.8665 53.677 16.1157C53.7601 16.3649 53.9262 16.5311 54.0093 16.6972C54.1754 16.8633 54.3416 17.0295 54.5908 17.1126C54.84 17.1956 55.0061 17.2787 55.2553 17.2787C55.5046 17.2787 55.8368 17.1956 56.0861 17.1126C56.3353 17.0295 56.5845 16.8633 56.7506 16.6972L57.5813 17.611C57.3321 17.9433 56.9998 18.1925 56.5845 18.3586C56.1691 18.5248 55.7538 18.6078 55.3384 18.6078C54.84 18.6078 54.4246 18.5248 54.0924 18.3586C53.677 18.1925 53.3447 17.9433 53.0955 17.694C52.8463 17.4448 52.5971 17.1126 52.4309 16.6972C52.2648 16.2818 52.1817 15.8665 52.1817 15.4511C52.1817 15.0358 52.2648 14.6204 52.4309 14.2051C52.5971 13.7897 52.7632 13.4574 53.0955 13.2082C53.3447 12.959 53.677 12.7098 54.0924 12.5437C54.3416 12.2944 54.7569 12.2114 55.2553 12.2114ZM64.3931 18.3586H63.064V17.611C62.8979 17.8602 62.5656 18.1094 62.3164 18.2755C61.9841 18.4417 61.6518 18.5248 61.2364 18.5248C60.8211 18.5248 60.4057 18.4417 60.0735 18.2755C59.7412 18.1094 59.4089 17.9433 59.1597 17.611C58.9105 17.3618 58.6613 17.0295 58.4951 16.6141C58.329 16.1988 58.2459 15.7834 58.2459 15.3681C58.2459 14.9527 58.329 14.4543 58.4951 14.122C58.6613 13.7066 58.8274 13.3744 59.1597 13.1252C59.4089 12.8759 59.7412 12.6267 60.0735 12.4606C60.4057 12.2944 60.8211 12.2114 61.2364 12.2114C61.6518 12.2114 62.0672 12.2944 62.3164 12.4606C62.6487 12.6267 62.8979 12.7929 63.064 13.1252V12.3775H64.3931V18.3586ZM61.4026 13.4574C61.1534 13.4574 60.9042 13.5405 60.6549 13.6236C60.4057 13.7066 60.2396 13.8728 60.0735 14.0389C59.9073 14.2051 59.8242 14.3712 59.7412 14.6204C59.6581 14.8696 59.6581 15.1189 59.6581 15.3681C59.6581 15.6173 59.7412 15.8665 59.7412 16.1157C59.8242 16.3649 59.9073 16.5311 60.0735 16.6972C60.2396 16.8633 60.4057 17.0295 60.6549 17.1126C60.9042 17.1956 61.1534 17.2787 61.4026 17.2787C61.6518 17.2787 61.901 17.1956 62.1502 17.1126C62.3994 17.0295 62.5656 16.8633 62.7317 16.6972C62.8979 16.5311 62.9809 16.3649 63.064 16.1157C63.1471 15.8665 63.2301 15.6173 63.2301 15.3681C63.2301 15.1189 63.1471 14.8696 63.064 14.6204C62.9809 14.3712 62.8148 14.2051 62.7317 14.0389C62.5656 13.8728 62.3994 13.7066 62.1502 13.6236C61.901 13.4574 61.6518 13.4574 61.4026 13.4574ZM69.2943 12.2114C69.4605 12.2114 69.7097 12.2114 69.7927 12.2114C69.9589 12.2114 70.125 12.2944 70.2912 12.3775L69.9589 13.6236C69.7927 13.5405 69.6266 13.5405 69.4605 13.4574C69.2943 13.4574 69.1282 13.3744 68.962 13.3744C68.7959 13.3744 68.5467 13.3744 68.3805 13.4574C68.2144 13.5405 68.0483 13.6236 67.9652 13.7897C67.8821 13.9559 67.716 14.122 67.6329 14.2881C67.5498 14.4543 67.5498 14.7035 67.5498 14.9527V18.1925H66.2207V12.2114H67.4668V12.8759C67.6329 12.6267 67.8821 12.3775 68.2144 12.2114C68.6297 12.2944 68.962 12.2114 69.2943 12.2114ZM73.614 12.2114C74.0294 12.2114 74.4447 12.2944 74.6939 12.4606C75.0262 12.6267 75.2754 12.7929 75.4416 13.1252V9.38696H76.7707V18.3586H75.4416V17.611C75.2754 17.8602 74.9431 18.1094 74.6939 18.2755C74.3616 18.4417 74.0294 18.5248 73.614 18.5248C73.1986 18.5248 72.7833 18.4417 72.451 18.2755C72.1187 18.1094 71.7864 17.9433 71.5372 17.611C71.288 17.3618 71.0388 17.0295 70.8727 16.6141C70.7065 16.1988 70.6235 15.7834 70.6235 15.3681C70.6235 14.9527 70.7065 14.4543 70.8727 14.122C71.0388 13.7066 71.2049 13.3744 71.5372 13.1252C71.7864 12.8759 72.1187 12.6267 72.451 12.4606C72.7833 12.2944 73.1986 12.2114 73.614 12.2114ZM78.266 17.7771C78.349 17.7771 78.349 17.7771 78.4321 17.7771C78.5152 17.7771 78.5152 17.8602 78.5152 17.8602L78.5983 17.9433C78.5983 18.0263 78.5983 18.0263 78.5983 18.1094C78.5983 18.1925 78.5983 18.1925 78.5983 18.2755C78.5983 18.3586 78.5152 18.3586 78.5152 18.3586L78.4321 18.4417C78.349 18.4417 78.349 18.4417 78.266 18.4417C78.1829 18.4417 78.1829 18.4417 78.0998 18.4417C78.0168 18.4417 78.0168 18.3586 78.0168 18.3586L77.9337 18.2755C77.9337 18.1925 77.9337 18.1925 77.9337 18.1094C77.9337 18.0263 77.9337 18.0263 77.9337 17.9433C77.9337 17.8602 78.0168 17.8602 78.0168 17.8602L78.0998 17.7771C78.1829 17.7771 78.1829 17.7771 78.266 17.7771ZM78.266 18.4417H78.349C78.349 18.4417 78.4321 18.4417 78.4321 18.3586L78.5152 18.2755V18.1925V18.1094C78.5152 18.1094 78.5152 18.0263 78.4321 18.0263L78.349 17.9433H78.266H78.1829C78.1829 17.9433 78.0998 17.9433 78.0998 18.0263L78.0168 18.1094V18.1925V18.2755C78.0168 18.2755 78.0168 18.3586 78.0998 18.3586L78.1829 18.4417H78.266ZM78.266 17.9433C78.349 17.9433 78.349 17.9433 78.349 17.9433V18.0263V18.1094H78.266L78.349 18.2755H78.266L78.1829 18.1094V18.2755H78.0998V17.9433H78.266ZM78.1829 18.0263V18.1094H78.266C78.266 18.1094 78.266 18.1094 78.349 18.1094C78.349 18.1094 78.349 18.1094 78.266 18.1094H78.1829V18.0263ZM73.7801 13.4574C73.5309 13.4574 73.2817 13.5405 73.0325 13.6236C72.7833 13.7066 72.6171 13.8728 72.451 14.0389C72.2849 14.2051 72.2018 14.3712 72.1187 14.6204C71.9526 14.8696 71.9526 15.1189 71.9526 15.3681C71.9526 15.6173 72.0357 15.8665 72.0357 16.1157C72.1187 16.3649 72.2018 16.5311 72.3679 16.6972C72.5341 16.8633 72.7002 17.0295 72.9494 17.1126C73.1986 17.1956 73.4479 17.2787 73.6971 17.2787C73.9463 17.2787 74.1955 17.1956 74.4447 17.1126C74.6939 17.0295 74.8601 16.8633 75.0262 16.6972C75.1923 16.5311 75.2754 16.3649 75.3585 16.1157C75.4416 15.8665 75.5246 15.6173 75.5246 15.3681C75.5246 15.1189 75.4416 14.8696 75.3585 14.6204C75.2754 14.3712 75.1093 14.2051 75.0262 14.0389C74.8601 13.8728 74.6939 13.7066 74.4447 13.6236C74.2786 13.4574 74.0294 13.4574 73.7801 13.4574Z" fill="#E41522"/>
</svg>
