<svg width="50" height="38" viewBox="0 0 50 38" fill="none" xmlns="http://www.w3.org/2000/svg">
<mask id="mask0_797_1623" style="mask-type:alpha" maskUnits="userSpaceOnUse" x="0" y="0" width="50" height="38">
<rect width="50" height="37.5" rx="5" fill="white"/>
</mask>
<g mask="url(#mask0_797_1623)">
<path fill-rule="evenodd" clip-rule="evenodd" d="M5 0C2.23858 0 0 2.23858 0 5V32.5C0 35.2614 2.23858 37.5 5 37.5H45C47.7614 37.5 50 35.2614 50 32.5V5C50 2.23858 47.7614 0 45 0H5Z" fill="#BF2714"/>
<mask id="mask1_797_1623" style="mask-type:alpha" maskUnits="userSpaceOnUse" x="0" y="0" width="50" height="38">
<path fill-rule="evenodd" clip-rule="evenodd" d="M5 0C2.23858 0 0 2.23858 0 5V32.5C0 35.2614 2.23858 37.5 5 37.5H45C47.7614 37.5 50 35.2614 50 32.5V5C50 2.23858 47.7614 0 45 0H5Z" fill="white"/>
</mask>
<g mask="url(#mask1_797_1623)">
<path fill-rule="evenodd" clip-rule="evenodd" d="M5 -3.125C2.23858 -3.125 0 -0.886424 0 1.875V13.75C0 16.5114 2.23858 18.75 5 18.75H45C47.7614 18.75 50 16.5114 50 13.75V1.875C50 -0.886424 47.7614 -3.125 45 -3.125H5Z" fill="#3D58DB"/>
</g>
<path fill-rule="evenodd" clip-rule="evenodd" d="M7.7735 5.18233C4.45073 2.96715 0 5.34911 0 9.34259V28.1574C0 32.1509 4.45073 34.5328 7.7735 32.3177L21.8846 22.9103C24.8533 20.9311 24.8533 16.5689 21.8846 14.5897L7.7735 5.18233Z" fill="#F7FCFF"/>
<mask id="mask2_797_1623" style="mask-type:alpha" maskUnits="userSpaceOnUse" x="0" y="4" width="25" height="30">
<path fill-rule="evenodd" clip-rule="evenodd" d="M7.7735 5.18233C4.45073 2.96715 0 5.34911 0 9.34259V28.1574C0 32.1509 4.45073 34.5328 7.7735 32.3177L21.8846 22.9103C24.8533 20.9311 24.8533 16.5689 21.8846 14.5897L7.7735 5.18233Z" fill="white"/>
</mask>
<g mask="url(#mask2_797_1623)">
<path fill-rule="evenodd" clip-rule="evenodd" d="M22.1933 18.4932C21.9005 18.0454 22.3534 17.4852 22.8526 17.6777L22.8906 17.6923C23.1067 17.7757 23.3519 17.7133 23.5019 17.5368C23.8273 17.1538 24.4534 17.378 24.4619 17.8804L24.4628 17.9327C24.4665 18.1539 24.6103 18.3484 24.8207 18.4168C25.2948 18.5711 25.2991 19.2403 24.827 19.4005L24.7293 19.4337C24.5193 19.505 24.384 19.7093 24.4004 19.9305C24.4341 20.3843 23.882 20.6319 23.5655 20.305L23.4358 20.171C23.306 20.0369 23.1174 19.9772 22.9341 20.012L22.7139 20.0539C22.1977 20.1521 21.8417 19.5501 22.1649 19.1357C22.3098 18.95 22.3222 18.6904 22.1933 18.4932Z" fill="#FECA00"/>
<path fill-rule="evenodd" clip-rule="evenodd" d="M3.28602 27.8539C3.03432 27.3958 3.50777 26.8797 3.98584 27.0911C4.19817 27.185 4.44664 27.1344 4.60542 26.9651L4.67405 26.8918C5.01388 26.5293 5.61984 26.8073 5.58615 27.3031C5.56986 27.5429 5.72403 27.7651 5.95561 27.8295C6.43739 27.9636 6.45435 28.6404 5.97989 28.7985L5.85207 28.841C5.62743 28.9159 5.49114 29.1436 5.53133 29.3769C5.60668 29.8143 5.09817 30.1102 4.75517 29.8285L4.49854 29.6178C4.36761 29.5103 4.19747 29.4628 4.0298 29.4871L3.87442 29.5096C3.34326 29.5864 2.97587 28.993 3.28139 28.5518L3.29531 28.5317C3.41936 28.3525 3.43145 28.1186 3.32652 27.9276L3.28602 27.8539Z" fill="#FECA00"/>
<path fill-rule="evenodd" clip-rule="evenodd" d="M3.46736 9.09528C3.16852 8.65687 3.60847 8.09324 4.10632 8.2767L4.17778 8.30303C4.39244 8.38213 4.63366 8.31795 4.78062 8.14262C5.09969 7.76197 5.72009 7.97519 5.73775 8.47156L5.74041 8.54649C5.74811 8.76298 5.88844 8.95233 6.09332 9.02269C6.56638 9.18514 6.5636 9.85515 6.08922 10.0137L6.02985 10.0335C5.80943 10.1072 5.66534 10.319 5.67778 10.5511C5.70311 11.0238 5.13214 11.2787 4.79709 10.9443L4.69514 10.8425C4.56524 10.7129 4.38099 10.6534 4.19981 10.6828L3.98163 10.7181C3.44888 10.8043 3.08843 10.1905 3.42331 9.76728L3.44441 9.7406C3.59234 9.55365 3.60163 9.29227 3.46736 9.09528Z" fill="#FECA00"/>
<path fill-rule="evenodd" clip-rule="evenodd" d="M12.6898 22.7075C14.8472 22.7075 16.5961 20.9586 16.5961 18.8013C16.5961 16.6439 14.8472 14.895 12.6898 14.895C10.5325 14.895 8.78357 16.6439 8.78357 18.8013C8.78357 20.9586 10.5325 22.7075 12.6898 22.7075Z" fill="#FECA00"/>
<path fill-rule="evenodd" clip-rule="evenodd" d="M12.228 12.8744L12.4379 15.3838C12.458 15.5362 12.5752 15.6576 12.7268 15.683C12.9172 15.7148 13.0975 15.5863 13.1293 15.3959L13.4064 12.895C13.4112 12.8659 13.4139 12.8365 13.4145 12.807C13.4202 12.478 13.1581 12.2067 12.8291 12.2009C12.7997 12.2004 12.7702 12.2021 12.7409 12.2059C12.4147 12.2489 12.1851 12.5482 12.228 12.8744ZM11.5747 14.0873L11.8991 15.1789C11.9292 15.2802 12.0304 15.343 12.1449 15.3228C12.2387 15.3006 12.2968 15.2066 12.2746 15.1128L12.0157 14.0172C11.9859 13.8912 11.8639 13.8096 11.7361 13.8303C11.7275 13.8317 11.7191 13.8336 11.7108 13.8361C11.6039 13.8679 11.5429 13.9803 11.5747 14.0873ZM13.3291 15.2243C13.3037 15.3173 13.3584 15.4133 13.4616 15.4412C13.5651 15.4629 13.6684 15.4037 13.7021 15.3035L14.0644 14.2239C14.0999 14.1181 14.0429 14.0036 13.9371 13.9681C13.9289 13.9654 13.9206 13.9631 13.9121 13.9615C13.7851 13.9363 13.6602 14.0136 13.6261 14.1385L13.3291 15.2243ZM16.5747 14.1273L14.8282 16.0558C14.7347 16.1777 14.7317 16.3464 14.821 16.4716C14.9331 16.6288 15.1514 16.6653 15.3086 16.5532L17.3933 14.9751C17.4174 14.958 17.4401 14.9391 17.4613 14.9186C17.698 14.69 17.7046 14.3128 17.476 14.0761C17.4555 14.0549 17.4335 14.0352 17.4101 14.0173C17.149 13.817 16.775 13.8662 16.5747 14.1273ZM16.0434 18.2209L18.6511 18.0191C18.9774 17.9761 19.2767 18.2058 19.3197 18.532C19.3235 18.5613 19.3252 18.5907 19.3247 18.6202C19.3189 18.9492 19.0475 19.2113 18.7185 19.2055C18.6891 19.205 18.6597 19.2023 18.6306 19.1975L16.0313 18.9123C15.8409 18.8805 15.7124 18.7002 15.7442 18.5098C15.7696 18.3582 15.891 18.241 16.0434 18.2209ZM17.3968 22.3742L15.3716 20.6111C15.2496 20.5175 15.0809 20.5146 14.9558 20.6038C14.7986 20.716 14.762 20.9343 14.8741 21.0915L16.549 23.1929C16.5661 23.2169 16.585 23.2396 16.6055 23.2608C16.8341 23.4975 17.2113 23.5041 17.448 23.2755C17.4692 23.2551 17.4888 23.233 17.5068 23.2096C17.7071 22.9486 17.6578 22.5745 17.3968 22.3742ZM13.2063 21.8263L13.361 24.4592C13.4039 24.7854 13.1743 25.0847 12.848 25.1277C12.8188 25.1316 12.7893 25.1332 12.7598 25.1327C12.4308 25.127 12.1688 24.8556 12.1745 24.5266C12.175 24.4971 12.1777 24.4677 12.1826 24.4386L12.5149 21.8143C12.5468 21.6238 12.727 21.4953 12.9175 21.5272C13.069 21.5526 13.1863 21.674 13.2063 21.8263ZM9.09529 23.2486L10.8161 21.1545C10.9096 21.0325 10.9126 20.8638 10.8233 20.7387C10.7112 20.5815 10.4929 20.5449 10.3357 20.657L8.27661 22.4009C8.2526 22.418 8.2299 22.4369 8.20869 22.4574C7.97198 22.6859 7.9654 23.0631 8.19398 23.2998C8.21446 23.3211 8.23649 23.3407 8.25989 23.3587C8.52096 23.559 8.89498 23.5097 9.09529 23.2486ZM9.60095 18.9894L6.97719 19.2056C6.65094 19.2486 6.35164 19.0189 6.30867 18.6927C6.30482 18.6634 6.30314 18.634 6.30366 18.6045C6.3094 18.2755 6.58077 18.0134 6.90978 18.0192C6.93927 18.0197 6.96867 18.0224 6.99775 18.0272L9.61302 18.298C9.80345 18.3299 9.93198 18.5101 9.9001 18.7005C9.87473 18.8521 9.75333 18.9693 9.60095 18.9894ZM8.04736 14.8783L10.2727 16.5991C10.3947 16.6926 10.5634 16.6956 10.6885 16.6063C10.8457 16.4942 10.8823 16.2759 10.7702 16.1187L8.89513 14.0596C8.87801 14.0356 8.85913 14.0129 8.83865 13.9917C8.61006 13.755 8.23287 13.7484 7.99616 13.977C7.97495 13.9975 7.95529 14.0195 7.93734 14.0429C7.73703 14.304 7.78629 14.678 8.04736 14.8783ZM14.5922 15.5298L15.1347 14.5285C15.1878 14.4304 15.3104 14.394 15.4085 14.4471C15.4161 14.4512 15.4235 14.4558 15.4305 14.4609C15.5355 14.5366 15.5641 14.6806 15.4961 14.7908L14.9044 15.7485C14.8538 15.8305 14.7462 15.856 14.6642 15.8053C14.569 15.7386 14.5418 15.6227 14.5922 15.5298ZM17.34 17.3577L16.2484 17.6821C16.147 17.7122 16.0843 17.8134 16.1045 17.9279C16.1266 18.0217 16.2207 18.0798 16.3145 18.0576L17.41 17.7987C17.536 17.7689 17.6176 17.6469 17.5969 17.5191C17.5955 17.5105 17.5936 17.5021 17.5912 17.4938C17.5594 17.3868 17.4469 17.3259 17.34 17.3577ZM15.8975 20.3752L16.8988 20.9177C16.9969 20.9709 17.0333 21.0935 16.9802 21.1915C16.976 21.1991 16.9714 21.2065 16.9664 21.2135C16.8906 21.3185 16.7466 21.3471 16.6365 21.2791L15.6788 20.6875C15.5967 20.6368 15.5713 20.5293 15.622 20.4472C15.6886 20.352 15.8046 20.3249 15.8975 20.3752ZM14.0696 23.123L13.7452 22.0314C13.7151 21.93 13.6139 21.8673 13.4994 21.8875C13.4056 21.9096 13.3475 22.0037 13.3697 22.0975L13.6286 23.193C13.6584 23.319 13.7804 23.4006 13.9082 23.3799C13.9168 23.3785 13.9252 23.3766 13.9335 23.3741C14.0404 23.3424 14.1014 23.2299 14.0696 23.123ZM11.0521 21.6804L10.5096 22.6817C10.4565 22.7798 10.3339 22.8162 10.2358 22.7631C10.2282 22.759 10.2208 22.7544 10.2138 22.7493C10.1088 22.6736 10.0802 22.5296 10.1482 22.4194L10.7399 21.4617C10.7905 21.3797 10.8981 21.3543 10.9801 21.4049C11.0753 21.4716 11.1025 21.5875 11.0521 21.6804ZM8.30431 19.8525L9.39592 19.5281C9.49725 19.498 9.56 19.3968 9.53982 19.2823C9.51765 19.1885 9.42362 19.1305 9.32981 19.1526L8.23425 19.4115C8.10826 19.4413 8.02668 19.5634 8.04737 19.6912C8.04875 19.6997 8.05068 19.7081 8.05314 19.7164C8.08492 19.8234 8.19737 19.8843 8.30431 19.8525ZM9.74679 16.835L8.74552 16.2925C8.64743 16.2393 8.611 16.1168 8.66414 16.0187C8.66826 16.0111 8.67286 16.0037 8.67792 15.9967C8.75367 15.8917 8.89766 15.8631 9.00781 15.9311L9.96555 16.5227C10.0476 16.5734 10.073 16.681 10.0223 16.763C9.95566 16.8582 9.83973 16.8854 9.74679 16.835ZM15.5712 16.5731C15.4875 16.6209 15.4583 16.7275 15.5116 16.8202C15.5694 16.9087 15.6843 16.9399 15.7789 16.8928L16.7985 16.3856C16.8984 16.3359 16.9391 16.2146 16.8894 16.1147C16.8856 16.107 16.8812 16.0995 16.8764 16.0923C16.8044 15.9847 16.6615 15.9511 16.549 16.0153L15.5712 16.5731ZM15.986 19.2446C16.0139 19.1414 16.1099 19.0867 16.2029 19.1121L17.2887 19.4091C17.4136 19.4432 17.4909 19.5681 17.4657 19.6951C17.4641 19.7035 17.4618 19.7119 17.4591 19.7201C17.4236 19.8259 17.3091 19.8828 17.2033 19.8473L16.1237 19.485C16.0235 19.4514 15.9643 19.3481 15.986 19.2446ZM14.8542 21.3542C14.8064 21.2704 14.6998 21.2413 14.6071 21.2945C14.5186 21.3524 14.4874 21.4673 14.5345 21.5619L15.0417 22.5815C15.0914 22.6814 15.2127 22.7221 15.3125 22.6724C15.3203 22.6685 15.3278 22.6642 15.335 22.6594C15.4425 22.5873 15.4762 22.4444 15.412 22.332L14.8542 21.3542ZM12.1826 21.769C12.2858 21.7969 12.3406 21.8929 12.3151 21.9859L12.0182 23.0717C11.984 23.1966 11.8592 23.2739 11.7322 23.2488C11.7237 23.2471 11.7153 23.2449 11.7071 23.2421C11.6014 23.2066 11.5444 23.0921 11.5799 22.9863L11.9422 21.9067C11.9758 21.8065 12.0791 21.7473 12.1826 21.769ZM10.0731 20.6371C10.1568 20.5894 10.186 20.4827 10.1327 20.3901C10.0749 20.3015 9.96002 20.2703 9.86537 20.3174L8.84578 20.8246C8.74589 20.8743 8.7052 20.9956 8.75489 21.0955C8.75875 21.1032 8.76309 21.1107 8.7679 21.1179C8.83994 21.2255 8.98285 21.2591 9.0953 21.1949L10.0731 20.6371ZM9.6583 17.9656C9.63041 18.0688 9.53441 18.1235 9.44143 18.0981L8.35558 17.8011C8.2307 17.767 8.15343 17.6422 8.17856 17.5152C8.18024 17.5067 8.18246 17.4983 8.18521 17.4901C8.22071 17.3843 8.33522 17.3274 8.44098 17.3629L9.52061 17.7252C9.62083 17.7588 9.68 17.8621 9.6583 17.9656ZM10.7901 15.856C10.8379 15.9398 10.9445 15.9689 11.0372 15.9157C11.1257 15.8579 11.1569 15.7429 11.1098 15.6483L10.6026 14.6287C10.5529 14.5288 10.4316 14.4881 10.3318 14.5378C10.324 14.5417 10.3165 14.546 10.3093 14.5508C10.2018 14.6229 10.1681 14.7658 10.2323 14.8782L10.7901 15.856Z" fill="#FECA00"/>
</g>
</g>
</svg>
