<svg width="39" height="39" viewBox="0 0 39 39" fill="none" xmlns="http://www.w3.org/2000/svg">
<path d="M19.5 39C30.2696 39 39 30.2696 39 19.5C39 8.73045 30.2696 0 19.5 0C8.73045 0 0 8.73045 0 19.5C0 30.2696 8.73045 39 19.5 39Z" fill="#515262"/>
<path d="M19.5 30.931C25.8132 30.931 30.931 25.8132 30.931 19.5C30.931 13.1868 25.8132 8.06897 19.5 8.06897C13.1868 8.06897 8.06897 13.1868 8.06897 19.5C8.06897 25.8132 13.1868 30.931 19.5 30.931Z" fill="#EFF2FA"/>
<path d="M19.5 6.72415C26.5559 6.72415 32.2759 12.4441 32.2759 19.5C32.2759 26.5559 26.5559 32.2759 19.5 32.2759C12.4441 32.2759 6.72415 26.5559 6.72415 19.5C6.72415 12.4441 12.4441 6.72415 19.5 6.72415ZM19.5 5.37933C11.7138 5.37933 5.37933 11.7138 5.37933 19.5C5.37933 27.2862 11.7138 33.6207 19.5 33.6207C27.2862 33.6207 33.6207 27.2862 33.6207 19.5C33.6207 11.7138 27.2862 5.37933 19.5 5.37933Z" fill="#464655"/>
<path d="M19.5 0C18.3529 0 17.2308 0.104736 16.1379 0.294785V3.39536C16.1379 3.90587 16.5897 4.3047 17.094 4.2248C17.8782 4.10048 18.6814 4.03452 19.5 4.03452C20.3186 4.03452 21.1219 4.10048 21.9061 4.2248C22.4103 4.3047 22.8621 3.90594 22.8621 3.39536V0.294785C21.7692 0.104736 20.6472 0 19.5 0Z" fill="#EFF2FA"/>
<path d="M16.1379 35.6046V38.7052C17.2308 38.8953 18.3529 39 19.5 39C20.6472 39 21.7692 38.8953 22.8621 38.7052V35.6046C22.8621 35.0941 22.4103 34.6953 21.9061 34.7752C21.1219 34.8995 20.3186 34.9655 19.5 34.9655C18.6814 34.9655 17.8782 34.8995 17.094 34.7752C16.5897 34.6953 16.1379 35.0941 16.1379 35.6046Z" fill="#EFF2FA"/>
<path d="M39 19.5C39 18.3529 38.8952 17.2308 38.7052 16.1379H35.6046C35.0941 16.1379 34.6953 16.5897 34.7752 17.094C34.8995 17.8782 34.9655 18.6814 34.9655 19.5C34.9655 20.3186 34.8995 21.1219 34.7752 21.9061C34.6953 22.4103 35.094 22.8621 35.6046 22.8621H38.7052C38.8952 21.7692 39 20.6472 39 19.5Z" fill="#EFF2FA"/>
<path d="M3.39536 16.1379H0.294785C0.104736 17.2308 0 18.3529 0 19.5C0 20.6472 0.104736 21.7692 0.294785 22.8621H3.39536C3.90587 22.8621 4.3047 22.4103 4.2248 21.9061C4.10048 21.1219 4.03452 20.3186 4.03452 19.5C4.03452 18.6814 4.10048 17.8782 4.2248 17.094C4.3047 16.5897 3.90587 16.1379 3.39536 16.1379Z" fill="#EFF2FA"/>
<path d="M33.2886 5.71134C32.4775 4.90018 31.61 4.18082 30.7029 3.54242L28.5104 5.73488C28.1494 6.09585 28.1869 6.69738 28.5999 6.99735C29.2423 7.4639 29.8569 7.9853 30.4358 8.56413C31.0146 9.14296 31.536 9.75759 32.0026 10.4C32.3025 10.813 32.904 10.8505 33.265 10.4895L35.4575 8.29707C34.8191 7.39002 34.0998 6.52257 33.2886 5.71134Z" fill="#EFF2FA"/>
<path d="M5.73488 28.5104L3.54242 30.7028C4.18082 31.6099 4.90018 32.4774 5.71134 33.2885C6.52249 34.0997 7.39002 34.8191 8.29707 35.4575L10.4895 33.265C10.8505 32.904 10.813 32.3025 10.4 32.0025C9.75759 31.536 9.14304 31.0146 8.56413 30.4357C7.9853 29.8569 7.4639 29.2423 6.99735 28.5999C6.69738 28.1869 6.09593 28.1493 5.73488 28.5104Z" fill="#EFF2FA"/>
<path d="M33.2886 33.2886C34.0998 32.4775 34.8192 31.61 35.4576 30.7029L33.265 28.5104C32.904 28.1494 32.3025 28.1869 32.0026 28.5999C31.536 29.2423 31.0146 29.8569 30.4358 30.4358C29.8569 31.0146 29.2423 31.536 28.5999 32.0026C28.1869 32.3025 28.1494 32.904 28.5104 33.265L30.7028 35.4575C31.61 34.8191 32.4774 34.0998 33.2886 33.2886Z" fill="#EFF2FA"/>
<path d="M10.4896 5.73492L8.29719 3.54254C7.39006 4.18094 6.52262 4.90023 5.71138 5.71138C4.90015 6.52254 4.18086 7.39006 3.54254 8.29712L5.73492 10.4896C6.0959 10.8506 6.69743 10.8131 6.99739 10.4001C7.46395 9.75764 7.98534 9.14308 8.56418 8.56418C9.14301 7.98535 9.75764 7.46395 10.4001 6.9974C10.8132 6.69743 10.8507 6.09598 10.4896 5.73492Z" fill="#EFF2FA"/>
<path d="M3.96892 26.9419C4.52595 26.9419 4.97751 26.4904 4.97751 25.9333C4.97751 25.3763 4.52595 24.9247 3.96892 24.9247C3.41189 24.9247 2.96033 25.3763 2.96033 25.9333C2.96033 26.4904 3.41189 26.9419 3.96892 26.9419Z" fill="#EFF2FA"/>
<path d="M35.0311 14.0753C35.5881 14.0753 36.0396 13.6237 36.0396 13.0667C36.0396 12.5097 35.5881 12.0581 35.0311 12.0581C34.474 12.0581 34.0225 12.5097 34.0225 13.0667C34.0225 13.6237 34.474 14.0753 35.0311 14.0753Z" fill="#EFF2FA"/>
<path d="M13.0667 4.97751C13.6237 4.97751 14.0753 4.52595 14.0753 3.96892C14.0753 3.41189 13.6237 2.96033 13.0667 2.96033C12.5097 2.96033 12.0581 3.41189 12.0581 3.96892C12.0581 4.52595 12.5097 4.97751 13.0667 4.97751Z" fill="#EFF2FA"/>
<path d="M25.9333 36.0396C26.4904 36.0396 26.9419 35.5881 26.9419 35.0311C26.9419 34.474 26.4904 34.0225 25.9333 34.0225C25.3763 34.0225 24.9247 34.474 24.9247 35.0311C24.9247 35.5881 25.3763 36.0396 25.9333 36.0396Z" fill="#EFF2FA"/>
<path d="M3.96892 14.0753C4.52595 14.0753 4.97751 13.6237 4.97751 13.0667C4.97751 12.5097 4.52595 12.0581 3.96892 12.0581C3.41189 12.0581 2.96033 12.5097 2.96033 13.0667C2.96033 13.6237 3.41189 14.0753 3.96892 14.0753Z" fill="#EFF2FA"/>
<path d="M35.0311 26.9419C35.5881 26.9419 36.0396 26.4904 36.0396 25.9333C36.0396 25.3763 35.5881 24.9247 35.0311 24.9247C34.474 24.9247 34.0225 25.3763 34.0225 25.9333C34.0225 26.4904 34.474 26.9419 35.0311 26.9419Z" fill="#EFF2FA"/>
<path d="M25.9333 4.97751C26.4904 4.97751 26.9419 4.52595 26.9419 3.96892C26.9419 3.41189 26.4904 2.96033 25.9333 2.96033C25.3763 2.96033 24.9247 3.41189 24.9247 3.96892C24.9247 4.52595 25.3763 4.97751 25.9333 4.97751Z" fill="#EFF2FA"/>
<path d="M13.0667 36.0396C13.6237 36.0396 14.0753 35.5881 14.0753 35.0311C14.0753 34.474 13.6237 34.0225 13.0667 34.0225C12.5097 34.0225 12.0581 34.474 12.0581 35.0311C12.0581 35.5881 12.5097 36.0396 13.0667 36.0396Z" fill="#EFF2FA"/>
<path d="M30.7826 11.0449L29.6163 11.7183C30.2988 12.6042 30.874 13.576 31.3073 14.6242L32.4796 13.9475C32.0328 12.907 31.4545 11.9391 30.7826 11.0449Z" fill="#EFF2FA"/>
<path d="M24.3759 7.69259C25.4241 8.12594 26.3959 8.70111 27.2819 9.38361L27.9552 8.21734C27.061 7.54543 26.0931 6.96713 25.0528 6.52039L24.3759 7.69259Z" fill="#EFF2FA"/>
<path d="M17.819 5.48902V6.84739C18.3705 6.77473 18.9287 6.72415 19.5 6.72415C20.0713 6.72415 20.6296 6.77465 21.181 6.84732V5.48902C20.6287 5.42306 20.0698 5.37933 19.5 5.37933C18.9302 5.37933 18.3713 5.42298 17.819 5.48902Z" fill="#EFF2FA"/>
<path d="M32.2758 19.5C32.2758 20.0713 32.2253 20.6296 32.1527 21.181H33.511C33.5769 20.6287 33.6207 20.0698 33.6207 19.5C33.6207 18.9302 33.5769 18.3713 33.511 17.819H32.1526C32.2253 18.3705 32.2758 18.9287 32.2758 19.5Z" fill="#EFF2FA"/>
<path d="M6.72415 19.5C6.72415 18.9287 6.77465 18.3705 6.84732 17.819H5.48902C5.42306 18.3713 5.37933 18.9302 5.37933 19.5C5.37933 20.0698 5.42313 20.6287 5.48902 21.181H6.84732C6.77465 20.6296 6.72415 20.0713 6.72415 19.5Z" fill="#EFF2FA"/>
<path d="M11.7181 9.38367C12.604 8.70117 13.5758 8.126 14.6241 7.69266L13.9473 6.52045C12.907 6.96727 11.939 7.54557 11.0449 8.2174L11.7181 9.38367Z" fill="#EFF2FA"/>
<path d="M32.4796 25.0526L31.3074 24.3759C30.8741 25.4241 30.2989 26.3958 29.6164 27.2817L30.7826 27.955C31.4545 27.0609 32.0328 26.093 32.4796 25.0526Z" fill="#EFF2FA"/>
<path d="M21.181 33.511V32.1526C20.6296 32.2253 20.0713 32.2758 19.5 32.2758C18.9287 32.2758 18.3705 32.2253 17.819 32.1526V33.511C18.3713 33.5769 18.9302 33.6207 19.5 33.6207C20.0698 33.6207 20.6287 33.5769 21.181 33.511Z" fill="#EFF2FA"/>
<path d="M27.2818 29.6163C26.3959 30.2988 25.4241 30.874 24.3759 31.3073L25.0526 32.4796C26.0929 32.0327 27.0609 31.4544 27.9551 30.7825L27.2818 29.6163Z" fill="#EFF2FA"/>
<path d="M14.6241 31.3073C13.5759 30.874 12.6041 30.2988 11.7182 29.6163L11.0448 30.7825C11.9391 31.4544 12.9069 32.0327 13.9473 32.4796L14.6241 31.3073Z" fill="#EFF2FA"/>
<path d="M9.38361 27.2818C8.70111 26.3959 8.12601 25.4242 7.69259 24.376L6.52039 25.0528C6.96713 26.0931 7.54551 27.061 8.21734 27.9551L9.38361 27.2818Z" fill="#EFF2FA"/>
<path d="M6.52039 13.9473L7.69259 14.6241C8.12594 13.5759 8.70111 12.6041 9.38361 11.7182L8.21734 11.0448C7.54551 11.9391 6.96721 12.907 6.52039 13.9473Z" fill="#EFF2FA"/>
<path d="M24.1733 17.8412C22.8326 17.7643 21.6592 18.5037 21.0963 19.6071C20.9721 19.8507 20.7649 20.0421 20.5053 20.1281C20.5021 20.1291 20.4988 20.1302 20.4956 20.1313C20.2749 20.2041 20.0543 20.0159 20.0889 19.786C20.1649 19.281 20.2844 18.7902 20.4428 18.3172C20.5288 18.0603 20.7168 17.8541 20.9584 17.7315C22.0649 17.1698 22.8069 15.9947 22.7299 14.6518C22.6358 13.01 21.27 11.669 19.627 11.6027C17.7751 11.528 16.2503 13.0072 16.2503 14.8426C16.2503 16.1069 16.9752 17.1993 18.0312 17.7335C18.2707 17.8546 18.4564 18.0594 18.5417 18.3137C18.7006 18.7879 18.8205 19.2798 18.8966 19.786C18.9313 20.0159 18.7106 20.2041 18.4899 20.1313C18.4865 20.1302 18.4833 20.1291 18.4799 20.128C18.2205 20.0421 18.0135 19.8509 17.8893 19.6074C17.3266 18.5038 16.1531 17.7642 14.8122 17.8412C13.1705 17.9353 11.8294 19.3011 11.7631 20.9442C11.6885 22.7961 13.1677 24.3209 15.003 24.3209C16.2632 24.3209 17.3526 23.6007 17.8887 22.5503C18.0135 22.306 18.2214 22.114 18.4819 22.0279C18.4849 22.027 18.4879 22.026 18.4909 22.0249C18.7118 21.9521 18.9318 22.1405 18.8977 22.3705C18.6687 23.9109 18.0373 25.3197 17.1139 26.4873C16.9292 26.7208 17.1002 27.0645 17.3981 27.0645H21.5876C21.8855 27.0645 22.0566 26.7208 21.8718 26.4873C20.9483 25.3197 20.3169 23.9109 20.088 22.3705C20.0538 22.1405 20.2738 21.9521 20.4948 22.0249C20.4978 22.0259 20.5008 22.0269 20.5039 22.0279C20.7644 22.1141 20.9723 22.306 21.097 22.5503C21.6331 23.6007 22.7225 24.3209 23.9827 24.3209C25.818 24.3209 27.2972 22.7961 27.2226 20.9442C27.156 19.3012 25.8149 17.9355 24.1733 17.8412Z" fill="#515262"/>
</svg>
