<svg width="36" height="36" viewBox="0 0 36 36" fill="none" xmlns="http://www.w3.org/2000/svg">
<path d="M27.8953 22.179C28.4768 22.4283 28.726 23.259 28.726 23.6743C28.8091 24.3389 28.643 24.6712 28.3938 24.6712C28.1445 24.6712 27.8123 24.422 27.48 23.8405C27.1477 23.259 26.9816 22.6775 27.1477 22.3452C27.3969 22.179 27.6461 22.096 27.8953 22.179Z" fill="#F28A1A"/>
<path d="M24.4892 24.7543C24.8214 24.7543 25.2368 24.9204 25.6522 25.2527C26.3167 25.8342 26.5659 26.4988 26.2336 26.9972C26.0675 27.2464 25.6522 27.4125 25.3199 27.4125C24.9045 27.4125 24.4892 27.2464 24.2399 26.9972C23.5754 26.4157 23.4092 25.585 23.8246 25.0866C23.9077 24.9204 24.1569 24.7543 24.4892 24.7543Z" fill="#F28A1A"/>
<path d="M16.5975 31.3168C7.95817 31.3168 0.980225 24.3389 0.980225 15.7826C0.980225 7.2263 7.95817 0.165283 16.5975 0.165283C25.2369 0.165283 32.2149 7.14323 32.2149 15.7826C32.2149 18.6901 31.3842 21.4314 30.055 23.7574C29.9719 23.8405 29.8889 23.8405 29.8889 23.6743C29.3074 19.8531 26.9814 17.7763 23.6586 17.1117C23.3263 17.0287 23.3263 16.8625 23.7416 16.8625C24.8216 16.7794 26.2338 16.7794 27.0645 16.9456C27.1475 16.5302 27.1475 16.1149 27.1475 15.7826C27.1475 10.1338 22.4956 5.48182 16.8468 5.48182C11.1979 5.48182 6.54597 10.1338 6.54597 15.7826C6.54597 21.4314 11.1979 26.0834 16.8468 26.0834H17.3452C17.179 25.1696 17.096 24.2558 17.179 23.259C17.179 22.5944 17.3452 22.5113 17.5944 23.0098C19.0066 25.5019 21.0834 27.6617 25.0708 28.5755C28.3105 29.3231 31.5503 30.1539 35.1223 34.5566C35.4546 34.972 34.9562 35.3873 34.6239 35.055C31.0519 31.8983 27.8121 30.8184 24.8216 30.8184C21.0834 30.9015 18.8405 31.3168 16.5975 31.3168Z" fill="#F28A1A"/>
</svg>
