<svg width="44" height="33" viewBox="0 0 44 33" fill="none" xmlns="http://www.w3.org/2000/svg">
<mask id="mask0_724_764" style="mask-type:alpha" maskUnits="userSpaceOnUse" x="0" y="0" width="44" height="33">
<rect x="0.571533" width="43.4286" height="32.5714" rx="5" fill="white"/>
</mask>
<g mask="url(#mask0_724_764)">
<path fill-rule="evenodd" clip-rule="evenodd" d="M5.57153 0C2.81011 0 0.571533 2.23858 0.571533 5V27.5714C0.571533 30.3329 2.81011 32.5714 5.57153 32.5714H39.0001C41.7615 32.5714 44.0001 30.3329 44.0001 27.5714V5C44.0001 2.23858 41.7615 0 39.0001 0H5.57153Z" fill="#3D58DB"/>
<mask id="mask1_724_764" style="mask-type:alpha" maskUnits="userSpaceOnUse" x="0" y="0" width="44" height="33">
<path fill-rule="evenodd" clip-rule="evenodd" d="M5.57153 0C2.81011 0 0.571533 2.23858 0.571533 5V27.5714C0.571533 30.3329 2.81011 32.5714 5.57153 32.5714H39.0001C41.7615 32.5714 44.0001 30.3329 44.0001 27.5714V5C44.0001 2.23858 41.7615 0 39.0001 0H5.57153Z" fill="white"/>
</mask>
<g mask="url(#mask1_724_764)">
<path fill-rule="evenodd" clip-rule="evenodd" d="M5.57153 0C2.81011 0 0.571533 2.23858 0.571533 5V5.85714C0.571533 8.61857 2.81011 10.8571 5.57153 10.8571H39.0001C41.7615 10.8571 44.0001 8.61857 44.0001 5.85714V5C44.0001 2.23857 41.7615 0 39.0001 0H5.57153Z" fill="#F7FCFF"/>
<path fill-rule="evenodd" clip-rule="evenodd" d="M5.57153 21.7142C2.81011 21.7142 0.571533 23.9528 0.571533 26.7142V27.5714C0.571533 30.3328 2.81011 32.5714 5.57153 32.5714H39.0001C41.7615 32.5714 44.0001 30.3328 44.0001 27.5714V26.7142C44.0001 23.9528 41.7615 21.7142 39.0001 21.7142H5.57153Z" fill="#C51918"/>
</g>
</g>
</svg>
