<svg width="60" height="60" viewBox="0 0 60 60" fill="none" xmlns="http://www.w3.org/2000/svg">
<circle cx="30" cy="30" r="29.5" stroke="url(#paint0_linear_696_2)"/>
<path fill-rule="evenodd" clip-rule="evenodd" d="M20.0388 12.0775C19.7361 12.1347 19.2353 12.2786 18.9257 12.3973C18.3815 12.6063 17.2942 13.25 17.2942 13.3633C17.2942 13.4053 17.7269 13.9655 17.8987 14.1459C17.9115 14.1594 18.0683 14.0701 18.2472 13.9476C20.8208 12.1855 24.4133 13.1083 25.7633 15.8783C25.9351 16.2307 26.1241 16.7254 26.1834 16.9775C26.3209 17.5624 26.3219 18.7165 26.1854 19.2927C25.7317 21.208 24.1899 22.7294 22.2723 23.154C21.5114 23.3224 20.3549 23.2636 19.5971 23.0179C17.8934 22.4655 16.5923 21.063 16.1524 19.3046C16.0156 18.7579 16.0328 17.4761 16.1847 16.907C16.3314 16.3569 16.6363 15.689 16.9433 15.2449C17.067 15.0661 17.1406 14.8938 17.1071 14.8622C16.8899 14.6569 16.4203 14.2978 16.369 14.2978C16.2725 14.2978 15.7403 15.1136 15.5167 15.6042C15.1272 16.4592 14.9939 17.1228 15.0002 18.1763C15.0046 18.9181 15.0397 19.2528 15.1591 19.6924C15.7858 21.9988 17.6445 23.7396 19.9817 24.2092C20.7694 24.3675 22.1382 24.3191 22.8566 24.1074C24.5455 23.6099 25.948 22.4412 26.7164 20.8912C27.1859 19.9439 27.2903 19.5205 27.3333 18.3879C27.3743 17.3062 27.2944 16.7979 26.9388 15.8803C26.5334 14.8342 25.6435 13.7183 24.7074 13.0823C24.1681 12.7159 23.2624 12.3001 22.6795 12.1513C22.0286 11.9852 20.7215 11.9487 20.0388 12.0775ZM21.7234 15.9897L20.5915 17.1179L20.0223 16.5544L19.4531 15.9909L18.3737 17.0666L17.2945 18.1425L18.9597 19.7986L20.625 21.4547L22.8389 19.2514L25.0528 17.0482L23.9541 15.9548L22.8555 14.8614L21.7234 15.9897ZM23.2271 16.7113L23.5321 17.0092L22.0614 18.474L20.5908 19.9388L19.722 19.0763C19.2441 18.6019 18.8531 18.1828 18.8531 18.1451C18.8531 18.0527 19.359 17.5416 19.4505 17.5416C19.4905 17.5416 19.7713 17.7871 20.0746 18.0872L20.626 18.6328L21.741 17.523C22.3543 16.9127 22.8709 16.4133 22.8891 16.4133C22.9073 16.4133 23.0593 16.5474 23.2271 16.7113ZM32.2631 17.7191C30.8867 18.0166 29.7296 19.1078 29.3105 20.5034C29.1726 20.9627 29.1543 21.9525 29.2747 22.4491C29.3999 22.966 29.7289 23.6192 30.0804 24.0487C30.4585 24.5106 31.207 25.0312 31.7848 25.2342C32.3226 25.4231 33.4232 25.4924 33.9554 25.3709C35.0671 25.1171 36.1158 24.2993 36.5866 23.3189C36.725 23.0309 36.8568 22.7378 36.8796 22.6675C36.9299 22.5124 36.9301 22.5126 37.8012 23.2536L38.423 23.7825L37.7434 23.8027L37.0638 23.8228V24.3492V24.8755H39.1898H41.3158L41.0498 24.6419C40.9036 24.5133 40.194 23.9055 39.473 23.291C38.752 22.6765 38.1151 22.131 38.0577 22.0785C37.9675 21.996 38.0491 21.8875 38.6587 21.2785C39.0467 20.891 39.391 20.5739 39.4239 20.5739C39.4569 20.5739 40.4858 21.4827 41.7104 22.5935L43.9371 24.6133V25.6258V26.6385H40.5365H37.1359L37.1176 30.323L37.0992 34.0076H33.0957H29.0922L29.0738 30.6051L29.0554 27.2026H28.5246H27.9939V30.6249V34.0472L27.1259 34.0274L26.2578 34.0076L26.2396 30.0331C26.227 27.3135 26.2458 25.9677 26.299 25.771C26.3974 25.4076 26.749 25.0539 27.1115 24.9537C27.2655 24.9111 27.7822 24.8761 28.2596 24.8759L29.1276 24.8755V24.3382V23.8009L28.0084 23.8292C26.9593 23.8558 26.864 23.8699 26.4883 24.0528C26.0069 24.2872 25.5065 24.8163 25.3265 25.2814C25.2074 25.5895 25.1955 25.9489 25.1757 29.8294L25.1543 34.0429H24.9582C24.6662 34.0429 24.0469 34.3773 23.8407 34.6464C23.5864 34.9781 23.4589 35.4573 23.4589 36.081V36.616L21.179 38.8857L18.8991 41.1554L18.6199 41.0136C18.4574 40.9312 18.1884 40.8689 17.9769 40.8648C17.3097 40.8517 17.1302 40.9599 16.0351 42.0364L15.024 43.0303L17.0267 45.0243L19.0294 47.0182L21.2442 44.8149L23.4589 42.6116V43.3965V44.1814L23.1498 44.2276C22.5628 44.3152 22.0067 44.8255 21.8377 45.4315C21.7945 45.5867 21.7589 46.2452 21.7587 46.8948L21.7583 48.0759H24.8407H27.923V43.2807V38.4855H28.5253H29.1276V43.2807V48.0759H30.8282H32.5288V44.409V40.7421H35.9655H39.4022V44.409V48.0759H41.0673H42.7325V37.8861V27.6962H43.8663H45V25.9211V24.146L44.4863 23.6769C40.4098 19.9546 38.1587 17.9621 37.8854 17.8343C37.1689 17.499 36.3206 17.5891 35.6913 18.0671L35.3727 18.3092L34.8896 18.0647C34.0606 17.6451 33.1561 17.5261 32.2631 17.7191ZM33.7664 18.778C34.9402 19.0823 35.7445 19.9574 35.9356 21.1384C36.1308 22.3445 35.4536 23.5855 34.3047 24.1274C33.8761 24.3295 33.7815 24.3466 33.0942 24.3466C32.399 24.3466 32.3177 24.3315 31.8888 24.1213C31.3033 23.8345 30.8112 23.3446 30.5232 22.7618C30.31 22.3307 30.2968 22.2583 30.297 21.527C30.2972 20.8219 30.3153 20.7136 30.4928 20.3536C30.8765 19.5755 31.5699 19.0006 32.3871 18.783C32.8972 18.6471 33.2566 18.6459 33.7664 18.778ZM37.3672 18.765C37.4926 18.8172 37.8284 19.0791 38.1135 19.3468L38.6317 19.8335L37.8908 20.5651C37.4833 20.9675 37.1187 21.2776 37.0807 21.2543C37.0428 21.2309 36.99 21.05 36.9637 20.8522C36.903 20.3963 36.7041 19.8933 36.3941 19.4109C36.1268 18.995 36.1339 18.9699 36.5727 18.7804C36.8785 18.6483 37.0782 18.6445 37.3672 18.765ZM39.3849 32.5796L39.4031 37.4277H38.8003H38.1976V32.5592V27.6905L38.7821 27.711L39.3667 27.7315L39.3849 32.5796ZM41.6522 37.3748L41.6701 47.0182H41.0676H40.465V43.3512V39.6843H35.9655H31.466V43.3512V47.0182H30.8637H30.2614V42.7518V38.4855H35.3632H40.465V33.088V27.6905L41.0496 27.711L41.6342 27.7315L41.6522 37.3748ZM31.4247 29.5547C31.4044 29.6073 31.3974 29.8532 31.4092 30.1013L31.4305 30.5522L31.9797 30.5728L32.5288 30.5934V30.0263V29.4592H31.9952C31.6115 29.4592 31.4512 29.4861 31.4247 29.5547ZM33.6921 29.5547C33.6719 29.6073 33.6649 29.8532 33.6767 30.1013L33.698 30.5522L34.2472 30.5728L34.7963 30.5934V30.0263V29.4592H34.2627C33.879 29.4592 33.7186 29.4861 33.6921 29.5547ZM37.1347 36.2642V37.4277H31.9974H26.8601V40.8126V44.1975H25.6894H24.5187L24.538 39.831L24.5572 35.4645L24.729 35.2826L24.9008 35.1006H31.0177H37.1347V36.2642ZM22.3452 42.2383C21.731 42.8504 21.1968 43.3512 21.1581 43.3512C21.0652 43.3512 19.7034 41.9996 19.7034 41.9075C19.7034 41.8682 20.5405 41.0026 21.5634 39.9839L23.4235 38.1317L23.4427 39.6286L23.4618 41.1254L22.3452 42.2383ZM19.2957 43.0592L20.4116 44.1601L19.722 44.849L19.0323 45.5379L17.809 44.3219C17.1361 43.6531 16.5856 43.073 16.5856 43.0328C16.5856 42.918 17.5223 42.0253 17.7167 41.9548C17.8127 41.9199 17.9562 41.9064 18.0356 41.9248C18.115 41.9431 18.682 42.4536 19.2957 43.0592ZM26.8601 46.1367V47.0182H24.834H22.8079L22.8322 46.3068C22.8555 45.6284 22.8658 45.5875 23.0554 45.4253L23.2543 45.2552H25.0572H26.8601V46.1367Z" fill="url(#paint1_linear_696_2)"/>
<defs>
<linearGradient id="paint0_linear_696_2" x1="53" y1="7.5" x2="5" y2="48.5" gradientUnits="userSpaceOnUse">
<stop stop-color="#FF6518"/>
<stop offset="1" stop-color="#FFD91A"/>
</linearGradient>
<linearGradient id="paint1_linear_696_2" x1="41.5" y1="16.5095" x2="13.9098" y2="36.107" gradientUnits="userSpaceOnUse">
<stop stop-color="#FF6518"/>
<stop offset="1" stop-color="#FFD91A"/>
</linearGradient>
</defs>
</svg>
