<svg width="50" height="38" viewBox="0 0 50 38" fill="none" xmlns="http://www.w3.org/2000/svg">
<mask id="mask0_797_1560" style="mask-type:alpha" maskUnits="userSpaceOnUse" x="0" y="0" width="50" height="38">
<rect width="50" height="37.5" rx="5" fill="white"/>
</mask>
<g mask="url(#mask0_797_1560)">
<path fill-rule="evenodd" clip-rule="evenodd" d="M0 5C0 2.23858 2.23858 0 5 0H45C47.7614 0 50 2.23858 50 5V32.5C50 35.2614 47.7614 37.5 45 37.5H5C2.23858 37.5 0 35.2614 0 32.5V5Z" fill="#F7FCFF"/>
<path fill-rule="evenodd" clip-rule="evenodd" d="M1.5625 22.9166C0.699555 22.9166 0 23.6162 0 24.4791C0 25.3421 0.699555 26.0416 1.5625 26.0416H48.4375C49.3004 26.0416 50 25.3421 50 24.4791C50 23.6162 49.3004 22.9166 48.4375 22.9166H1.5625Z" fill="#E31D1C"/>
<path fill-rule="evenodd" clip-rule="evenodd" d="M1.5625 28.6459C0.699555 28.6459 0 29.3454 0 30.2084C0 31.0713 0.699555 31.7709 1.5625 31.7709H48.4375C49.3004 31.7709 50 31.0713 50 30.2084C50 29.3454 49.3004 28.6459 48.4375 28.6459H1.5625Z" fill="#E31D1C"/>
<path fill-rule="evenodd" clip-rule="evenodd" d="M1.5625 11.4584C0.699555 11.4584 0 12.1579 0 13.0209C0 13.8838 0.699555 14.5834 1.5625 14.5834H48.4375C49.3004 14.5834 50 13.8838 50 13.0209C50 12.1579 49.3004 11.4584 48.4375 11.4584H1.5625Z" fill="#E31D1C"/>
<path fill-rule="evenodd" clip-rule="evenodd" d="M1.5625 34.375C0.699555 34.375 0 35.0746 0 35.9375C0 36.8004 0.699555 37.5 1.5625 37.5H48.4375C49.3004 37.5 50 36.8004 50 35.9375C50 35.0746 49.3004 34.375 48.4375 34.375H1.5625Z" fill="#E31D1C"/>
<path fill-rule="evenodd" clip-rule="evenodd" d="M1.5625 17.1875C0.699555 17.1875 0 17.8871 0 18.75C0 19.6129 0.699555 20.3125 1.5625 20.3125H48.4375C49.3004 20.3125 50 19.6129 50 18.75C50 17.8871 49.3004 17.1875 48.4375 17.1875H1.5625Z" fill="#E31D1C"/>
<path fill-rule="evenodd" clip-rule="evenodd" d="M1.5625 0C0.699555 0 0 0.699555 0 1.5625C0 2.42544 0.699555 3.125 1.5625 3.125H48.4375C49.3004 3.125 50 2.42544 50 1.5625C50 0.699555 49.3004 0 48.4375 0H1.5625Z" fill="#E31D1C"/>
<path fill-rule="evenodd" clip-rule="evenodd" d="M1.5625 5.72913C0.699555 5.72913 0 6.42868 0 7.29163C0 8.15457 0.699555 8.85413 1.5625 8.85413H48.4375C49.3004 8.85413 50 8.15457 50 7.29163C50 6.42868 49.3004 5.72913 48.4375 5.72913H1.5625Z" fill="#E31D1C"/>
<rect width="31.25" height="20.3125" rx="5" fill="#2E42A5"/>
<path fill-rule="evenodd" clip-rule="evenodd" d="M2.91923 4.75731C2.78245 4.6582 2.59753 4.65699 2.45921 4.75396C2.15386 4.96803 1.74663 4.68413 1.84405 4.32415L1.87227 4.21986C1.9134 4.06786 1.86508 3.90566 1.74746 3.80096L1.71077 3.7683C1.43833 3.52578 1.60987 3.07508 1.97462 3.07508C2.13912 3.07508 2.28668 2.97329 2.3454 2.81962C2.47218 2.48786 2.9371 2.47378 3.08233 2.79789L3.10857 2.85646C3.16817 2.98947 3.30034 3.07508 3.4461 3.07508C3.77407 3.07508 3.93978 3.47029 3.70989 3.7042L3.61325 3.80253C3.50977 3.90782 3.46791 4.05904 3.50251 4.20256L3.53657 4.34379C3.62282 4.70149 3.21719 4.97319 2.91923 4.75731ZM9.16925 4.75734C9.03247 4.65823 8.84754 4.65702 8.70923 4.75399C8.40387 4.96806 7.99665 4.68416 8.09407 4.32418L8.12229 4.21989C8.16342 4.06789 8.11509 3.90569 7.99748 3.80099L7.96079 3.76833C7.68835 3.52581 7.85989 3.07511 8.22464 3.07511C8.38914 3.07511 8.5367 2.97332 8.59542 2.81965C8.7222 2.48789 9.18712 2.47381 9.33235 2.79792L9.35859 2.85649C9.41819 2.9895 9.55036 3.07511 9.69612 3.07511C10.0241 3.07511 10.1898 3.47032 9.95991 3.70423L9.86327 3.80256C9.75979 3.90785 9.71793 4.05907 9.75253 4.20259L9.78659 4.34382C9.87284 4.70152 9.46721 4.97323 9.16925 4.75734ZM14.3441 4.32418C14.2467 4.68416 14.6539 4.96806 14.9592 4.75399C15.0975 4.65702 15.2825 4.65823 15.4193 4.75734C15.7172 4.97323 16.1228 4.70152 16.0366 4.34383L16.0025 4.20259C15.9679 4.05907 16.0098 3.90785 16.1133 3.80256L16.2099 3.70423C16.4398 3.47032 16.2741 3.07511 15.9461 3.07511C15.8004 3.07511 15.6682 2.9895 15.6086 2.85649L15.5823 2.79792C15.4371 2.47381 14.9722 2.48789 14.8454 2.81965C14.7867 2.97332 14.6391 3.07511 14.4746 3.07511C14.1099 3.07511 13.9383 3.52581 14.2108 3.76833L14.2475 3.80099C14.3651 3.90569 14.4134 4.06789 14.3723 4.21989L14.3441 4.32418ZM21.6693 4.75734C21.5325 4.65823 21.3475 4.65702 21.2092 4.75399C20.9039 4.96806 20.4967 4.68416 20.5941 4.32418L20.6223 4.21989C20.6634 4.06789 20.6151 3.90569 20.4975 3.80099L20.4608 3.76833C20.1883 3.52581 20.3599 3.07511 20.7246 3.07511C20.8891 3.07511 21.0367 2.97332 21.0954 2.81965C21.2222 2.48789 21.6871 2.47381 21.8323 2.79792L21.8586 2.85649C21.9182 2.9895 22.0504 3.07511 22.1961 3.07511C22.5241 3.07511 22.6898 3.47032 22.4599 3.70423L22.3633 3.80256C22.2598 3.90785 22.2179 4.05907 22.2525 4.20259L22.2866 4.34383C22.3728 4.70152 21.9672 4.97323 21.6693 4.75734ZM1.84407 10.5742C1.74665 10.9342 2.15387 11.2181 2.45923 11.004C2.59754 10.907 2.78247 10.9082 2.91925 11.0073C3.21721 11.2232 3.62284 10.9515 3.53659 10.5938L3.50253 10.4526C3.46793 10.3091 3.50979 10.1579 3.61327 10.0526L3.70991 9.95423C3.9398 9.72032 3.77409 9.32511 3.44612 9.32511C3.30036 9.32511 3.16819 9.2395 3.10859 9.10649L3.08235 9.04792C2.93712 8.72381 2.4722 8.73789 2.34542 9.06965C2.2867 9.22332 2.13914 9.32511 1.97463 9.32511C1.60989 9.32511 1.43835 9.77581 1.71079 10.0183L1.74747 10.051C1.86509 10.1557 1.91342 10.3179 1.87229 10.4699L1.84407 10.5742ZM9.16925 11.0073C9.03247 10.9082 8.84754 10.907 8.70923 11.004C8.40387 11.2181 7.99665 10.9342 8.09407 10.5742L8.12229 10.4699C8.16342 10.3179 8.11509 10.1557 7.99747 10.051L7.96079 10.0183C7.68835 9.77581 7.85989 9.32511 8.22464 9.32511C8.38914 9.32511 8.5367 9.22332 8.59542 9.06965C8.7222 8.73789 9.18712 8.72381 9.33235 9.04792L9.35859 9.10649C9.41819 9.2395 9.55036 9.32511 9.69612 9.32511C10.0241 9.32511 10.1898 9.72032 9.95991 9.95423L9.86327 10.0526C9.75979 10.1579 9.71793 10.3091 9.75253 10.4526L9.78659 10.5938C9.87284 10.9515 9.46721 11.2232 9.16925 11.0073ZM14.3441 10.5742C14.2467 10.9342 14.6539 11.2181 14.9592 11.004C15.0975 10.907 15.2825 10.9082 15.4193 11.0073C15.7172 11.2232 16.1228 10.9515 16.0366 10.5938L16.0025 10.4526C15.9679 10.3091 16.0098 10.1579 16.1133 10.0526L16.2099 9.95423C16.4398 9.72032 16.2741 9.32511 15.9461 9.32511C15.8004 9.32511 15.6682 9.2395 15.6086 9.10649L15.5823 9.04792C15.4371 8.72381 14.9722 8.73789 14.8454 9.06965C14.7867 9.22332 14.6391 9.32511 14.4746 9.32511C14.1099 9.32511 13.9383 9.77581 14.2108 10.0183L14.2475 10.051C14.3651 10.1557 14.4134 10.3179 14.3723 10.4699L14.3441 10.5742ZM21.6693 11.0073C21.5325 10.9082 21.3475 10.907 21.2092 11.004C20.9039 11.2181 20.4967 10.9342 20.5941 10.5742L20.6223 10.4699C20.6634 10.3179 20.6151 10.1557 20.4975 10.051L20.4608 10.0183C20.1883 9.77581 20.3599 9.32511 20.7246 9.32511C20.8891 9.32511 21.0367 9.22332 21.0954 9.06965C21.2222 8.73789 21.6871 8.72381 21.8323 9.04792L21.8586 9.10649C21.9182 9.2395 22.0504 9.32511 22.1961 9.32511C22.5241 9.32511 22.6898 9.72032 22.4599 9.95423L22.3633 10.0526C22.2598 10.1579 22.2179 10.3091 22.2525 10.4526L22.2866 10.5938C22.3728 10.9515 21.9672 11.2232 21.6693 11.0073ZM1.84407 16.8242C1.74665 17.1842 2.15387 17.4681 2.45923 17.254C2.59754 17.157 2.78247 17.1582 2.91925 17.2573C3.21721 17.4732 3.62284 17.2015 3.53659 16.8438L3.50253 16.7026C3.46793 16.5591 3.50979 16.4079 3.61327 16.3026L3.70991 16.2042C3.9398 15.9703 3.77409 15.5751 3.44612 15.5751C3.30036 15.5751 3.16819 15.4895 3.10859 15.3565L3.08235 15.2979C2.93712 14.9738 2.4722 14.9879 2.34542 15.3197C2.2867 15.4733 2.13914 15.5751 1.97464 15.5751C1.60989 15.5751 1.43835 16.0258 1.71079 16.2683L1.74747 16.301C1.86509 16.4057 1.91342 16.5679 1.87229 16.7199L1.84407 16.8242ZM9.16925 17.2573C9.03247 17.1582 8.84754 17.157 8.70923 17.254C8.40387 17.4681 7.99665 17.1842 8.09407 16.8242L8.12229 16.7199C8.16342 16.5679 8.11509 16.4057 7.99748 16.301L7.96079 16.2683C7.68835 16.0258 7.85989 15.5751 8.22464 15.5751C8.38914 15.5751 8.5367 15.4733 8.59542 15.3197C8.7222 14.9879 9.18712 14.9738 9.33235 15.2979L9.35859 15.3565C9.41819 15.4895 9.55036 15.5751 9.69612 15.5751C10.0241 15.5751 10.1898 15.9703 9.95991 16.2042L9.86327 16.3026C9.75979 16.4079 9.71793 16.5591 9.75253 16.7026L9.78659 16.8438C9.87284 17.2015 9.46721 17.4732 9.16925 17.2573ZM14.3441 16.8242C14.2467 17.1842 14.6539 17.4681 14.9592 17.254C15.0975 17.157 15.2825 17.1582 15.4193 17.2573C15.7172 17.4732 16.1228 17.2015 16.0366 16.8438L16.0025 16.7026C15.9679 16.5591 16.0098 16.4079 16.1133 16.3026L16.2099 16.2042C16.4398 15.9703 16.2741 15.5751 15.9461 15.5751C15.8004 15.5751 15.6682 15.4895 15.6086 15.3565L15.5823 15.2979C15.4371 14.9738 14.9722 14.9879 14.8454 15.3197C14.7867 15.4733 14.6391 15.5751 14.4746 15.5751C14.1099 15.5751 13.9383 16.0258 14.2108 16.2683L14.2475 16.301C14.3651 16.4057 14.4134 16.5679 14.3723 16.7199L14.3441 16.8242ZM21.6693 17.2573C21.5325 17.1582 21.3475 17.157 21.2092 17.254C20.9039 17.4681 20.4967 17.1842 20.5941 16.8242L20.6223 16.7199C20.6634 16.5679 20.6151 16.4057 20.4975 16.301L20.4608 16.2683C20.1883 16.0258 20.3599 15.5751 20.7246 15.5751C20.8891 15.5751 21.0367 15.4733 21.0954 15.3197C21.2222 14.9879 21.6871 14.9738 21.8323 15.2979L21.8586 15.3565C21.9182 15.4895 22.0504 15.5751 22.1961 15.5751C22.5241 15.5751 22.6898 15.9703 22.4599 16.2042L22.3633 16.3026C22.2598 16.4079 22.2179 16.5591 22.2525 16.7026L22.2866 16.8438C22.3728 17.2015 21.9672 17.4732 21.6693 17.2573ZM26.8441 4.32418C26.7467 4.68416 27.1539 4.96806 27.4592 4.75399C27.5975 4.65702 27.7825 4.65823 27.9193 4.75734C28.2172 4.97323 28.6228 4.70152 28.5366 4.34383L28.5025 4.20259C28.4679 4.05907 28.5098 3.90785 28.6133 3.80256L28.7099 3.70423C28.9398 3.47032 28.7741 3.07511 28.4461 3.07511C28.3004 3.07511 28.1682 2.9895 28.1086 2.85649L28.0823 2.79792C27.9371 2.47381 27.4722 2.48789 27.3454 2.81965C27.2867 2.97332 27.1391 3.07511 26.9746 3.07511C26.6099 3.07511 26.4383 3.52581 26.7108 3.76833L26.7475 3.80099C26.8651 3.90569 26.9134 4.06789 26.8723 4.21989L26.8441 4.32418ZM27.9193 11.0073C27.7825 10.9082 27.5975 10.907 27.4592 11.004C27.1539 11.2181 26.7467 10.9342 26.8441 10.5742L26.8723 10.4699C26.9134 10.3179 26.8651 10.1557 26.7475 10.051L26.7108 10.0183C26.4383 9.77581 26.6099 9.32511 26.9746 9.32511C27.1391 9.32511 27.2867 9.22332 27.3454 9.06965C27.4722 8.73789 27.9371 8.72381 28.0823 9.04792L28.1086 9.10649C28.1682 9.2395 28.3004 9.32511 28.4461 9.32511C28.7741 9.32511 28.9398 9.72032 28.7099 9.95423L28.6133 10.0526C28.5098 10.1579 28.4679 10.3091 28.5025 10.4526L28.5366 10.5938C28.6228 10.9515 28.2172 11.2232 27.9193 11.0073ZM26.8441 16.8242C26.7467 17.1842 27.1539 17.4681 27.4592 17.254C27.5975 17.157 27.7825 17.1582 27.9193 17.2573C28.2172 17.4732 28.6228 17.2015 28.5366 16.8438L28.5025 16.7026C28.4679 16.5591 28.5098 16.4079 28.6133 16.3026L28.7099 16.2042C28.9398 15.9703 28.7741 15.5751 28.4461 15.5751C28.3004 15.5751 28.1682 15.4895 28.1086 15.3565L28.0823 15.2979C27.9371 14.9738 27.4722 14.9879 27.3454 15.3197C27.2867 15.4733 27.1391 15.5751 26.9746 15.5751C26.6099 15.5751 26.4383 16.0258 26.7108 16.2683L26.7475 16.301C26.8651 16.4057 26.9134 16.5679 26.8723 16.7199L26.8441 16.8242ZM6.04425 7.88234C5.90747 7.78323 5.72254 7.78202 5.58423 7.87899C5.27887 8.09306 4.87165 7.80916 4.96907 7.44918L4.99729 7.34489C5.03842 7.19289 4.99009 7.03069 4.87247 6.92599L4.83579 6.89333C4.56335 6.65081 4.73489 6.20011 5.09964 6.20011C5.26414 6.20011 5.4117 6.09832 5.47042 5.94465C5.5972 5.61289 6.06212 5.59881 6.20735 5.92292L6.23359 5.98149C6.29319 6.1145 6.42536 6.20011 6.57112 6.20011C6.89909 6.20011 7.0648 6.59532 6.83491 6.82923L6.73827 6.92756C6.63479 7.03285 6.59293 7.18407 6.62753 7.32759L6.66159 7.46882C6.74784 7.82652 6.34221 8.09823 6.04425 7.88234ZM11.2191 7.44918C11.1217 7.80916 11.5289 8.09306 11.8342 7.87899C11.9725 7.78202 12.1575 7.78323 12.2943 7.88234C12.5922 8.09823 12.9978 7.82652 12.9116 7.46883L12.8775 7.32759C12.8429 7.18407 12.8848 7.03285 12.9883 6.92756L13.0849 6.82923C13.3148 6.59531 13.1491 6.20011 12.8211 6.20011C12.6754 6.20011 12.5432 6.1145 12.4836 5.98149L12.4573 5.92292C12.3121 5.59881 11.8472 5.61289 11.7204 5.94465C11.6617 6.09832 11.5141 6.20011 11.3496 6.20011C10.9849 6.20011 10.8133 6.65081 11.0858 6.89333L11.1225 6.92599C11.2401 7.03069 11.2884 7.19289 11.2473 7.34489L11.2191 7.44918ZM18.5443 7.88234C18.4075 7.78323 18.2225 7.78202 18.0842 7.87899C17.7789 8.09306 17.3717 7.80916 17.4691 7.44918L17.4973 7.34489C17.5384 7.19289 17.4901 7.03069 17.3725 6.92599L17.3358 6.89333C17.0633 6.65081 17.2349 6.20011 17.5996 6.20011C17.7641 6.20011 17.9117 6.09832 17.9704 5.94465C18.0972 5.61289 18.5621 5.59881 18.7073 5.92292L18.7336 5.98149C18.7932 6.1145 18.9254 6.20011 19.0711 6.20011C19.3991 6.20011 19.5648 6.59532 19.3349 6.82923L19.2383 6.92756C19.1348 7.03285 19.0929 7.18407 19.1275 7.32759L19.1616 7.46883C19.2478 7.82652 18.8422 8.09823 18.5443 7.88234ZM4.96907 13.6992C4.87165 14.0592 5.27887 14.3431 5.58423 14.129C5.72254 14.032 5.90747 14.0332 6.04425 14.1323C6.34221 14.3482 6.74784 14.0765 6.66159 13.7188L6.62753 13.5776C6.59293 13.4341 6.63479 13.2829 6.73827 13.1776L6.83491 13.0792C7.0648 12.8453 6.89909 12.4501 6.57112 12.4501C6.42536 12.4501 6.29319 12.3645 6.23359 12.2315L6.20735 12.1729C6.06212 11.8488 5.5972 11.8629 5.47042 12.1947C5.4117 12.3483 5.26414 12.4501 5.09964 12.4501C4.73489 12.4501 4.56335 12.9008 4.83579 13.1433L4.87247 13.176C4.99009 13.2807 5.03842 13.4429 4.99729 13.5949L4.96907 13.6992ZM12.2943 14.1323C12.1575 14.0332 11.9725 14.032 11.8342 14.129C11.5289 14.3431 11.1217 14.0592 11.2191 13.6992L11.2473 13.5949C11.2884 13.4429 11.2401 13.2807 11.1225 13.176L11.0858 13.1433C10.8133 12.9008 10.9849 12.4501 11.3496 12.4501C11.5141 12.4501 11.6617 12.3483 11.7204 12.1947C11.8472 11.8629 12.3121 11.8488 12.4573 12.1729L12.4836 12.2315C12.5432 12.3645 12.6754 12.4501 12.8211 12.4501C13.1491 12.4501 13.3148 12.8453 13.0849 13.0792L12.9883 13.1776C12.8848 13.2829 12.8429 13.4341 12.8775 13.5776L12.9116 13.7188C12.9978 14.0765 12.5922 14.3482 12.2943 14.1323ZM17.4691 13.6992C17.3717 14.0592 17.7789 14.3431 18.0842 14.129C18.2225 14.032 18.4075 14.0332 18.5443 14.1323C18.8422 14.3482 19.2478 14.0765 19.1616 13.7188L19.1275 13.5776C19.0929 13.4341 19.1348 13.2829 19.2383 13.1776L19.3349 13.0792C19.5648 12.8453 19.3991 12.4501 19.0711 12.4501C18.9254 12.4501 18.7932 12.3645 18.7336 12.2315L18.7073 12.1729C18.5621 11.8488 18.0972 11.8629 17.9704 12.1947C17.9117 12.3483 17.7641 12.4501 17.5996 12.4501C17.2349 12.4501 17.0633 12.9008 17.3358 13.1433L17.3725 13.176C17.4901 13.2807 17.5384 13.4429 17.4973 13.5949L17.4691 13.6992ZM24.7943 7.88234C24.6575 7.78323 24.4725 7.78202 24.3342 7.87899C24.0289 8.09306 23.6217 7.80916 23.7191 7.44918L23.7473 7.34489C23.7884 7.19289 23.7401 7.03069 23.6225 6.92599L23.5858 6.89333C23.3133 6.65081 23.4849 6.20011 23.8496 6.20011C24.0141 6.20011 24.1617 6.09832 24.2204 5.94465C24.3472 5.61289 24.8121 5.59881 24.9573 5.92292L24.9836 5.98149C25.0432 6.1145 25.1754 6.20011 25.3211 6.20011C25.6491 6.20011 25.8148 6.59532 25.5849 6.82923L25.4883 6.92756C25.3848 7.03285 25.3429 7.18407 25.3775 7.32759L25.4116 7.46883C25.4978 7.82652 25.0922 8.09823 24.7943 7.88234ZM23.7191 13.6992C23.6217 14.0592 24.0289 14.3431 24.3342 14.129C24.4725 14.032 24.6575 14.0332 24.7943 14.1323C25.0922 14.3482 25.4978 14.0765 25.4116 13.7188L25.3775 13.5776C25.3429 13.4341 25.3848 13.2829 25.4883 13.1776L25.5849 13.0792C25.8148 12.8453 25.6491 12.4501 25.3211 12.4501C25.1754 12.4501 25.0432 12.3645 24.9836 12.2315L24.9573 12.1729C24.8121 11.8488 24.3472 11.8629 24.2204 12.1947C24.1617 12.3483 24.0141 12.4501 23.8496 12.4501C23.4849 12.4501 23.3133 12.9008 23.5858 13.1433L23.6225 13.176C23.7401 13.2807 23.7884 13.4429 23.7473 13.5949L23.7191 13.6992Z" fill="#F7FCFF"/>
</g>
</svg>
