<svg width="60" height="60" viewBox="0 0 60 60" fill="none" xmlns="http://www.w3.org/2000/svg">
<circle cx="30" cy="30" r="29.5" stroke="url(#paint0_linear_696_2)"/>
<path fill-rule="evenodd" clip-rule="evenodd" d="M28.0765 13.0606C26.3649 13.2804 24.6517 14.0085 23.3504 15.0692L23.0007 15.3543L22.6228 15.1771C22.2879 15.0201 22.1662 14.9999 21.553 14.9999C20.9233 14.9999 20.8286 15.0166 20.4987 15.1861C20.2994 15.2885 20.0761 15.4286 20.0025 15.4972C19.8764 15.6149 19.8498 15.6162 19.5412 15.5204C18.4986 15.1968 17.4165 15.8445 17.1357 16.9603C17.0621 17.2529 17.0538 17.2601 16.7483 17.3006C16.075 17.39 15.4332 17.876 15.1388 18.5194C15.0359 18.7441 14.9995 18.9539 15 19.3186C15.0009 19.9688 15.1863 20.3946 15.6555 20.8236C16.1973 21.3191 16.4067 21.3626 18.2494 21.3626H19.8068L19.8124 22.5C19.8187 23.7716 19.9389 24.5123 20.3091 25.5619C20.5344 26.2008 21.0375 27.2294 21.351 27.6924L21.5519 27.9891L19.4933 28.0251C17.6814 28.0568 17.3991 28.0759 17.1381 28.1848C16.4916 28.4544 16.0904 28.8196 15.7672 29.4326L15.5896 29.7694V37.3849V45.0004L15.7342 45.3137C15.9499 45.781 16.4771 46.3026 16.9588 46.5252L17.3688 46.7147L24.5695 46.7323L31.7702 46.75L31.9331 46.587C32.1403 46.3796 32.1407 46.1271 31.9342 45.9205L31.7725 45.7587L24.7024 45.7572C18.0051 45.7558 17.6184 45.7494 17.3688 45.6356C16.9664 45.4523 16.6367 45.0462 16.5496 44.6268C16.4978 44.3767 16.4816 42.2005 16.4942 37.1862L16.5121 30.099L16.6585 29.8252C16.8616 29.445 17.2291 29.161 17.6286 29.0752C17.863 29.025 21.3949 29.0097 29.5313 29.0239L41.1008 29.0441L41.4222 29.2429C41.6562 29.3877 41.7937 29.5377 41.9277 29.7944L42.1118 30.147V32.2495V34.3519H41.3241H40.5364L40.4928 34.1195C40.3837 33.5376 39.542 33.5641 39.542 34.1493V34.3424L37.7464 34.3636C35.7917 34.3867 35.7667 34.3912 35.3636 34.7908C35.0095 35.1419 34.9953 35.239 34.9953 37.319C34.9953 38.8995 35.0132 39.2781 35.0973 39.4795C35.2333 39.8054 35.4341 40.0141 35.7531 40.1614C35.9883 40.27 36.2066 40.2833 37.7793 40.2846L39.542 40.286V40.5425C39.542 41.2884 40.4105 41.3096 40.5102 40.5661L40.5477 40.286H41.3323H42.1168L42.0978 42.5493L42.0789 44.8125L41.8971 45.0872C41.7971 45.2383 41.5918 45.4438 41.4408 45.5438L41.1662 45.7257L37.4712 45.7587C35.439 45.7768 33.7271 45.816 33.667 45.8458C33.3769 45.9897 33.3818 46.5234 33.6747 46.6803C33.7699 46.7313 34.9224 46.7472 37.5492 46.7338L41.2882 46.7147L41.6661 46.5375C42.149 46.311 42.6637 45.796 42.8901 45.3127L43.0672 44.9345L43.0876 42.6103L43.108 40.286L43.2523 40.2846C43.4902 40.2822 43.9176 40.0551 44.1061 39.8309C44.4055 39.4748 44.4279 39.2768 44.4058 37.1813L44.3852 35.2305L44.1998 34.963C44.0172 34.6994 43.6334 34.4579 43.2847 34.3871L43.1068 34.351L43.087 32.1261L43.0673 29.9012L42.8634 29.4727C42.4968 28.7022 41.8593 28.2244 41.0128 28.0857C40.8018 28.0512 39.8064 28.0227 38.8007 28.0225C37.1253 28.0221 36.8174 27.9937 37.0343 27.8595C37.0686 27.8383 37.2502 27.5547 37.4379 27.2292L37.7793 26.6374H38.8643H39.9493L40.2162 26.866C40.892 27.4449 42.0262 27.4374 42.6538 26.85C42.7825 26.7295 42.9457 26.6667 43.2314 26.6276C43.9337 26.5314 44.4568 26.1559 44.7815 25.5146C45.4333 24.2275 44.558 22.7279 43.0653 22.5745L42.6681 22.5337L42.5561 22.1537C42.2762 21.2033 41.2097 20.4373 40.1706 20.4403C39.8008 20.4414 39.2651 20.594 38.9196 20.7966C38.588 20.991 38.6197 21.0243 38.4843 20.3406C38.2026 18.9172 37.2485 17.143 36.1318 15.9658C35.6964 15.5069 35.5898 15.4277 35.4072 15.4281C35.1331 15.4286 34.9294 15.6285 34.9294 15.897C34.9294 16.0599 35.0256 16.2047 35.4002 16.6058C36.0115 17.2602 36.4478 17.883 36.8384 18.6593C37.1687 19.3154 37.5221 20.3294 37.5973 20.8369L37.6416 21.1352L37.1823 21.3711L36.7229 21.6069L36.68 21.2705C36.5525 20.2738 35.9511 18.8638 35.2645 17.9521C34.0901 16.3926 32.2761 15.3048 30.3909 15.0298C29.614 14.9165 28.1272 14.9814 27.4608 15.1576C26.0853 15.5215 25.0302 16.12 24.0193 17.1098C22.9673 18.1398 22.3375 19.2198 21.9685 20.6261C21.6642 21.7859 21.7033 23.9127 22.0384 24.4245C22.1749 24.6329 22.4473 24.6931 22.6508 24.5596C22.8862 24.4053 22.9233 24.2335 22.8269 23.7443C22.71 23.152 22.7113 21.837 22.8294 21.2308C23.0695 19.9974 23.6572 18.8723 24.5443 17.9477C26.4276 15.9848 29.1913 15.3934 31.7269 16.4109C34.0225 17.332 35.6311 19.5565 35.767 21.9981L35.8042 22.6665L35.5714 22.7771C34.6802 23.2002 34.1999 24.2843 34.4986 25.1983C34.5613 25.39 34.6689 25.626 34.7377 25.7227L34.8629 25.8986L34.556 26.3175C34.1712 26.8429 33.5278 27.4802 33.0727 27.7869L32.7238 28.0221H29.2288H25.7338L25.2034 27.6025C24.6488 27.1637 24.2344 26.7197 23.8109 26.1111C23.5071 25.6743 23.3277 25.5679 23.0552 25.663C22.8285 25.742 22.7053 25.9663 22.7627 26.1952C22.8201 26.4238 23.2156 26.9868 23.7103 27.5441L24.1347 28.0221H23.4696H22.8045L22.4216 27.5055C21.7185 26.5565 21.1854 25.3561 20.9169 24.1166C20.7503 23.3479 20.7494 21.6096 20.9152 20.8351C21.4836 18.1795 23.1267 16.0304 25.4737 14.873C26.8575 14.1905 28.0408 13.9367 29.5516 13.9982C30.8765 14.0522 31.8192 14.2815 33.0111 14.8399C33.3152 14.9823 33.6056 15.0988 33.6566 15.0988C33.7076 15.0988 33.8221 15.0259 33.911 14.9369C34.1378 14.71 34.1255 14.4296 33.8797 14.2226C33.6299 14.0123 32.4093 13.4987 31.7336 13.3197C30.6262 13.0263 29.155 12.9221 28.0765 13.0606ZM21.9192 15.9638C22.0802 16.0043 22.2119 16.0595 22.2119 16.0864C22.2119 16.1133 22.0405 16.3459 21.8309 16.6032C21.107 17.4919 20.4416 18.7834 20.1544 19.857L20.0162 20.3736H18.3563C16.7389 20.3736 16.6906 20.3698 16.474 20.2237C16.0924 19.9663 15.9359 19.6701 15.9683 19.2665C15.9978 18.8981 16.1291 18.6638 16.4335 18.4365C16.565 18.3382 16.7549 18.2949 17.1771 18.2668C17.6932 18.2325 17.7581 18.2126 17.9023 18.0449C18.0255 17.9016 18.0606 17.7847 18.0608 17.5182C18.061 16.6527 18.7762 16.1746 19.5103 16.5494C19.6524 16.6219 19.8306 16.6812 19.9063 16.6812C20.0692 16.6812 20.4328 16.504 20.4328 16.4245C20.4328 16.3303 20.9469 16.0229 21.2073 15.9615C21.5509 15.8804 21.5889 15.8806 21.9192 15.9638ZM29.0004 17.4776C28.701 17.6017 28.5925 17.7613 27.995 18.956C27.6686 19.6088 27.3735 20.1606 27.3393 20.1824C27.3049 20.2042 26.7971 20.2885 26.2106 20.3698C24.4851 20.6091 24.3988 20.6401 24.2088 21.0893C24.0354 21.4995 24.1233 21.6442 25.2172 22.7496L26.2309 23.7738L25.9985 25.116C25.7393 26.6127 25.7477 26.7596 26.1091 27.0639C26.4673 27.3654 26.694 27.311 28.0242 26.6045C28.6727 26.26 29.2275 25.9781 29.2572 25.9781C29.2868 25.9781 29.8517 26.2635 30.5124 26.6123C31.6252 27.1998 31.7354 27.2441 32.0078 27.2134C32.1887 27.193 32.3637 27.1221 32.4626 27.0291C32.7551 26.7541 32.7601 26.5674 32.5137 25.1153L32.2868 23.7778L33.2787 22.7836C33.9448 22.1161 34.2907 21.7197 34.3316 21.5772C34.4504 21.1627 34.188 20.7019 33.7739 20.5979C33.6939 20.5778 33.0685 20.4819 32.3844 20.3848L31.1405 20.2082L30.5146 18.9576C30.1259 18.1813 29.8261 17.6629 29.7238 17.5905C29.5106 17.4397 29.2064 17.3922 29.0004 17.4776ZM29.8337 19.7782C30.1982 20.5318 30.4268 20.9269 30.5422 21.0026C30.6477 21.0717 31.121 21.1742 31.7832 21.2714C32.372 21.3578 32.9249 21.445 33.0119 21.4652C33.1562 21.4987 33.0886 21.584 32.2376 22.4429C31.403 23.2852 31.3053 23.4075 31.3053 23.6095C31.3054 23.7337 31.3925 24.3391 31.4988 24.9549C31.6051 25.5707 31.6827 26.0839 31.6713 26.0953C31.6599 26.1068 31.1733 25.8626 30.5901 25.5526C29.7572 25.1101 29.4717 24.9891 29.2601 24.9891C29.0487 24.9891 28.762 25.1103 27.9309 25.5508C27.348 25.8598 26.8617 26.1032 26.8502 26.0917C26.8387 26.0802 26.9201 25.5296 27.0311 24.868C27.1485 24.1683 27.2141 23.5904 27.1881 23.4865C27.1617 23.381 26.7759 22.9367 26.2479 22.4034C25.6752 21.825 25.3861 21.4888 25.446 21.4708C25.4975 21.4553 26.0458 21.3695 26.6644 21.28C27.35 21.1809 27.8537 21.0752 27.9541 21.0093C28.0611 20.9392 28.3126 20.5082 28.6714 19.7803C28.9753 19.1638 29.24 18.6607 29.2597 18.6625C29.2794 18.6642 29.5377 19.1663 29.8337 19.7782ZM40.6688 21.5036C41.2405 21.6951 41.6275 22.1819 41.7174 22.8225C41.8012 23.4197 41.951 23.538 42.6262 23.5399C43.4852 23.5424 43.9447 23.8698 44.0075 24.5243C44.0661 25.1331 43.6497 25.61 42.9935 25.6857C42.4527 25.7482 42.3807 25.7755 42.1267 26.0155C41.84 26.2863 41.6857 26.3363 41.2782 26.2904C41.0452 26.2641 40.9221 26.2006 40.7189 26.002L40.4584 25.7473L38.2984 25.7144L36.1384 25.6814L35.8737 25.5059C35.5246 25.2746 35.3662 24.9376 35.407 24.5133C35.4241 24.3344 35.4959 24.1086 35.5666 24.0116C35.7294 23.7879 36.2124 23.5385 36.483 23.5385C36.7724 23.5385 37.0237 23.3212 37.0773 23.0247C37.1976 22.3594 37.6725 22.0224 38.2929 22.1618C38.6447 22.241 38.7727 22.1976 39.1129 21.8838C39.265 21.7435 39.4905 21.5849 39.6139 21.5312C39.8848 21.4136 40.3628 21.4011 40.6688 21.5036ZM36.2664 26.6316L36.6479 26.6704L36.4406 27.0001C36.3266 27.1814 36.1143 27.4856 35.9687 27.6759L35.7041 28.0221H35.0504H34.3967L34.9213 27.4012C35.2099 27.0598 35.4798 26.7172 35.5212 26.6398C35.578 26.5337 35.6317 26.5107 35.7406 26.546C35.82 26.5718 36.0566 26.6103 36.2664 26.6316ZM19.0619 30.8303C18.6593 31.031 18.3674 31.3604 18.2272 31.772C18.0137 32.3989 18.1663 32.7958 18.6207 32.7958C18.9238 32.7958 19.1149 32.5929 19.1149 32.2713C19.1149 31.9458 19.3446 31.7158 19.7424 31.643C20.112 31.5753 20.301 31.4001 20.301 31.1253C20.301 30.6626 19.6899 30.5171 19.0619 30.8303ZM21.3668 30.8121C21.19 31.0004 21.1832 31.2543 21.3494 31.4599C21.4726 31.6123 21.5017 31.616 22.7452 31.6361C24.1258 31.6586 24.2593 31.6439 24.454 31.4491C24.6218 31.2811 24.6194 31.0519 24.4475 30.8332L24.311 30.6595H22.9105C21.5319 30.6595 21.5079 30.6619 21.3668 30.8121ZM25.6384 30.7914C25.472 30.9579 25.4693 31.2581 25.6325 31.4599C25.7557 31.6123 25.7848 31.616 27.0283 31.6361C28.4089 31.6586 28.5424 31.6439 28.7371 31.4491C28.9049 31.2811 28.9025 31.0519 28.7306 30.8332L28.5941 30.6595H27.1821C25.858 30.6595 25.762 30.6677 25.6384 30.7914ZM29.9215 30.7914C29.744 30.969 29.7474 31.326 29.9282 31.49C30.0527 31.6028 30.1976 31.6177 31.3546 31.6361C32.7433 31.6582 32.9488 31.6233 33.0758 31.3442C33.1855 31.1035 33.1684 31.0013 32.9885 30.8214C32.8271 30.6598 32.8246 30.6595 31.44 30.6595C30.1411 30.6595 30.0449 30.6679 29.9215 30.7914ZM34.2046 30.7914C34.0271 30.969 34.0305 31.326 34.2113 31.49C34.3351 31.6022 34.4805 31.6178 35.5786 31.6369C36.943 31.6606 37.2365 31.6131 37.3566 31.3493C37.4687 31.1033 37.4524 31.0022 37.2716 30.8214C37.1102 30.6598 37.1077 30.6595 35.7231 30.6595C34.4242 30.6595 34.328 30.6679 34.2046 30.7914ZM38.4877 30.7914C38.3162 30.963 38.3135 31.3259 38.4825 31.4791C38.5523 31.5422 38.73 31.61 38.8776 31.6298C39.2117 31.6746 39.4599 31.9109 39.511 32.2328C39.5612 32.5494 39.6205 32.6516 39.8195 32.7647C40.0444 32.8925 40.3649 32.7633 40.4535 32.509C40.5267 32.2988 40.453 31.8131 40.3041 31.5251C39.965 30.869 38.8574 30.4215 38.4877 30.7914ZM18.2631 33.8663C18.1354 34.0287 18.1265 34.1246 18.1265 35.3425C18.1265 36.5169 18.1387 36.66 18.2498 36.7973C18.4021 36.9855 18.7965 37.0064 18.9676 36.8355C19.0672 36.7359 19.0846 36.5484 19.1021 35.3852C19.1214 34.1064 19.1163 34.0416 18.982 33.8709C18.7895 33.626 18.4537 33.6238 18.2631 33.8663ZM43.3262 35.4445C43.4152 35.5336 43.4297 35.7993 43.4297 37.3434C43.4297 38.6519 43.4083 39.1602 43.3506 39.2179C43.2366 39.332 36.1769 39.332 36.0628 39.2179C36.0051 39.1602 35.9837 38.6519 35.9837 37.3434C35.9837 35.7993 35.9982 35.5336 36.0872 35.4445C36.1788 35.3529 36.5983 35.3409 39.7067 35.3409C42.8151 35.3409 43.2346 35.3529 43.3262 35.4445ZM37.5208 36.7104C37.265 36.7515 37.038 37.0442 37.038 37.333C37.038 37.8947 37.6533 38.173 38.0873 37.8076C38.4552 37.4978 38.3205 36.8606 37.8614 36.7395C37.7528 36.7108 37.5996 36.6977 37.5208 36.7104ZM18.2631 38.0202C18.1356 38.1824 18.1265 38.2788 18.1265 39.4751C18.1265 40.2521 18.154 40.8077 18.1964 40.887C18.3656 41.2032 18.8882 41.1735 19.0405 40.8389C19.0874 40.7359 19.1149 40.2164 19.1149 39.4347C19.1149 38.2792 19.1055 38.1819 18.9783 38.0202C18.8793 37.8942 18.7811 37.8464 18.6207 37.8464C18.4604 37.8464 18.3622 37.8942 18.2631 38.0202ZM18.2499 42.1406C18.1311 42.2596 18.1153 42.3333 18.1455 42.6267C18.2231 43.3791 18.7538 43.9685 19.4749 44.1033C19.8387 44.1713 20.1372 44.0955 20.2365 43.9099C20.4196 43.5676 20.1971 43.2334 19.7409 43.1652C19.4175 43.1169 19.1149 42.8126 19.1149 42.5357C19.1149 42.4324 19.0535 42.2696 18.9783 42.1741C18.8038 41.952 18.4545 41.9359 18.2499 42.1406ZM39.6738 42.1322C39.6013 42.2048 39.542 42.3397 39.542 42.4322C39.542 42.5247 39.497 42.6873 39.442 42.7938C39.3292 43.0121 39.038 43.1872 38.7875 43.1872C38.4003 43.1872 38.2012 43.7519 38.4946 44.0176C38.8025 44.2964 39.7434 44.0309 40.0902 43.5673C40.4841 43.0408 40.6066 42.3985 40.3641 42.1305C40.208 41.958 39.8471 41.9588 39.6738 42.1322ZM21.3579 43.3315C21.1893 43.5126 21.1857 43.7852 21.3494 43.9876C21.472 44.1392 21.5061 44.1438 22.6772 44.1652C23.3382 44.1773 23.9801 44.1682 24.1035 44.145C24.5524 44.0608 24.7119 43.6973 24.4475 43.3609L24.311 43.1872H22.9016C21.5366 43.1872 21.488 43.1917 21.3579 43.3315ZM25.6384 43.3191C25.472 43.4856 25.4693 43.7858 25.6325 43.9876C25.7552 44.1394 25.7881 44.1438 26.9663 44.1641C28.331 44.1876 28.5497 44.1628 28.7357 43.9629C28.9044 43.7818 28.9027 43.5797 28.7306 43.3609L28.5941 43.1872H27.1821C25.858 43.1872 25.762 43.1954 25.6384 43.3191ZM29.9215 43.3191C29.744 43.4967 29.7474 43.8537 29.9282 44.0176C30.052 44.1299 30.1974 44.1455 31.2955 44.1646C32.6599 44.1883 32.9534 44.1408 33.0735 43.877C33.1802 43.6428 33.1707 43.5605 33.0137 43.3609L32.8772 43.1872H31.4652C30.1411 43.1872 30.0451 43.1954 29.9215 43.3191ZM34.2046 43.3191C34.027 43.4968 34.0305 43.8537 34.2115 44.0176C34.3386 44.1328 34.4657 44.1433 35.7328 44.1433H37.1153L37.2744 43.9582C37.4692 43.7316 37.4746 43.5871 37.2968 43.3609L37.1603 43.1872H35.7483C34.4242 43.1872 34.3282 43.1954 34.2046 43.3191Z" fill="url(#paint1_linear_696_2)"/>
<defs>
<linearGradient id="paint0_linear_696_2" x1="52.5" y1="10.5" x2="10" y2="53" gradientUnits="userSpaceOnUse">
<stop stop-color="#06CE3E"/>
<stop offset="0.695833" stop-color="#2AD4A2"/>
<stop offset="1" stop-color="#3AD7CD"/>
</linearGradient>
<linearGradient id="paint1_linear_696_2" x1="41.25" y1="18.9063" x2="17.5086" y2="40.0097" gradientUnits="userSpaceOnUse">
<stop stop-color="#06CE3E"/>
<stop offset="0.695833" stop-color="#2AD4A2"/>
<stop offset="1" stop-color="#3AD7CD"/>
</linearGradient>
</defs>
</svg>
