<svg width="25" height="25" viewBox="0 0 25 25" fill="none" xmlns="http://www.w3.org/2000/svg">
<path fill-rule="evenodd" clip-rule="evenodd" d="M0 12.5C0 5.59644 5.59644 0 12.5 0C19.4036 0 25 5.59644 25 12.5C25 19.4036 19.4036 25 12.5 25C5.59644 25 0 19.4036 0 12.5ZM13.1539 16.6021C13.1539 16.6021 13.3945 16.5759 13.5178 16.4459C13.6306 16.3269 13.6267 16.1022 13.6267 16.1022C13.6267 16.1022 13.6117 15.053 14.108 14.8981C14.5971 14.7457 15.2251 15.9127 15.8915 16.3614C16.395 16.7007 16.7771 16.6264 16.7771 16.6264L18.5581 16.6021C18.5581 16.6021 19.4894 16.5458 19.0479 15.8269C19.0114 15.768 18.7903 15.295 17.724 14.3233C16.6069 13.3061 16.7569 13.4706 18.1016 11.7109C18.9207 10.6393 19.2481 9.98508 19.1457 9.70534C19.0485 9.43776 18.446 9.50882 18.446 9.50882L16.4413 9.52098C16.4413 9.52098 16.2926 9.50114 16.1824 9.56579C16.0748 9.62916 16.005 9.77703 16.005 9.77703C16.005 9.77703 15.6881 10.606 15.2648 11.3114C14.3721 12.7991 14.0154 12.8778 13.8693 12.7857C13.5295 12.5699 13.6143 11.9202 13.6143 11.4587C13.6143 10.0164 13.8373 9.41536 13.1806 9.25981C12.9628 9.20796 12.8024 9.17403 12.2448 9.16827C11.5294 9.16123 10.9242 9.17083 10.5812 9.33534C10.353 9.44481 10.1769 9.68934 10.2845 9.70342C10.4169 9.7207 10.7169 9.7828 10.876 9.99532C11.0814 10.2699 11.0742 10.8857 11.0742 10.8857C11.0742 10.8857 11.1923 12.5834 10.7984 12.794C10.5284 12.9386 10.158 12.6435 9.36173 11.2935C8.95415 10.6022 8.64634 9.83785 8.64634 9.83785C8.64634 9.83785 8.58699 9.6951 8.4807 9.61828C8.35223 9.52546 8.17289 9.49666 8.17289 9.49666L6.26801 9.50882C6.26801 9.50882 5.98172 9.5165 5.87673 9.63877C5.78347 9.74695 5.86955 9.97163 5.86955 9.97163C5.86955 9.97163 7.36098 13.397 9.05001 15.1234C10.5988 16.7058 12.357 16.6021 12.357 16.6021H13.1539Z" fill="white"/>
</svg>
