<svg width="36" height="36" viewBox="0 0 36 36" fill="none" xmlns="http://www.w3.org/2000/svg">
<path d="M22.8683 17.2042L19.1301 13.1337L14.9766 16.7888L18.7148 20.9424L22.8683 17.2042Z" fill="#137ABE"/>
<path d="M11.986 9.81089L15.7242 13.8814L19.8778 10.2262L16.1396 6.15577L11.986 9.81089Z" fill="#137ABE"/>
<path d="M25.7758 24.2652L22.0376 20.1947L17.8841 23.9329L21.6223 28.0034L25.7758 24.2652Z" fill="#137ABE"/>
<path d="M21.4561 31.077L14.6443 23.5176L16.5549 21.8562L11.7368 16.5396L13.6475 14.8782L8.82936 9.56168L16.3888 2.83294L18.7979 5.40813L22.9514 1.83609L25.3605 4.32821L26.9388 2.91601C26.6065 2.74987 26.1912 2.50065 25.8589 2.33451C23.4498 1.33766 20.8746 0.673096 18.1333 0.673096C8.58014 0.673096 0.771484 8.39868 0.771484 17.8688C0.771484 27.3388 8.58014 35.0644 18.2164 35.0644C21.3731 35.0644 24.2805 34.2337 26.7727 32.8215C27.6034 32.3231 28.351 31.8247 29.0986 31.3262L25.6097 27.4219L21.4561 31.077Z" fill="#137ABE"/>
<path d="M19.6286 7.81719L22.3699 10.8908L25.5266 8.14947L22.7022 5.07585L19.6286 7.81719Z" fill="#137ABE"/>
<path d="M28.351 14.2967L25.5266 11.2231L22.453 14.0475L25.2774 17.038L28.351 14.2967Z" fill="#137ABE"/>
<path d="M31.0093 20.7762L28.1849 17.7026L25.1112 20.444L27.9356 23.6006L31.0093 20.7762Z" fill="#137ABE"/>
<path d="M31.1754 10.6416L29.0986 12.4692L31.0093 14.5459L33.003 12.7184L31.1754 10.6416Z" fill="#137ABE"/>
<path d="M31.7569 18.5333L33.5845 20.6101L35.6612 18.7825L33.7506 16.7058L31.7569 18.5333Z" fill="#137ABE"/>
<path d="M26.4404 6.40498L28.351 8.48175L30.3447 6.6542L28.5171 4.57742L26.4404 6.40498Z" fill="#137ABE"/>
<path d="M27.8526 26.6743L30.677 29.7479L33.7506 27.0065L30.9262 23.9329L27.8526 26.6743Z" fill="#137ABE"/>
</svg>
