<svg width="25" height="25" viewBox="0 0 25 25" fill="none" xmlns="http://www.w3.org/2000/svg">
<path fill-rule="evenodd" clip-rule="evenodd" d="M12.5 25C5.59644 25 0 19.4036 0 12.5C0 5.59644 5.59644 0 12.5 0C19.4036 0 25 5.59644 25 12.5C25 19.4036 19.4036 25 12.5 25ZM12.912 19.4544C17.0101 19.4528 20.3432 16.1189 20.3449 12.0216C20.3457 10.0356 19.5732 8.16813 18.1699 6.76323C16.7666 5.35826 14.9003 4.58419 12.9119 4.58333C8.81501 4.58333 5.48061 7.91755 5.47898 12.0158C5.47843 13.3258 5.82069 14.6044 6.47115 15.7317L5.41667 19.5833L9.35695 18.5497C10.4426 19.1419 11.665 19.454 12.9089 19.4544H12.912Z" fill="white"/>
<path fill-rule="evenodd" clip-rule="evenodd" d="M9.53951 17.2041L7.20129 17.8174L7.8254 15.5377L7.67851 15.304C7.06009 14.3203 6.73347 13.1835 6.73395 12.0162C6.7353 8.60993 9.50673 5.83875 12.9144 5.83875C14.5646 5.83932 16.1157 6.48273 17.2821 7.65049C18.4485 8.81825 19.0905 10.3704 19.0899 12.0212C19.0885 15.4276 16.3171 18.1991 12.912 18.1991H12.9095C11.8009 18.1987 10.7136 17.9008 9.76511 17.338L9.53951 17.2041ZM16.6567 13.7891C16.6102 13.7116 16.4865 13.6652 16.3007 13.5722C16.115 13.4792 15.2019 13.03 15.0316 12.9679C14.8614 12.906 14.7376 12.875 14.6138 13.0609C14.49 13.2468 14.1341 13.6652 14.0257 13.7891C13.9174 13.913 13.809 13.9286 13.6234 13.8356C13.4376 13.7426 12.8392 13.5465 12.1298 12.9138C11.5777 12.4213 11.205 11.8131 11.0966 11.6272C10.9883 11.4413 11.0851 11.3408 11.1781 11.2482C11.2616 11.1649 11.3638 11.0312 11.4566 10.9228C11.5495 10.8144 11.5804 10.7368 11.6424 10.613C11.7043 10.489 11.6733 10.3806 11.6269 10.2876C11.5804 10.1946 11.209 9.28045 11.0543 8.90857C10.9035 8.54642 10.7504 8.59548 10.6364 8.58976C10.5282 8.58432 10.4042 8.58318 10.2804 8.58318C10.1566 8.58318 9.95541 8.62967 9.78518 8.8156C9.61495 9.00154 9.13516 9.45086 9.13516 10.365C9.13516 11.2791 9.80065 12.1623 9.89352 12.2862C9.98637 12.4102 11.2031 14.2861 13.0662 15.0905C13.5093 15.2819 13.8552 15.3962 14.125 15.4818C14.5699 15.6231 14.9748 15.6032 15.2947 15.5554C15.6516 15.5021 16.3936 15.1061 16.5484 14.6723C16.7031 14.2384 16.7031 13.8665 16.6567 13.7891Z" fill="white"/>
</svg>
