<svg width="33" height="31" viewBox="0 0 33 31" fill="none" xmlns="http://www.w3.org/2000/svg">
<path d="M32.3746 13.1372C32.2085 12.1404 31.2947 11.4758 30.0487 11.4758C29.6333 11.4758 29.301 11.4758 28.8857 11.4758C28.138 11.3927 27.9719 11.6419 27.9719 12.2234C27.9719 15.1309 27.9719 17.9553 27.9719 20.8628C27.9719 22.3581 26.4766 23.9364 24.7321 24.2687C19.2495 25.5148 13.7668 26.6778 8.2841 27.9238C7.70261 28.09 7.03805 28.09 6.37348 28.09C6.12427 28.09 5.70892 27.9238 5.62585 27.6746C5.54278 27.5085 5.79199 27.1762 5.95813 27.01C6.20734 26.8439 6.53963 26.6778 6.87191 26.5116C7.86876 26.1793 8.94867 25.847 9.94552 25.5148C14.016 24.1856 18.0865 22.8565 22.1569 21.4443C23.9845 20.8628 24.9813 19.6167 24.9813 18.0384C25.0644 13.0541 24.9813 7.98681 24.9813 3.00256C24.9813 2.17186 24.566 1.50729 23.6522 1.17501C22.5723 0.759654 21.5754 1.09193 20.6617 1.50729C14.8467 4.24862 9.11481 6.98997 3.29985 9.73131C1.63844 10.562 0.641602 11.725 0.641602 13.3864C0.641602 18.1215 0.641602 22.8565 0.641602 27.5915C0.641602 27.8408 0.641581 28.09 0.724652 28.2561C1.30615 29.8345 2.80144 30.8313 4.79514 30.8313C8.86561 30.8313 12.9361 30.8313 17.0065 30.8313C21.077 30.8313 25.0644 30.8313 29.1349 30.8313C30.0487 30.8313 30.7963 30.6652 31.4609 30.0837C32.2916 29.4191 32.2916 28.5053 32.2916 27.6746C32.2916 23.0226 32.2916 18.4537 32.2916 13.8018C32.4577 13.7187 32.4577 13.3864 32.3746 13.1372ZM15.4282 11.6419C15.8436 10.562 16.7573 9.89745 18.0865 9.73131C19.0003 9.64824 19.7479 10.1467 19.914 10.9774C20.0802 12.2234 18.5849 13.7187 17.0065 13.7187C15.7605 13.7187 15.0128 12.8049 15.4282 11.6419Z" fill="#E47418"/>
</svg>
